{"glyphs":{"0":{"ha":764,"x_min":93,"x_max":671,"o":"m 382 -24 q 165 99 236 -24 q 93 467 93 221 q 165 831 93 707 q 382 956 236 956 q 597 830 522 956 q 671 467 671 704 q 597 100 671 224 q 382 -24 524 -24 m 382 49 q 536 156 482 49 q 590 474 590 263 q 535 778 590 674 q 382 883 479 883 q 174 467 174 883 q 226 152 174 256 q 382 49 278 49 z "},"1":{"ha":764,"x_min":168,"x_max":596,"o":"m 596 75 l 596 0 l 168 0 l 168 75 l 343 75 l 343 861 l 196 861 l 196 936 l 421 936 l 421 75 l 596 75 z "},"2":{"ha":764,"x_min":86,"x_max":685,"o":"m 86 75 q 376 353 288 263 q 514 524 465 443 q 563 685 563 604 q 508 832 563 781 q 363 883 454 883 q 121 826 235 883 l 121 904 q 363 956 239 956 q 565 885 486 956 q 643 686 643 815 q 599 519 643 600 q 490 366 556 438 q 307 185 424 294 q 193 75 251 133 l 685 75 l 685 0 l 86 0 l 86 75 z "},"3":{"ha":764,"x_min":121,"x_max":657,"o":"m 488 499 q 614 408 571 471 q 657 257 657 344 q 577 52 657 128 q 361 -24 497 -24 q 121 25 236 -24 l 121 103 q 235 63 172 76 q 361 49 299 49 q 521 103 465 49 q 576 260 576 158 q 510 410 576 358 q 321 461 444 461 l 232 461 l 232 533 l 321 533 q 501 579 439 533 q 563 714 563 625 q 510 838 563 793 q 361 883 457 883 q 244 872 304 883 q 135 835 185 860 l 135 913 q 361 956 239 956 q 567 890 492 956 q 643 714 643 825 q 604 584 643 638 q 488 499 565 531 z "},"4":{"ha":764,"x_min":42,"x_max":740,"o":"m 740 222 l 569 222 l 569 -24 l 492 -24 l 492 222 l 42 222 l 42 297 l 492 949 l 569 949 l 569 297 l 740 297 l 740 222 m 492 297 l 492 814 l 128 297 l 492 297 z "},"5":{"ha":764,"x_min":114,"x_max":664,"o":"m 333 596 q 577 513 490 596 q 664 293 664 431 q 576 59 664 142 q 333 -24 488 -24 q 114 17 215 -24 l 114 93 q 333 49 218 49 q 583 293 583 49 q 517 464 583 404 q 333 524 451 524 q 129 482 235 524 l 139 936 l 610 936 l 610 861 l 215 861 l 208 582 q 333 596 271 596 z "},"6":{"ha":764,"x_min":93,"x_max":682,"o":"m 389 581 q 542 543 476 581 q 645 438 608 506 q 682 278 682 369 q 644 119 682 188 q 542 14 607 51 q 396 -24 476 -24 q 173 71 253 -24 q 93 335 93 165 q 199 677 93 519 q 494 953 304 835 l 538 896 q 333 724 419 819 q 206 518 246 629 q 389 581 288 581 m 396 49 q 544 110 486 49 q 601 278 601 172 q 541 447 601 385 q 389 508 481 508 q 271 483 325 508 q 179 417 217 458 q 174 335 174 382 q 234 119 175 189 q 396 49 293 49 z "},"7":{"ha":764,"x_min":115,"x_max":701,"o":"m 701 936 l 701 861 l 339 -24 l 253 -24 l 625 861 l 115 861 l 115 936 l 701 936 z "},"8":{"ha":764,"x_min":83,"x_max":681,"o":"m 521 488 q 638 392 594 456 q 681 246 681 329 q 641 104 681 165 q 533 10 601 43 q 382 -24 465 -24 q 231 10 299 -24 q 123 104 163 43 q 83 246 83 165 q 126 392 83 329 q 243 488 169 456 q 149 578 183 521 q 114 704 114 635 q 150 833 114 775 q 247 923 186 890 q 382 956 308 956 q 517 923 456 956 q 614 833 578 890 q 650 704 650 775 q 615 578 650 635 q 521 488 581 521 m 382 883 q 249 833 304 883 q 194 704 194 782 q 249 575 194 625 q 382 525 303 525 q 515 575 461 525 q 569 704 569 625 q 515 833 569 782 q 382 883 460 883 m 382 49 q 538 102 475 49 q 600 246 600 156 q 538 389 600 335 q 382 443 475 443 q 226 389 289 443 q 164 246 164 335 q 226 102 164 156 q 382 49 289 49 z "},"9":{"ha":764,"x_min":81,"x_max":669,"o":"m 367 956 q 590 861 510 956 q 669 597 669 767 q 564 255 669 413 q 268 -21 458 97 l 225 36 q 430 208 343 113 q 557 414 517 303 q 374 351 475 351 q 220 389 286 351 q 117 494 154 426 q 81 654 81 563 q 118 813 81 744 q 221 918 156 881 q 367 956 286 956 m 374 424 q 492 449 438 424 q 583 515 546 474 q 589 597 589 550 q 528 813 588 743 q 367 883 469 883 q 219 822 276 883 q 161 654 161 760 q 222 485 161 547 q 374 424 282 424 z "},"\r":{"ha":833,"x_min":0,"x_max":0,"o":""}," ":{"ha":306,"x_min":0,"x_max":0,"o":""},"A":{"ha":957,"x_min":35,"x_max":922,"o":"m 703 353 l 254 353 l 118 0 l 35 0 l 444 1065 l 511 1065 l 922 0 l 839 0 l 703 353 m 674 428 l 478 936 l 282 428 l 674 428 z "},"Á":{"ha":957,"x_min":35,"x_max":922,"o":"m 35 0 m 703 353 l 254 353 l 118 0 l 35 0 l 444 1065 l 511 1065 l 922 0 l 839 0 l 703 353 m 674 428 l 478 936 l 282 428 l 674 428 m 583 1374 l 678 1374 l 510 1161 l 433 1161 l 583 1374 z "},"Ă":{"ha":957,"x_min":35,"x_max":922,"o":"m 35 0 m 703 353 l 254 353 l 118 0 l 35 0 l 444 1065 l 511 1065 l 922 0 l 839 0 l 703 353 m 674 428 l 478 936 l 282 428 l 674 428 m 478 1164 q 326 1215 382 1164 q 269 1363 269 1267 l 269 1371 l 339 1371 l 339 1363 q 372 1263 339 1294 q 478 1231 406 1231 q 583 1263 550 1231 q 617 1363 617 1294 l 617 1371 l 686 1371 l 686 1363 q 633 1215 690 1267 q 478 1164 575 1164 z "},"Â":{"ha":957,"x_min":35,"x_max":922,"o":"m 35 0 m 703 353 l 254 353 l 118 0 l 35 0 l 444 1065 l 511 1065 l 922 0 l 839 0 l 703 353 m 674 428 l 478 936 l 282 428 l 674 428 m 589 1161 l 478 1319 l 365 1161 l 271 1161 l 439 1374 l 515 1374 l 683 1161 l 589 1161 z "},"Ä":{"ha":957,"x_min":35,"x_max":922,"o":"m 35 0 m 703 353 l 254 353 l 118 0 l 35 0 l 444 1065 l 511 1065 l 922 0 l 839 0 l 703 353 m 674 428 l 478 936 l 282 428 l 674 428 m 575 1344 l 650 1344 l 650 1190 l 575 1190 l 575 1344 m 304 1344 l 379 1344 l 379 1190 l 304 1190 l 304 1344 z "},"À":{"ha":957,"x_min":35,"x_max":922,"o":"m 35 0 m 703 353 l 254 353 l 118 0 l 35 0 l 444 1065 l 511 1065 l 922 0 l 839 0 l 703 353 m 674 428 l 478 936 l 282 428 l 674 428 m 293 1374 l 388 1374 l 538 1161 l 461 1161 l 293 1374 z "},"Ā":{"ha":957,"x_min":35,"x_max":922,"o":"m 35 0 m 703 353 l 254 353 l 118 0 l 35 0 l 444 1065 l 511 1065 l 922 0 l 839 0 l 703 353 m 674 428 l 478 936 l 282 428 l 674 428 m 263 1301 l 692 1301 l 692 1235 l 263 1235 l 263 1301 z "},"Ą":{"ha":957,"x_min":35,"x_max":922,"o":"m 35 0 m 703 353 l 254 353 l 118 0 l 35 0 l 444 1065 l 511 1065 l 922 0 l 839 0 l 703 353 m 674 428 l 478 936 l 282 428 l 674 428 m 850 -310 q 744 -278 781 -310 q 708 -194 708 -247 q 741 -97 708 -143 q 839 0 774 -51 l 922 0 q 815 -98 851 -56 q 779 -187 779 -140 q 797 -228 779 -212 q 850 -244 814 -244 q 922 -228 890 -244 l 922 -294 q 850 -310 888 -310 z "},"Å":{"ha":957,"x_min":35,"x_max":922,"o":"m 35 0 m 703 353 l 254 353 l 118 0 l 35 0 l 444 1065 l 511 1065 l 922 0 l 839 0 l 703 353 m 674 428 l 478 936 l 282 428 l 674 428 m 478 1139 q 386 1176 424 1139 q 349 1267 349 1213 q 385 1357 349 1321 q 478 1393 422 1393 q 569 1357 532 1393 q 606 1267 606 1321 q 569 1176 606 1213 q 478 1139 532 1139 m 478 1192 q 528 1213 508 1192 q 549 1267 549 1233 q 529 1322 549 1301 q 478 1342 510 1342 q 426 1321 447 1342 q 406 1267 406 1300 q 426 1213 406 1233 q 478 1192 447 1192 z "},"Ã":{"ha":957,"x_min":35,"x_max":922,"o":"m 35 0 m 703 353 l 254 353 l 118 0 l 35 0 l 444 1065 l 511 1065 l 922 0 l 839 0 l 703 353 m 674 428 l 478 936 l 282 428 l 674 428 m 282 1197 q 313 1297 285 1265 q 382 1329 342 1329 q 464 1306 421 1329 l 515 1278 q 558 1264 539 1264 q 603 1329 603 1264 l 672 1329 q 641 1229 669 1261 q 572 1197 613 1197 q 492 1221 535 1197 l 440 1249 q 396 1263 415 1263 q 351 1197 351 1263 l 282 1197 z "},"Æ":{"ha":1472,"x_min":49,"x_max":1389,"o":"m 1389 75 l 1389 0 l 772 0 l 772 353 l 364 353 l 135 0 l 49 0 l 738 1053 l 1382 1053 l 1382 978 l 850 978 l 850 567 l 1313 567 l 1313 492 l 850 492 l 850 75 l 1389 75 m 772 428 l 772 978 l 771 978 l 413 428 l 772 428 z "},"B":{"ha":958,"x_min":167,"x_max":850,"o":"m 663 535 q 850 281 850 472 q 768 69 850 139 q 493 0 686 0 l 167 0 l 167 1053 l 493 1053 q 738 985 667 1053 q 808 771 808 917 q 663 535 808 601 m 244 564 l 493 564 q 669 616 611 564 q 728 776 728 668 q 706 895 728 851 q 633 960 685 939 q 493 981 582 981 l 244 981 l 244 564 m 769 283 q 700 442 769 392 q 493 492 631 492 l 244 492 l 244 72 l 493 72 q 707 123 644 72 q 769 283 769 174 z "},"C":{"ha":976,"x_min":93,"x_max":928,"o":"m 589 -24 q 317 45 428 -24 q 149 238 206 114 q 93 525 93 361 q 147 804 93 681 q 313 1000 201 928 q 589 1072 424 1072 q 720 1060 663 1072 q 844 1021 778 1049 l 844 943 q 589 1000 729 1000 q 366 940 460 1000 q 223 773 272 879 q 174 529 174 667 q 222 278 174 386 q 364 109 271 169 q 589 49 457 49 q 742 70 667 49 q 900 131 817 92 l 928 61 q 758 -2 847 19 q 589 -24 669 -24 z "},"Ć":{"ha":976,"x_min":93,"x_max":928,"o":"m 93 0 m 589 -24 q 317 45 428 -24 q 149 238 206 114 q 93 525 93 361 q 147 804 93 681 q 313 1000 201 928 q 589 1072 424 1072 q 720 1060 663 1072 q 844 1021 778 1049 l 844 943 q 589 1000 729 1000 q 366 940 460 1000 q 223 773 272 879 q 174 529 174 667 q 222 278 174 386 q 364 109 271 169 q 589 49 457 49 q 742 70 667 49 q 900 131 817 92 l 928 61 q 758 -2 847 19 q 589 -24 669 -24 m 639 1374 l 733 1374 l 565 1161 l 489 1161 l 639 1374 z "},"Č":{"ha":976,"x_min":93,"x_max":928,"o":"m 93 0 m 589 -24 q 317 45 428 -24 q 149 238 206 114 q 93 525 93 361 q 147 804 93 681 q 313 1000 201 928 q 589 1072 424 1072 q 720 1060 663 1072 q 844 1021 778 1049 l 844 943 q 589 1000 729 1000 q 366 940 460 1000 q 223 773 272 879 q 174 529 174 667 q 222 278 174 386 q 364 109 271 169 q 589 49 457 49 q 742 70 667 49 q 900 131 817 92 l 928 61 q 758 -2 847 19 q 589 -24 669 -24 m 739 1374 l 571 1161 l 494 1161 l 326 1374 l 421 1374 l 533 1215 l 644 1374 l 739 1374 z "},"Ç":{"ha":976,"x_min":93,"x_max":928,"o":"m 618 -100 q 730 -135 690 -100 q 769 -229 769 -171 q 725 -328 769 -290 q 600 -365 681 -365 q 472 -337 533 -365 l 472 -271 q 600 -300 536 -300 q 674 -279 650 -300 q 699 -229 699 -258 q 618 -165 699 -165 q 500 -189 571 -165 l 551 -22 q 300 57 403 -14 q 145 248 197 128 q 93 525 93 368 q 147 804 93 681 q 313 1000 201 928 q 589 1072 424 1072 q 720 1060 663 1072 q 844 1021 778 1049 l 844 943 q 589 1000 729 1000 q 366 940 460 1000 q 223 773 272 879 q 174 529 174 667 q 222 278 174 386 q 364 109 271 169 q 589 49 457 49 q 742 70 667 49 q 900 131 817 92 l 928 61 q 775 2 854 24 q 622 -22 696 -19 l 597 -101 q 618 -100 604 -100 z "},"Ċ":{"ha":976,"x_min":93,"x_max":928,"o":"m 93 0 m 589 -24 q 317 45 428 -24 q 149 238 206 114 q 93 525 93 361 q 147 804 93 681 q 313 1000 201 928 q 589 1072 424 1072 q 720 1060 663 1072 q 844 1021 778 1049 l 844 943 q 589 1000 729 1000 q 366 940 460 1000 q 223 773 272 879 q 174 529 174 667 q 222 278 174 386 q 364 109 271 169 q 589 49 457 49 q 742 70 667 49 q 900 131 817 92 l 928 61 q 758 -2 847 19 q 589 -24 669 -24 m 496 1344 l 571 1344 l 571 1190 l 496 1190 l 496 1344 z "},"D":{"ha":1103,"x_min":167,"x_max":1003,"o":"m 507 1053 q 878 919 753 1053 q 1003 525 1003 785 q 878 132 1003 264 q 507 0 754 0 l 167 0 l 167 1053 l 507 1053 m 507 72 q 817 182 713 72 q 922 529 922 292 q 817 871 922 761 q 507 981 711 981 l 244 981 l 244 72 l 507 72 z "},"Ð":{"ha":1103,"x_min":38,"x_max":1003,"o":"m 507 1053 q 878 919 753 1053 q 1003 525 1003 785 q 878 132 1003 264 q 507 0 754 0 l 167 0 l 167 493 l 38 493 l 38 565 l 167 565 l 167 1053 l 507 1053 m 507 72 q 817 182 713 72 q 922 529 922 292 q 817 871 922 761 q 507 981 711 981 l 244 981 l 244 565 l 531 565 l 531 493 l 244 493 l 244 72 l 507 72 z "},"Ď":{"ha":1103,"x_min":167,"x_max":1003,"o":"m 167 0 m 507 1053 q 878 919 753 1053 q 1003 525 1003 785 q 878 132 1003 264 q 507 0 754 0 l 167 0 l 167 1053 l 507 1053 m 507 72 q 817 182 713 72 q 922 529 922 292 q 817 871 922 761 q 507 981 711 981 l 244 981 l 244 72 l 507 72 m 713 1374 l 544 1161 l 468 1161 l 300 1374 l 394 1374 l 507 1215 l 618 1374 l 713 1374 z "},"Đ":{"ha":1103,"x_min":38,"x_max":1003,"o":"m 38 0 m 507 1053 q 878 919 753 1053 q 1003 525 1003 785 q 878 132 1003 264 q 507 0 754 0 l 167 0 l 167 493 l 38 493 l 38 565 l 167 565 l 167 1053 l 507 1053 m 507 72 q 817 182 713 72 q 922 529 922 292 q 817 871 922 761 q 507 981 711 981 l 244 981 l 244 565 l 531 565 l 531 493 l 244 493 l 244 72 l 507 72 z "},"E":{"ha":867,"x_min":167,"x_max":783,"o":"m 783 75 l 783 0 l 167 0 l 167 1053 l 776 1053 l 776 978 l 244 978 l 244 567 l 707 567 l 707 492 l 244 492 l 244 75 l 783 75 z "},"É":{"ha":867,"x_min":167,"x_max":783,"o":"m 167 0 m 783 75 l 783 0 l 167 0 l 167 1053 l 776 1053 l 776 978 l 244 978 l 244 567 l 707 567 l 707 492 l 244 492 l 244 75 l 783 75 m 574 1374 l 668 1374 l 500 1161 l 424 1161 l 574 1374 z "},"Ě":{"ha":867,"x_min":167,"x_max":783,"o":"m 167 0 m 783 75 l 783 0 l 167 0 l 167 1053 l 776 1053 l 776 978 l 244 978 l 244 567 l 707 567 l 707 492 l 244 492 l 244 75 l 783 75 m 674 1374 l 506 1161 l 429 1161 l 261 1374 l 356 1374 l 468 1215 l 579 1374 l 674 1374 z "},"Ê":{"ha":867,"x_min":167,"x_max":783,"o":"m 167 0 m 783 75 l 783 0 l 167 0 l 167 1053 l 776 1053 l 776 978 l 244 978 l 244 567 l 707 567 l 707 492 l 244 492 l 244 75 l 783 75 m 579 1161 l 468 1319 l 356 1161 l 261 1161 l 429 1374 l 506 1374 l 674 1161 l 579 1161 z "},"Ë":{"ha":867,"x_min":167,"x_max":783,"o":"m 167 0 m 783 75 l 783 0 l 167 0 l 167 1053 l 776 1053 l 776 978 l 244 978 l 244 567 l 707 567 l 707 492 l 244 492 l 244 75 l 783 75 m 565 1344 l 640 1344 l 640 1190 l 565 1190 l 565 1344 m 294 1344 l 369 1344 l 369 1190 l 294 1190 l 294 1344 z "},"Ė":{"ha":867,"x_min":167,"x_max":783,"o":"m 167 0 m 783 75 l 783 0 l 167 0 l 167 1053 l 776 1053 l 776 978 l 244 978 l 244 567 l 707 567 l 707 492 l 244 492 l 244 75 l 783 75 m 431 1344 l 506 1344 l 506 1190 l 431 1190 l 431 1344 z "},"È":{"ha":867,"x_min":167,"x_max":783,"o":"m 167 0 m 783 75 l 783 0 l 167 0 l 167 1053 l 776 1053 l 776 978 l 244 978 l 244 567 l 707 567 l 707 492 l 244 492 l 244 75 l 783 75 m 283 1374 l 378 1374 l 528 1161 l 451 1161 l 283 1374 z "},"Ē":{"ha":867,"x_min":167,"x_max":783,"o":"m 167 0 m 267 1301 l 696 1301 l 696 1235 l 267 1235 l 267 1301 m 783 75 l 783 0 l 167 0 l 167 1053 l 776 1053 l 776 978 l 244 978 l 244 567 l 707 567 l 707 492 l 244 492 l 244 75 l 783 75 z "},"Ę":{"ha":867,"x_min":167,"x_max":783,"o":"m 167 0 m 783 75 l 783 0 l 167 0 l 167 1053 l 776 1053 l 776 978 l 244 978 l 244 567 l 707 567 l 707 492 l 244 492 l 244 75 l 783 75 m 711 -310 q 606 -278 642 -310 q 569 -194 569 -247 q 602 -97 569 -143 q 700 0 635 -51 l 783 0 q 676 -98 713 -56 q 640 -187 640 -140 q 658 -228 640 -212 q 711 -244 675 -244 q 783 -228 751 -244 l 783 -294 q 711 -310 749 -310 z "},"F":{"ha":846,"x_min":167,"x_max":776,"o":"m 244 978 l 244 553 l 707 553 l 707 478 l 244 478 l 244 0 l 167 0 l 167 1053 l 776 1053 l 776 978 l 244 978 z "},"G":{"ha":1083,"x_min":93,"x_max":951,"o":"m 951 643 l 951 74 q 772 1 869 26 q 589 -24 674 -24 q 317 45 428 -24 q 149 238 206 114 q 93 525 93 361 q 147 804 93 681 q 313 1000 201 928 q 589 1072 424 1072 q 744 1055 681 1072 q 886 1003 807 1038 l 886 921 q 747 980 815 960 q 589 1000 678 1000 q 366 940 460 1000 q 223 773 272 879 q 174 529 174 667 q 222 278 174 386 q 364 109 271 169 q 589 49 457 49 q 728 67 660 49 q 874 118 797 85 l 874 568 l 417 568 l 417 643 l 951 643 z "},"Ğ":{"ha":1083,"x_min":93,"x_max":951,"o":"m 93 0 m 951 643 l 951 74 q 772 1 869 26 q 589 -24 674 -24 q 317 45 428 -24 q 149 238 206 114 q 93 525 93 361 q 147 804 93 681 q 313 1000 201 928 q 589 1072 424 1072 q 744 1055 681 1072 q 886 1003 807 1038 l 886 921 q 747 980 815 960 q 589 1000 678 1000 q 366 940 460 1000 q 223 773 272 879 q 174 529 174 667 q 222 278 174 386 q 364 109 271 169 q 589 49 457 49 q 728 67 660 49 q 874 118 797 85 l 874 568 l 417 568 l 417 643 l 951 643 m 568 1164 q 416 1215 472 1164 q 360 1363 360 1267 l 360 1371 l 429 1371 l 429 1363 q 463 1263 429 1294 q 568 1231 496 1231 q 674 1263 640 1231 q 707 1363 707 1294 l 707 1371 l 776 1371 l 776 1363 q 723 1215 781 1267 q 568 1164 665 1164 z "},"Ģ":{"ha":1083,"x_min":93,"x_max":951,"o":"m 93 0 m 951 643 l 951 74 q 772 1 869 26 q 589 -24 674 -24 q 317 45 428 -24 q 149 238 206 114 q 93 525 93 361 q 147 804 93 681 q 313 1000 201 928 q 589 1072 424 1072 q 744 1055 681 1072 q 886 1003 807 1038 l 886 921 q 747 980 815 960 q 589 1000 678 1000 q 366 940 460 1000 q 223 773 272 879 q 174 529 174 667 q 222 278 174 386 q 364 109 271 169 q 589 49 457 49 q 728 67 660 49 q 874 118 797 85 l 874 568 l 417 568 l 417 643 l 951 643 m 539 -111 l 622 -111 l 569 -342 l 494 -342 l 539 -111 z "},"Ġ":{"ha":1083,"x_min":93,"x_max":951,"o":"m 93 0 m 951 643 l 951 74 q 772 1 869 26 q 589 -24 674 -24 q 317 45 428 -24 q 149 238 206 114 q 93 525 93 361 q 147 804 93 681 q 313 1000 201 928 q 589 1072 424 1072 q 744 1055 681 1072 q 886 1003 807 1038 l 886 921 q 747 980 815 960 q 589 1000 678 1000 q 366 940 460 1000 q 223 773 272 879 q 174 529 174 667 q 222 278 174 386 q 364 109 271 169 q 589 49 457 49 q 728 67 660 49 q 874 118 797 85 l 874 568 l 417 568 l 417 643 l 951 643 m 531 1344 l 606 1344 l 606 1190 l 531 1190 l 531 1344 z "},"H":{"ha":1076,"x_min":167,"x_max":910,"o":"m 910 1053 l 910 0 l 832 0 l 832 492 l 244 492 l 244 0 l 167 0 l 167 1053 l 244 1053 l 244 567 l 832 567 l 832 1053 l 910 1053 z "},"Ħ":{"ha":1076,"x_min":167,"x_max":910,"o":"m 910 1053 l 910 0 l 832 0 l 832 492 l 244 492 l 244 0 l 167 0 l 167 1053 l 244 1053 l 244 844 l 832 844 l 832 1053 l 910 1053 m 832 567 l 832 772 l 244 772 l 244 567 l 832 567 z "},"I":{"ha":411,"x_min":167,"x_max":244,"o":"m 167 1053 l 244 1053 l 244 0 l 167 0 l 167 1053 z "},"Ĳ":{"ha":822,"x_min":167,"x_max":656,"o":"m 167 0 m 167 1053 l 244 1053 l 244 0 l 167 0 l 167 1053 m 483 -112 q 426 -107 454 -112 l 426 -32 q 490 -37 454 -37 q 544 -25 526 -37 q 570 20 563 -12 q 578 119 578 53 l 578 1053 l 656 1053 l 656 111 q 641 -26 656 21 q 590 -93 626 -74 q 483 -112 553 -112 z "},"Í":{"ha":411,"x_min":161,"x_max":406,"o":"m 161 0 m 167 1053 l 244 1053 l 244 0 l 167 0 l 167 1053 m 311 1374 l 406 1374 l 238 1161 l 161 1161 l 311 1374 z "},"Î":{"ha":411,"x_min":-1,"x_max":411,"o":"m 0 0 m 167 1053 l 244 1053 l 244 0 l 167 0 l 167 1053 m 317 1161 l 206 1319 l 93 1161 l -1 1161 l 167 1374 l 243 1374 l 411 1161 l 317 1161 z "},"Ï":{"ha":411,"x_min":32,"x_max":378,"o":"m 32 0 m 167 1053 l 244 1053 l 244 0 l 167 0 l 167 1053 m 303 1344 l 378 1344 l 378 1190 l 303 1190 l 303 1344 m 32 1344 l 107 1344 l 107 1190 l 32 1190 l 32 1344 z "},"İ":{"ha":411,"x_min":167,"x_max":244,"o":"m 167 0 m 167 1053 l 244 1053 l 244 0 l 167 0 l 167 1053 m 168 1344 l 243 1344 l 243 1190 l 168 1190 l 168 1344 z "},"Ì":{"ha":411,"x_min":21,"x_max":265,"o":"m 21 0 m 167 1053 l 244 1053 l 244 0 l 167 0 l 167 1053 m 21 1374 l 115 1374 l 265 1161 l 189 1161 l 21 1374 z "},"Ī":{"ha":411,"x_min":-10,"x_max":419,"o":"m 0 0 m 167 1053 l 244 1053 l 244 0 l 167 0 l 167 1053 m -10 1301 l 419 1301 l 419 1235 l -10 1235 l -10 1301 z "},"Į":{"ha":411,"x_min":31,"x_max":244,"o":"m 244 1053 l 244 0 q 138 -98 174 -56 q 101 -187 101 -140 q 119 -228 101 -212 q 172 -244 136 -244 q 244 -228 213 -244 l 244 -294 q 172 -310 210 -310 q 67 -278 103 -310 q 31 -194 31 -247 q 65 -97 31 -143 q 167 0 99 -51 l 167 1053 l 244 1053 z "},"J":{"ha":411,"x_min":15,"x_max":244,"o":"m 72 -112 q 15 -107 43 -112 l 15 -32 q 79 -37 43 -37 q 133 -25 115 -37 q 159 20 151 -12 q 167 119 167 53 l 167 1053 l 244 1053 l 244 111 q 230 -26 244 21 q 178 -93 215 -74 q 72 -112 142 -112 z "},"K":{"ha":917,"x_min":167,"x_max":861,"o":"m 328 522 l 244 439 l 244 0 l 167 0 l 167 1053 l 244 1053 l 244 540 l 753 1053 l 854 1053 l 386 582 l 861 0 l 757 0 l 328 522 z "},"Ķ":{"ha":917,"x_min":167,"x_max":861,"o":"m 167 0 m 328 522 l 244 439 l 244 0 l 167 0 l 167 1053 l 244 1053 l 244 540 l 753 1053 l 854 1053 l 386 582 l 861 0 l 757 0 l 328 522 m 401 -111 l 485 -111 l 432 -342 l 357 -342 l 401 -111 z "},"L":{"ha":769,"x_min":167,"x_max":714,"o":"m 714 75 l 714 0 l 167 0 l 167 1053 l 244 1053 l 244 75 l 714 75 z "},"Ĺ":{"ha":769,"x_min":161,"x_max":714,"o":"m 161 0 m 714 75 l 714 0 l 167 0 l 167 1053 l 244 1053 l 244 75 l 714 75 m 311 1374 l 406 1374 l 238 1161 l 161 1161 l 311 1374 z "},"Ľ":{"ha":769,"x_min":167,"x_max":714,"o":"m 167 0 m 714 75 l 714 0 l 167 0 l 167 1053 l 244 1053 l 244 75 l 714 75 m 471 1053 l 546 1053 l 468 772 l 401 772 l 471 1053 z "},"Ļ":{"ha":769,"x_min":167,"x_max":714,"o":"m 167 0 m 714 75 l 714 0 l 167 0 l 167 1053 l 244 1053 l 244 75 l 714 75 m 386 -111 l 469 -111 l 417 -342 l 342 -342 l 386 -111 z "},"Ŀ":{"ha":769,"x_min":167,"x_max":714,"o":"m 167 0 m 714 75 l 714 0 l 167 0 l 167 1053 l 244 1053 l 244 75 l 714 75 m 514 635 l 603 635 l 603 425 l 514 425 l 514 635 z "},"Ł":{"ha":769,"x_min":21,"x_max":714,"o":"m 714 75 l 714 0 l 167 0 l 167 406 l 21 347 l 21 419 l 167 478 l 167 1053 l 244 1053 l 244 510 l 621 661 l 621 589 l 244 438 l 244 75 l 714 75 z "},"M":{"ha":1258,"x_min":167,"x_max":1092,"o":"m 1092 1053 l 1092 0 l 1014 0 l 1014 922 l 651 425 l 607 425 l 244 922 l 244 0 l 167 0 l 167 1053 l 244 1053 l 629 526 l 1014 1053 l 1092 1053 z "},"N":{"ha":1076,"x_min":167,"x_max":910,"o":"m 910 1053 l 910 0 l 833 0 l 244 910 l 244 0 l 167 0 l 167 1053 l 243 1053 l 832 143 l 832 1053 l 910 1053 z "},"Ń":{"ha":1076,"x_min":167,"x_max":910,"o":"m 167 0 m 910 1053 l 910 0 l 833 0 l 244 910 l 244 0 l 167 0 l 167 1053 l 243 1053 l 832 143 l 832 1053 l 910 1053 m 665 1374 l 760 1374 l 592 1161 l 515 1161 l 665 1374 z "},"Ň":{"ha":1076,"x_min":-58,"x_max":910,"o":"m 0 0 m 910 1053 l 910 0 l 833 0 l 244 910 l 244 0 l 167 0 l 167 1053 l 243 1053 l 832 143 l 832 1053 l 910 1053 m 11 1358 l 86 1358 l 8 1078 l -58 1078 l 11 1358 z "},"Ņ":{"ha":1076,"x_min":167,"x_max":910,"o":"m 167 0 m 910 1053 l 910 0 l 833 0 l 244 910 l 244 0 l 167 0 l 167 1053 l 243 1053 l 832 143 l 832 1053 l 910 1053 m 458 -111 l 542 -111 l 489 -342 l 414 -342 l 458 -111 z "},"Ŋ":{"ha":1076,"x_min":167,"x_max":910,"o":"m 910 1053 l 910 -7 q 895 -144 910 -97 q 844 -211 881 -192 q 738 -231 807 -231 q 681 -225 708 -231 l 681 -150 q 744 -156 708 -156 q 799 -143 781 -156 q 824 -98 817 -131 q 832 1 832 -65 l 832 3 l 244 910 l 244 0 l 167 0 l 167 1053 l 243 1053 l 832 143 l 832 1053 l 910 1053 z "},"Ñ":{"ha":1076,"x_min":167,"x_max":910,"o":"m 167 0 m 910 1053 l 910 0 l 833 0 l 244 910 l 244 0 l 167 0 l 167 1053 l 243 1053 l 832 143 l 832 1053 l 910 1053 m 364 1197 q 395 1297 367 1265 q 464 1329 424 1329 q 546 1306 503 1329 l 597 1278 q 640 1264 621 1264 q 685 1329 685 1264 l 754 1329 q 723 1229 751 1261 q 654 1197 694 1197 q 574 1221 617 1197 l 522 1249 q 478 1263 497 1263 q 433 1197 433 1263 l 364 1197 z "},"O":{"ha":1151,"x_min":93,"x_max":1058,"o":"m 576 -24 q 310 48 419 -24 q 147 244 201 119 q 93 525 93 368 q 148 803 93 679 q 311 999 203 926 q 576 1072 419 1072 q 840 999 731 1072 q 1003 802 949 926 q 1058 525 1058 678 q 1003 244 1058 368 q 840 48 949 119 q 576 -24 732 -24 m 576 49 q 792 112 701 49 q 931 285 883 175 q 978 529 978 394 q 930 767 978 660 q 791 937 882 874 q 576 1000 700 1000 q 358 937 449 1000 q 220 765 267 874 q 174 525 174 657 q 220 282 174 390 q 357 111 267 174 q 576 49 447 49 z "},"Ó":{"ha":1151,"x_min":93,"x_max":1058,"o":"m 93 0 m 576 -24 q 310 48 419 -24 q 147 244 201 119 q 93 525 93 368 q 148 803 93 679 q 311 999 203 926 q 576 1072 419 1072 q 840 999 731 1072 q 1003 802 949 926 q 1058 525 1058 678 q 1003 244 1058 368 q 840 48 949 119 q 576 -24 732 -24 m 576 49 q 792 112 701 49 q 931 285 883 175 q 978 529 978 394 q 930 767 978 660 q 791 937 882 874 q 576 1000 700 1000 q 358 937 449 1000 q 220 765 267 874 q 174 525 174 657 q 220 282 174 390 q 357 111 267 174 q 576 49 447 49 m 682 1374 l 776 1374 l 608 1161 l 532 1161 l 682 1374 z "},"Ô":{"ha":1151,"x_min":93,"x_max":1058,"o":"m 93 0 m 576 -24 q 310 48 419 -24 q 147 244 201 119 q 93 525 93 368 q 148 803 93 679 q 311 999 203 926 q 576 1072 419 1072 q 840 999 731 1072 q 1003 802 949 926 q 1058 525 1058 678 q 1003 244 1058 368 q 840 48 949 119 q 576 -24 732 -24 m 576 49 q 792 112 701 49 q 931 285 883 175 q 978 529 978 394 q 930 767 978 660 q 791 937 882 874 q 576 1000 700 1000 q 358 937 449 1000 q 220 765 267 874 q 174 525 174 657 q 220 282 174 390 q 357 111 267 174 q 576 49 447 49 m 688 1161 l 576 1319 l 464 1161 l 369 1161 l 538 1374 l 614 1374 l 782 1161 l 688 1161 z "},"Ö":{"ha":1151,"x_min":93,"x_max":1058,"o":"m 93 0 m 576 -24 q 310 48 419 -24 q 147 244 201 119 q 93 525 93 368 q 148 803 93 679 q 311 999 203 926 q 576 1072 419 1072 q 840 999 731 1072 q 1003 802 949 926 q 1058 525 1058 678 q 1003 244 1058 368 q 840 48 949 119 q 576 -24 732 -24 m 576 49 q 792 112 701 49 q 931 285 883 175 q 978 529 978 394 q 930 767 978 660 q 791 937 882 874 q 576 1000 700 1000 q 358 937 449 1000 q 220 765 267 874 q 174 525 174 657 q 220 282 174 390 q 357 111 267 174 q 576 49 447 49 m 674 1344 l 749 1344 l 749 1190 l 674 1190 l 674 1344 m 403 1344 l 478 1344 l 478 1190 l 403 1190 l 403 1344 z "},"Ò":{"ha":1151,"x_min":93,"x_max":1058,"o":"m 93 0 m 576 -24 q 310 48 419 -24 q 147 244 201 119 q 93 525 93 368 q 148 803 93 679 q 311 999 203 926 q 576 1072 419 1072 q 840 999 731 1072 q 1003 802 949 926 q 1058 525 1058 678 q 1003 244 1058 368 q 840 48 949 119 q 576 -24 732 -24 m 576 49 q 792 112 701 49 q 931 285 883 175 q 978 529 978 394 q 930 767 978 660 q 791 937 882 874 q 576 1000 700 1000 q 358 937 449 1000 q 220 765 267 874 q 174 525 174 657 q 220 282 174 390 q 357 111 267 174 q 576 49 447 49 m 392 1374 l 486 1374 l 636 1161 l 560 1161 l 392 1374 z "},"Ő":{"ha":1151,"x_min":93,"x_max":1058,"o":"m 93 0 m 576 -24 q 310 48 419 -24 q 147 244 201 119 q 93 525 93 368 q 148 803 93 679 q 311 999 203 926 q 576 1072 419 1072 q 840 999 731 1072 q 1003 802 949 926 q 1058 525 1058 678 q 1003 244 1058 368 q 840 48 949 119 q 576 -24 732 -24 m 576 49 q 792 112 701 49 q 931 285 883 175 q 978 529 978 394 q 930 767 978 660 q 791 937 882 874 q 576 1000 700 1000 q 358 937 449 1000 q 220 765 267 874 q 174 525 174 657 q 220 282 174 390 q 357 111 267 174 q 576 49 447 49 m 799 1374 l 893 1374 l 725 1161 l 649 1161 l 799 1374 m 563 1374 l 657 1374 l 489 1161 l 413 1161 l 563 1374 z "},"Ō":{"ha":1151,"x_min":93,"x_max":1058,"o":"m 93 0 m 576 -24 q 310 48 419 -24 q 147 244 201 119 q 93 525 93 368 q 148 803 93 679 q 311 999 203 926 q 576 1072 419 1072 q 840 999 731 1072 q 1003 802 949 926 q 1058 525 1058 678 q 1003 244 1058 368 q 840 48 949 119 q 576 -24 732 -24 m 576 49 q 792 112 701 49 q 931 285 883 175 q 978 529 978 394 q 930 767 978 660 q 791 937 882 874 q 576 1000 700 1000 q 358 937 449 1000 q 220 765 267 874 q 174 525 174 657 q 220 282 174 390 q 357 111 267 174 q 576 49 447 49 m 361 1301 l 790 1301 l 790 1235 l 361 1235 l 361 1301 z "},"Ø":{"ha":1151,"x_min":39,"x_max":1111,"o":"m 969 865 q 1036 709 1014 796 q 1058 525 1058 622 q 1003 244 1058 368 q 840 48 949 119 q 576 -24 732 -24 q 371 16 461 -24 q 219 129 281 56 l 88 0 l 39 47 l 179 185 q 93 525 93 322 q 148 803 93 679 q 311 999 203 926 q 576 1072 419 1072 q 778 1033 689 1072 q 929 921 867 993 l 1064 1053 l 1111 1004 l 969 865 m 174 525 q 239 243 174 363 l 871 864 q 743 964 818 928 q 576 1000 668 1000 q 358 937 449 1000 q 220 765 267 874 q 174 525 174 657 m 978 525 q 910 807 978 689 l 276 186 q 405 85 329 121 q 576 49 481 49 q 792 111 701 49 q 929 282 882 174 q 978 525 976 390 z "},"Õ":{"ha":1151,"x_min":93,"x_max":1058,"o":"m 93 0 m 576 -24 q 310 48 419 -24 q 147 244 201 119 q 93 525 93 368 q 148 803 93 679 q 311 999 203 926 q 576 1072 419 1072 q 840 999 731 1072 q 1003 802 949 926 q 1058 525 1058 678 q 1003 244 1058 368 q 840 48 949 119 q 576 -24 732 -24 m 576 49 q 792 112 701 49 q 931 285 883 175 q 978 529 978 394 q 930 767 978 660 q 791 937 882 874 q 576 1000 700 1000 q 358 937 449 1000 q 220 765 267 874 q 174 525 174 657 q 220 282 174 390 q 357 111 267 174 q 576 49 447 49 m 381 1197 q 412 1297 383 1265 q 481 1329 440 1329 q 563 1306 519 1329 l 614 1278 q 657 1264 638 1264 q 701 1329 701 1264 l 771 1329 q 740 1229 768 1261 q 671 1197 711 1197 q 590 1221 633 1197 l 539 1249 q 494 1263 514 1263 q 450 1197 450 1263 l 381 1197 z "},"Œ":{"ha":1558,"x_min":100,"x_max":1475,"o":"m 1475 75 l 1475 0 l 596 0 q 225 134 350 0 q 100 528 100 268 q 224 921 100 789 q 596 1053 349 1053 l 1468 1053 l 1468 978 l 936 978 l 936 567 l 1399 567 l 1399 492 l 936 492 l 936 75 l 1475 75 m 858 72 l 858 981 l 596 981 q 285 871 390 981 q 181 524 181 761 q 286 182 181 292 q 596 72 392 72 l 858 72 z "},"P":{"ha":892,"x_min":167,"x_max":822,"o":"m 507 1053 q 822 757 822 1053 q 744 539 822 614 q 507 464 665 464 l 244 464 l 244 0 l 167 0 l 167 1053 l 507 1053 m 742 761 q 683 928 742 875 q 507 981 624 981 l 244 981 l 244 536 l 507 536 q 742 761 742 536 z "},"Þ":{"ha":892,"x_min":167,"x_max":822,"o":"m 507 828 q 822 532 822 828 q 744 314 822 389 q 507 239 665 239 l 244 239 l 244 0 l 167 0 l 167 1053 l 244 1053 l 244 828 l 507 828 m 742 536 q 683 703 742 650 q 507 756 624 756 l 244 756 l 244 311 l 507 311 q 742 536 742 311 z "},"Q":{"ha":1151,"x_min":93,"x_max":1058,"o":"m 1058 525 q 1015 274 1058 388 q 890 86 972 160 l 1044 -89 l 942 -89 l 829 42 q 576 -24 722 -24 q 310 48 419 -24 q 147 244 201 119 q 93 525 93 368 q 148 803 93 679 q 311 999 203 926 q 576 1072 419 1072 q 840 999 731 1072 q 1003 802 949 926 q 1058 525 1058 678 m 174 525 q 220 282 174 390 q 357 111 267 174 q 576 49 447 49 q 778 103 692 49 l 582 329 l 679 329 l 836 147 q 941 312 904 213 q 978 529 978 411 q 930 767 978 660 q 791 937 882 874 q 576 1000 700 1000 q 358 937 449 1000 q 220 765 267 874 q 174 525 174 657 z "},"R":{"ha":957,"x_min":167,"x_max":878,"o":"m 490 478 l 244 478 l 244 0 l 167 0 l 167 1053 l 507 1053 q 822 764 822 1053 q 579 482 822 515 l 878 0 l 786 0 l 490 478 m 244 550 l 507 550 q 742 768 742 550 q 683 929 742 878 q 507 981 624 981 l 244 981 l 244 550 z "},"Ŕ":{"ha":957,"x_min":167,"x_max":878,"o":"m 167 0 m 490 478 l 244 478 l 244 0 l 167 0 l 167 1053 l 507 1053 q 822 764 822 1053 q 579 482 822 515 l 878 0 l 786 0 l 490 478 m 244 550 l 507 550 q 742 768 742 550 q 683 929 742 878 q 507 981 624 981 l 244 981 l 244 550 m 543 1374 l 638 1374 l 469 1161 l 393 1161 l 543 1374 z "},"Ř":{"ha":957,"x_min":167,"x_max":878,"o":"m 167 0 m 490 478 l 244 478 l 244 0 l 167 0 l 167 1053 l 507 1053 q 822 764 822 1053 q 579 482 822 515 l 878 0 l 786 0 l 490 478 m 244 550 l 507 550 q 742 768 742 550 q 683 929 742 878 q 507 981 624 981 l 244 981 l 244 550 m 643 1374 l 475 1161 l 399 1161 l 231 1374 l 325 1374 l 438 1215 l 549 1374 l 643 1374 z "},"Ŗ":{"ha":957,"x_min":167,"x_max":878,"o":"m 167 0 m 490 478 l 244 478 l 244 0 l 167 0 l 167 1053 l 507 1053 q 822 764 822 1053 q 579 482 822 515 l 878 0 l 786 0 l 490 478 m 244 550 l 507 550 q 742 768 742 550 q 683 929 742 878 q 507 981 624 981 l 244 981 l 244 550 m 414 -111 l 497 -111 l 444 -342 l 369 -342 l 414 -111 z "},"S":{"ha":874,"x_min":92,"x_max":774,"o":"m 438 -24 q 92 50 244 -24 l 92 128 q 438 49 243 49 q 631 107 569 49 q 693 261 692 165 q 635 397 693 350 q 478 471 578 443 l 383 497 q 250 550 306 519 q 159 637 194 581 q 124 782 124 693 q 205 998 124 924 q 433 1072 286 1072 q 585 1056 519 1072 q 722 1007 651 1040 l 722 929 q 433 1000 588 1000 q 260 941 317 1000 q 204 781 204 882 q 258 645 206 690 q 413 572 311 600 l 508 546 q 647 492 590 524 q 739 405 704 461 q 774 260 774 349 q 683 52 772 128 q 438 -24 593 -24 z "},"Ś":{"ha":874,"x_min":92,"x_max":774,"o":"m 92 0 m 438 -24 q 92 50 244 -24 l 92 128 q 438 49 243 49 q 631 107 569 49 q 693 261 692 165 q 635 397 693 350 q 478 471 578 443 l 383 497 q 250 550 306 519 q 159 637 194 581 q 124 782 124 693 q 205 998 124 924 q 433 1072 286 1072 q 585 1056 519 1072 q 722 1007 651 1040 l 722 929 q 433 1000 588 1000 q 260 941 317 1000 q 204 781 204 882 q 258 645 206 690 q 413 572 311 600 l 508 546 q 647 492 590 524 q 739 405 704 461 q 774 260 774 349 q 683 52 772 128 q 438 -24 593 -24 m 553 1374 l 647 1374 l 479 1161 l 403 1161 l 553 1374 z "},"Š":{"ha":874,"x_min":92,"x_max":774,"o":"m 92 0 m 438 -24 q 92 50 244 -24 l 92 128 q 438 49 243 49 q 631 107 569 49 q 693 261 692 165 q 635 397 693 350 q 478 471 578 443 l 383 497 q 250 550 306 519 q 159 637 194 581 q 124 782 124 693 q 205 998 124 924 q 433 1072 286 1072 q 585 1056 519 1072 q 722 1007 651 1040 l 722 929 q 433 1000 588 1000 q 260 941 317 1000 q 204 781 204 882 q 258 645 206 690 q 413 572 311 600 l 508 546 q 647 492 590 524 q 739 405 704 461 q 774 260 774 349 q 683 52 772 128 q 438 -24 593 -24 m 653 1374 l 485 1161 l 408 1161 l 240 1374 l 335 1374 l 447 1215 l 558 1374 l 653 1374 z "},"Ş":{"ha":874,"x_min":92,"x_max":774,"o":"m 774 260 q 692 61 772 136 q 471 -22 613 -14 l 446 -101 q 467 -100 453 -100 q 578 -135 539 -100 q 618 -229 618 -171 q 574 -328 618 -290 q 449 -365 529 -365 q 321 -337 382 -365 l 321 -271 q 449 -300 385 -300 q 523 -279 499 -300 q 547 -229 547 -258 q 467 -165 547 -165 q 349 -189 419 -165 l 400 -24 q 92 50 231 -15 l 92 128 q 438 49 243 49 q 631 107 569 49 q 693 261 692 165 q 635 397 693 350 q 478 471 578 443 l 383 497 q 250 550 306 519 q 159 637 194 581 q 124 782 124 693 q 205 998 124 924 q 433 1072 286 1072 q 585 1056 519 1072 q 722 1007 651 1040 l 722 929 q 433 1000 588 1000 q 260 941 317 1000 q 204 781 204 882 q 258 645 206 690 q 413 572 311 600 l 508 546 q 647 492 590 524 q 739 405 704 461 q 774 260 774 349 z "},"Ș":{"ha":874,"x_min":92,"x_max":774,"o":"m 92 0 m 438 -24 q 92 50 244 -24 l 92 128 q 438 49 243 49 q 631 107 569 49 q 693 261 692 165 q 635 397 693 350 q 478 471 578 443 l 383 497 q 250 550 306 519 q 159 637 194 581 q 124 782 124 693 q 205 998 124 924 q 433 1072 286 1072 q 585 1056 519 1072 q 722 1007 651 1040 l 722 929 q 433 1000 588 1000 q 260 941 317 1000 q 204 781 204 882 q 258 645 206 690 q 413 572 311 600 l 508 546 q 647 492 590 524 q 739 405 704 461 q 774 260 774 349 q 683 52 772 128 q 438 -24 593 -24 m 388 -111 l 471 -111 l 418 -342 l 343 -342 l 388 -111 z "},"T":{"ha":853,"x_min":56,"x_max":797,"o":"m 797 978 l 465 978 l 465 0 l 388 0 l 388 978 l 56 978 l 56 1053 l 797 1053 l 797 978 z "},"Ŧ":{"ha":853,"x_min":56,"x_max":797,"o":"m 465 978 l 465 758 l 714 758 l 714 686 l 465 686 l 465 0 l 388 0 l 388 686 l 139 686 l 139 758 l 388 758 l 388 978 l 56 978 l 56 1053 l 797 1053 l 797 978 l 465 978 z "},"Ť":{"ha":853,"x_min":56,"x_max":797,"o":"m 56 0 m 797 978 l 465 978 l 465 0 l 388 0 l 388 978 l 56 978 l 56 1053 l 797 1053 l 797 978 m 632 1374 l 464 1161 l 388 1161 l 219 1374 l 314 1374 l 426 1215 l 538 1374 l 632 1374 z "},"Ţ":{"ha":853,"x_min":56,"x_max":797,"o":"m 463 0 l 431 -101 q 451 -100 438 -100 q 563 -135 524 -100 q 603 -229 603 -171 q 558 -328 603 -290 q 433 -365 514 -365 q 306 -337 367 -365 l 306 -271 q 433 -300 369 -300 q 508 -279 483 -300 q 532 -229 532 -258 q 451 -165 532 -165 q 333 -189 404 -165 l 392 0 l 388 0 l 388 978 l 56 978 l 56 1053 l 797 1053 l 797 978 l 465 978 l 465 0 l 463 0 z "},"Ț":{"ha":853,"x_min":56,"x_max":797,"o":"m 56 0 m 797 978 l 465 978 l 465 0 l 388 0 l 388 978 l 56 978 l 56 1053 l 797 1053 l 797 978 m 372 -111 l 456 -111 l 403 -342 l 328 -342 l 372 -111 z "},"U":{"ha":1064,"x_min":160,"x_max":904,"o":"m 532 -24 q 253 72 346 -24 q 160 344 160 168 l 160 1053 l 238 1053 l 238 344 q 312 124 238 199 q 532 49 386 49 q 752 124 678 49 q 826 344 826 199 l 826 1053 l 904 1053 l 904 344 q 812 72 904 168 q 532 -24 719 -24 z "},"Ú":{"ha":1064,"x_min":160,"x_max":904,"o":"m 160 0 m 532 -24 q 253 72 346 -24 q 160 344 160 168 l 160 1053 l 238 1053 l 238 344 q 312 124 238 199 q 532 49 386 49 q 752 124 678 49 q 826 344 826 199 l 826 1053 l 904 1053 l 904 344 q 812 72 904 168 q 532 -24 719 -24 m 638 1374 l 732 1374 l 564 1161 l 488 1161 l 638 1374 z "},"Û":{"ha":1064,"x_min":160,"x_max":904,"o":"m 160 0 m 532 -24 q 253 72 346 -24 q 160 344 160 168 l 160 1053 l 238 1053 l 238 344 q 312 124 238 199 q 532 49 386 49 q 752 124 678 49 q 826 344 826 199 l 826 1053 l 904 1053 l 904 344 q 812 72 904 168 q 532 -24 719 -24 m 643 1161 l 532 1319 l 419 1161 l 325 1161 l 493 1374 l 569 1374 l 738 1161 l 643 1161 z "},"Ü":{"ha":1064,"x_min":160,"x_max":904,"o":"m 160 0 m 629 1344 l 704 1344 l 704 1190 l 629 1190 l 629 1344 m 358 1344 l 433 1344 l 433 1190 l 358 1190 l 358 1344 m 532 -24 q 253 72 346 -24 q 160 344 160 168 l 160 1053 l 238 1053 l 238 344 q 312 124 238 199 q 532 49 386 49 q 752 124 678 49 q 826 344 826 199 l 826 1053 l 904 1053 l 904 344 q 812 72 904 168 q 532 -24 719 -24 z "},"Ù":{"ha":1064,"x_min":160,"x_max":904,"o":"m 160 0 m 532 -24 q 253 72 346 -24 q 160 344 160 168 l 160 1053 l 238 1053 l 238 344 q 312 124 238 199 q 532 49 386 49 q 752 124 678 49 q 826 344 826 199 l 826 1053 l 904 1053 l 904 344 q 812 72 904 168 q 532 -24 719 -24 m 347 1374 l 442 1374 l 592 1161 l 515 1161 l 347 1374 z "},"Ű":{"ha":1064,"x_min":160,"x_max":904,"o":"m 160 0 m 532 -24 q 253 72 346 -24 q 160 344 160 168 l 160 1053 l 238 1053 l 238 344 q 312 124 238 199 q 532 49 386 49 q 752 124 678 49 q 826 344 826 199 l 826 1053 l 904 1053 l 904 344 q 812 72 904 168 q 532 -24 719 -24 m 754 1374 l 849 1374 l 681 1161 l 604 1161 l 754 1374 m 518 1374 l 613 1374 l 444 1161 l 368 1161 l 518 1374 z "},"Ū":{"ha":1064,"x_min":160,"x_max":904,"o":"m 160 0 m 532 -24 q 253 72 346 -24 q 160 344 160 168 l 160 1053 l 238 1053 l 238 344 q 312 124 238 199 q 532 49 386 49 q 752 124 678 49 q 826 344 826 199 l 826 1053 l 904 1053 l 904 344 q 812 72 904 168 q 532 -24 719 -24 m 317 1301 l 746 1301 l 746 1235 l 317 1235 l 317 1301 z "},"Ų":{"ha":1064,"x_min":160,"x_max":904,"o":"m 904 1053 l 904 344 q 835 99 904 192 q 624 -17 765 6 q 533 -105 564 -65 q 501 -187 501 -144 q 519 -228 501 -212 q 572 -244 536 -244 q 644 -228 613 -244 l 644 -294 q 572 -310 610 -310 q 467 -278 503 -310 q 431 -194 431 -247 q 456 -108 431 -149 q 532 -24 481 -68 q 253 72 346 -24 q 160 344 160 168 l 160 1053 l 238 1053 l 238 344 q 312 124 238 199 q 532 49 386 49 q 752 124 678 49 q 826 344 826 199 l 826 1053 l 904 1053 z "},"Ů":{"ha":1064,"x_min":160,"x_max":904,"o":"m 160 0 m 532 -24 q 253 72 346 -24 q 160 344 160 168 l 160 1053 l 238 1053 l 238 344 q 312 124 238 199 q 532 49 386 49 q 752 124 678 49 q 826 344 826 199 l 826 1053 l 904 1053 l 904 344 q 812 72 904 168 q 532 -24 719 -24 m 532 1139 q 440 1176 478 1139 q 403 1267 403 1213 q 440 1357 403 1321 q 532 1393 476 1393 q 623 1357 586 1393 q 660 1267 660 1321 q 623 1176 660 1213 q 532 1139 586 1139 m 532 1192 q 583 1213 563 1192 q 603 1267 603 1233 q 583 1322 603 1301 q 532 1342 564 1342 q 481 1321 501 1342 q 460 1267 460 1300 q 481 1213 460 1233 q 532 1192 501 1192 z "},"V":{"ha":985,"x_min":49,"x_max":936,"o":"m 936 1053 l 526 -12 l 460 -12 l 49 1053 l 132 1053 l 493 117 l 853 1053 l 936 1053 z "},"W":{"ha":1456,"x_min":49,"x_max":1407,"o":"m 1407 1053 l 1081 -12 l 1014 -12 l 728 918 l 443 -12 l 376 -12 l 49 1053 l 132 1053 l 410 125 l 686 1053 l 769 1053 l 1047 125 l 1324 1053 l 1407 1053 z "},"Ẃ":{"ha":1456,"x_min":49,"x_max":1407,"o":"m 49 0 m 1407 1053 l 1081 -12 l 1014 -12 l 728 918 l 443 -12 l 376 -12 l 49 1053 l 132 1053 l 410 125 l 686 1053 l 769 1053 l 1047 125 l 1324 1053 l 1407 1053 m 833 1374 l 928 1374 l 760 1161 l 683 1161 l 833 1374 z "},"Ŵ":{"ha":1456,"x_min":49,"x_max":1407,"o":"m 49 0 m 1407 1053 l 1081 -12 l 1014 -12 l 728 918 l 443 -12 l 376 -12 l 49 1053 l 132 1053 l 410 125 l 686 1053 l 769 1053 l 1047 125 l 1324 1053 l 1407 1053 m 839 1161 l 728 1319 l 615 1161 l 521 1161 l 689 1374 l 765 1374 l 933 1161 l 839 1161 z "},"Ẅ":{"ha":1456,"x_min":49,"x_max":1407,"o":"m 49 0 m 1407 1053 l 1081 -12 l 1014 -12 l 728 918 l 443 -12 l 376 -12 l 49 1053 l 132 1053 l 410 125 l 686 1053 l 769 1053 l 1047 125 l 1324 1053 l 1407 1053 m 825 1344 l 900 1344 l 900 1190 l 825 1190 l 825 1344 m 554 1344 l 629 1344 l 629 1190 l 554 1190 l 554 1344 z "},"Ẁ":{"ha":1456,"x_min":49,"x_max":1407,"o":"m 49 0 m 1407 1053 l 1081 -12 l 1014 -12 l 728 918 l 443 -12 l 376 -12 l 49 1053 l 132 1053 l 410 125 l 686 1053 l 769 1053 l 1047 125 l 1324 1053 l 1407 1053 m 543 1374 l 638 1374 l 788 1161 l 711 1161 l 543 1374 z "},"X":{"ha":981,"x_min":68,"x_max":918,"o":"m 824 0 l 493 489 l 163 0 l 68 0 l 442 542 l 93 1053 l 186 1053 l 494 597 l 801 1053 l 894 1053 l 546 542 l 918 0 l 824 0 z "},"Y":{"ha":976,"x_min":49,"x_max":928,"o":"m 526 406 l 526 0 l 449 0 l 449 406 l 49 1053 l 132 1053 l 488 474 l 844 1053 l 928 1053 l 526 406 z "},"Ý":{"ha":976,"x_min":49,"x_max":928,"o":"m 49 0 m 526 406 l 526 0 l 449 0 l 449 406 l 49 1053 l 132 1053 l 488 474 l 844 1053 l 928 1053 l 526 406 m 593 1374 l 688 1374 l 519 1161 l 443 1161 l 593 1374 z "},"Ŷ":{"ha":976,"x_min":49,"x_max":928,"o":"m 49 0 m 526 406 l 526 0 l 449 0 l 449 406 l 49 1053 l 132 1053 l 488 474 l 844 1053 l 928 1053 l 526 406 m 599 1161 l 488 1319 l 375 1161 l 281 1161 l 449 1374 l 525 1374 l 693 1161 l 599 1161 z "},"Ÿ":{"ha":976,"x_min":49,"x_max":928,"o":"m 49 0 m 526 406 l 526 0 l 449 0 l 449 406 l 49 1053 l 132 1053 l 488 474 l 844 1053 l 928 1053 l 526 406 m 585 1344 l 660 1344 l 660 1190 l 585 1190 l 585 1344 m 314 1344 l 389 1344 l 389 1190 l 314 1190 l 314 1344 z "},"Ỳ":{"ha":976,"x_min":49,"x_max":928,"o":"m 49 0 m 526 406 l 526 0 l 449 0 l 449 406 l 49 1053 l 132 1053 l 488 474 l 844 1053 l 928 1053 l 526 406 m 303 1374 l 397 1374 l 547 1161 l 471 1161 l 303 1374 z "},"Z":{"ha":983,"x_min":111,"x_max":872,"o":"m 872 75 l 872 0 l 111 0 l 111 72 l 735 978 l 129 978 l 129 1053 l 826 1053 l 826 981 l 204 75 l 872 75 z "},"Ź":{"ha":983,"x_min":111,"x_max":872,"o":"m 111 0 m 872 75 l 872 0 l 111 0 l 111 72 l 735 978 l 129 978 l 129 1053 l 826 1053 l 826 981 l 204 75 l 872 75 m 588 1374 l 682 1374 l 514 1161 l 438 1161 l 588 1374 z "},"Ž":{"ha":983,"x_min":111,"x_max":872,"o":"m 111 0 m 872 75 l 872 0 l 111 0 l 111 72 l 735 978 l 129 978 l 129 1053 l 826 1053 l 826 981 l 204 75 l 872 75 m 688 1374 l 519 1161 l 443 1161 l 275 1374 l 369 1374 l 482 1215 l 593 1374 l 688 1374 z "},"Ż":{"ha":983,"x_min":111,"x_max":872,"o":"m 111 0 m 872 75 l 872 0 l 111 0 l 111 72 l 735 978 l 129 978 l 129 1053 l 826 1053 l 826 981 l 204 75 l 872 75 m 444 1344 l 519 1344 l 519 1190 l 444 1190 l 444 1344 z "},"a":{"ha":685,"x_min":49,"x_max":594,"o":"m 340 758 q 503 717 447 758 q 576 608 558 676 q 594 435 594 539 l 594 0 l 519 0 l 519 82 q 409 6 464 31 q 292 -18 354 -18 q 172 13 228 -18 q 82 103 115 44 q 49 240 49 161 q 127 433 49 364 q 333 503 206 503 q 428 491 378 503 q 519 457 478 479 q 503 587 518 539 q 447 662 489 635 q 319 689 404 689 l 244 689 l 244 758 l 340 758 m 292 57 q 406 82 347 57 q 519 160 464 107 l 519 385 q 333 428 439 428 q 187 385 247 428 q 126 240 126 342 q 178 101 126 146 q 292 57 229 57 z "},"á":{"ha":685,"x_min":49,"x_max":594,"o":"m 49 0 m 340 758 q 503 717 447 758 q 576 608 558 676 q 594 435 594 539 l 594 0 l 519 0 l 519 82 q 409 6 464 31 q 292 -18 354 -18 q 172 13 228 -18 q 82 103 115 44 q 49 240 49 161 q 127 433 49 364 q 333 503 206 503 q 428 491 378 503 q 519 457 478 479 q 503 587 518 539 q 447 662 489 635 q 319 689 404 689 l 244 689 l 244 758 l 340 758 m 292 57 q 406 82 347 57 q 519 160 464 107 l 519 385 q 333 428 439 428 q 187 385 247 428 q 126 240 126 342 q 178 101 126 146 q 292 57 229 57 m 472 1124 l 567 1124 l 399 911 l 322 911 l 472 1124 z "},"ă":{"ha":685,"x_min":49,"x_max":594,"o":"m 49 0 m 340 758 q 503 717 447 758 q 576 608 558 676 q 594 435 594 539 l 594 0 l 519 0 l 519 82 q 409 6 464 31 q 292 -18 354 -18 q 172 13 228 -18 q 82 103 115 44 q 49 240 49 161 q 127 433 49 364 q 333 503 206 503 q 428 491 378 503 q 519 457 478 479 q 503 587 518 539 q 447 662 489 635 q 319 689 404 689 l 244 689 l 244 758 l 340 758 m 292 57 q 406 82 347 57 q 519 160 464 107 l 519 385 q 333 428 439 428 q 187 385 247 428 q 126 240 126 342 q 178 101 126 146 q 292 57 229 57 m 368 914 q 216 965 272 914 q 160 1113 160 1017 l 160 1121 l 229 1121 l 229 1113 q 263 1013 229 1044 q 368 981 296 981 q 474 1013 440 981 q 507 1113 507 1044 l 507 1121 l 576 1121 l 576 1113 q 523 965 581 1017 q 368 914 465 914 z "},"â":{"ha":685,"x_min":49,"x_max":594,"o":"m 49 0 m 340 758 q 503 717 447 758 q 576 608 558 676 q 594 435 594 539 l 594 0 l 519 0 l 519 82 q 409 6 464 31 q 292 -18 354 -18 q 172 13 228 -18 q 82 103 115 44 q 49 240 49 161 q 127 433 49 364 q 333 503 206 503 q 428 491 378 503 q 519 457 478 479 q 503 587 518 539 q 447 662 489 635 q 319 689 404 689 l 244 689 l 244 758 l 340 758 m 292 57 q 406 82 347 57 q 519 160 464 107 l 519 385 q 333 428 439 428 q 187 385 247 428 q 126 240 126 342 q 178 101 126 146 q 292 57 229 57 m 478 911 l 367 1069 l 254 911 l 160 911 l 328 1124 l 404 1124 l 572 911 l 478 911 z "},"ä":{"ha":685,"x_min":49,"x_max":594,"o":"m 49 0 m 340 758 q 503 717 447 758 q 576 608 558 676 q 594 435 594 539 l 594 0 l 519 0 l 519 82 q 409 6 464 31 q 292 -18 354 -18 q 172 13 228 -18 q 82 103 115 44 q 49 240 49 161 q 127 433 49 364 q 333 503 206 503 q 428 491 378 503 q 519 457 478 479 q 503 587 518 539 q 447 662 489 635 q 319 689 404 689 l 244 689 l 244 758 l 340 758 m 292 57 q 406 82 347 57 q 519 160 464 107 l 519 385 q 333 428 439 428 q 187 385 247 428 q 126 240 126 342 q 178 101 126 146 q 292 57 229 57 m 464 1094 l 539 1094 l 539 940 l 464 940 l 464 1094 m 193 1094 l 268 1094 l 268 940 l 193 940 l 193 1094 z "},"à":{"ha":685,"x_min":49,"x_max":594,"o":"m 49 0 m 340 758 q 503 717 447 758 q 576 608 558 676 q 594 435 594 539 l 594 0 l 519 0 l 519 82 q 409 6 464 31 q 292 -18 354 -18 q 172 13 228 -18 q 82 103 115 44 q 49 240 49 161 q 127 433 49 364 q 333 503 206 503 q 428 491 378 503 q 519 457 478 479 q 503 587 518 539 q 447 662 489 635 q 319 689 404 689 l 244 689 l 244 758 l 340 758 m 292 57 q 406 82 347 57 q 519 160 464 107 l 519 385 q 333 428 439 428 q 187 385 247 428 q 126 240 126 342 q 178 101 126 146 q 292 57 229 57 m 168 1124 l 263 1124 l 413 911 l 336 911 l 168 1124 z "},"ā":{"ha":685,"x_min":49,"x_max":594,"o":"m 49 0 m 340 758 q 503 717 447 758 q 576 608 558 676 q 594 435 594 539 l 594 0 l 519 0 l 519 82 q 409 6 464 31 q 292 -18 354 -18 q 172 13 228 -18 q 82 103 115 44 q 49 240 49 161 q 127 433 49 364 q 333 503 206 503 q 428 491 378 503 q 519 457 478 479 q 503 587 518 539 q 447 662 489 635 q 319 689 404 689 l 244 689 l 244 758 l 340 758 m 292 57 q 406 82 347 57 q 519 160 464 107 l 519 385 q 333 428 439 428 q 187 385 247 428 q 126 240 126 342 q 178 101 126 146 q 292 57 229 57 m 151 1051 l 581 1051 l 581 985 l 151 985 l 151 1051 z "},"ą":{"ha":685,"x_min":49,"x_max":594,"o":"m 340 758 q 503 717 447 758 q 576 608 558 676 q 594 435 594 539 l 594 0 q 490 -98 525 -56 q 454 -187 454 -140 q 471 -228 454 -212 q 522 -244 488 -244 q 594 -228 563 -244 l 594 -294 q 522 -310 560 -310 q 419 -278 454 -310 q 383 -194 383 -247 q 417 -97 383 -143 q 519 0 451 -51 l 519 82 q 409 6 464 31 q 292 -18 354 -18 q 172 13 228 -18 q 82 103 115 44 q 49 240 49 161 q 127 433 49 364 q 333 503 206 503 q 428 491 378 503 q 519 457 478 479 q 503 587 518 539 q 447 662 489 635 q 319 689 404 689 l 244 689 l 244 758 l 340 758 m 292 57 q 406 82 347 57 q 519 160 464 107 l 519 385 q 333 428 439 428 q 187 385 247 428 q 126 240 126 342 q 178 101 126 146 q 292 57 229 57 z "},"å":{"ha":685,"x_min":49,"x_max":594,"o":"m 49 0 m 340 758 q 503 717 447 758 q 576 608 558 676 q 594 435 594 539 l 594 0 l 519 0 l 519 82 q 409 6 464 31 q 292 -18 354 -18 q 172 13 228 -18 q 82 103 115 44 q 49 240 49 161 q 127 433 49 364 q 333 503 206 503 q 428 491 378 503 q 519 457 478 479 q 503 587 518 539 q 447 662 489 635 q 319 689 404 689 l 244 689 l 244 758 l 340 758 m 292 57 q 406 82 347 57 q 519 160 464 107 l 519 385 q 333 428 439 428 q 187 385 247 428 q 126 240 126 342 q 178 101 126 146 q 292 57 229 57 m 367 889 q 275 926 313 889 q 238 1017 238 963 q 274 1107 238 1071 q 367 1143 311 1143 q 458 1107 421 1143 q 494 1017 494 1071 q 458 926 494 963 q 367 889 421 889 m 367 942 q 417 963 397 942 q 438 1017 438 983 q 418 1072 438 1051 q 367 1092 399 1092 q 315 1071 336 1092 q 294 1017 294 1050 q 315 963 294 983 q 367 942 336 942 z "},"ã":{"ha":685,"x_min":49,"x_max":594,"o":"m 49 0 m 340 758 q 503 717 447 758 q 576 608 558 676 q 594 435 594 539 l 594 0 l 519 0 l 519 82 q 409 6 464 31 q 292 -18 354 -18 q 172 13 228 -18 q 82 103 115 44 q 49 240 49 161 q 127 433 49 364 q 333 503 206 503 q 428 491 378 503 q 519 457 478 479 q 503 587 518 539 q 447 662 489 635 q 319 689 404 689 l 244 689 l 244 758 l 340 758 m 292 57 q 406 82 347 57 q 519 160 464 107 l 519 385 q 333 428 439 428 q 187 385 247 428 q 126 240 126 342 q 178 101 126 146 q 292 57 229 57 m 171 947 q 202 1047 174 1015 q 271 1079 231 1079 q 353 1056 310 1079 l 404 1028 q 447 1014 428 1014 q 492 1079 492 1014 l 561 1079 q 530 979 558 1011 q 461 947 501 947 q 381 971 424 947 l 329 999 q 285 1013 304 1013 q 240 947 240 1013 l 171 947 z "},"æ":{"ha":1221,"x_min":49,"x_max":1151,"o":"m 597 382 q 665 144 597 235 q 878 51 732 53 q 1104 108 978 51 l 1132 39 q 878 -24 1010 -24 q 706 14 779 -24 q 586 121 632 51 q 440 17 511 51 q 292 -18 369 -18 q 172 13 228 -18 q 82 103 115 44 q 49 240 49 161 q 127 433 49 364 q 333 503 206 503 q 428 491 378 503 q 519 457 478 479 q 503 587 518 539 q 447 662 489 635 q 319 689 404 689 l 244 689 l 244 758 l 340 758 q 495 721 440 758 q 572 614 550 683 q 687 738 614 694 q 850 781 760 781 q 1070 690 990 781 q 1151 431 1150 600 l 1151 401 l 597 401 l 597 382 m 850 706 q 687 648 751 706 q 604 476 622 590 l 1072 476 q 1010 650 1064 594 q 850 706 956 706 m 292 57 q 422 90 356 57 q 551 192 489 124 q 519 381 519 275 l 519 385 q 333 428 439 428 q 187 385 247 428 q 126 240 126 342 q 178 101 126 146 q 292 57 229 57 z "},"b":{"ha":865,"x_min":139,"x_max":772,"o":"m 442 781 q 683 678 593 781 q 772 378 772 575 q 683 79 772 182 q 442 -24 593 -24 q 325 4 383 -24 q 214 79 267 32 l 214 0 l 139 0 l 139 1175 l 214 1175 l 214 678 q 325 753 267 725 q 442 781 383 781 m 442 51 q 631 135 567 51 q 694 378 694 218 q 631 622 694 539 q 442 706 567 706 q 214 603 324 706 l 214 154 q 442 51 324 51 z "},"c":{"ha":758,"x_min":93,"x_max":706,"o":"m 451 -24 q 186 88 279 -22 q 93 381 93 197 q 186 671 93 563 q 451 781 279 779 q 552 772 510 781 q 644 743 594 763 l 644 663 q 550 696 594 686 q 451 706 506 706 q 238 615 306 704 q 171 382 171 526 q 238 143 171 233 q 451 51 306 53 q 678 108 551 51 l 706 39 q 451 -24 581 -24 z "},"ć":{"ha":758,"x_min":93,"x_max":706,"o":"m 93 0 m 451 -24 q 186 88 279 -22 q 93 381 93 197 q 186 671 93 563 q 451 781 279 779 q 552 772 510 781 q 644 743 594 763 l 644 663 q 550 696 594 686 q 451 706 506 706 q 238 615 306 704 q 171 382 171 526 q 238 143 171 233 q 451 51 306 53 q 678 108 551 51 l 706 39 q 451 -24 581 -24 m 529 1124 l 624 1124 l 456 911 l 379 911 l 529 1124 z "},"č":{"ha":758,"x_min":93,"x_max":706,"o":"m 93 0 m 451 -24 q 186 88 279 -22 q 93 381 93 197 q 186 671 93 563 q 451 781 279 779 q 552 772 510 781 q 644 743 594 763 l 644 663 q 550 696 594 686 q 451 706 506 706 q 238 615 306 704 q 171 382 171 526 q 238 143 171 233 q 451 51 306 53 q 678 108 551 51 l 706 39 q 451 -24 581 -24 m 629 1124 l 461 911 l 385 911 l 217 1124 l 311 1124 l 424 965 l 535 1124 l 629 1124 z "},"ç":{"ha":758,"x_min":93,"x_max":706,"o":"m 453 -100 q 565 -135 525 -100 q 604 -229 604 -171 q 560 -328 604 -290 q 435 -365 515 -365 q 307 -337 368 -365 l 307 -271 q 435 -300 371 -300 q 509 -279 485 -300 q 533 -229 533 -258 q 453 -165 533 -165 q 335 -189 406 -165 l 388 -19 q 169 108 246 1 q 93 381 93 215 q 186 671 93 563 q 451 781 279 779 q 552 772 510 781 q 644 743 594 763 l 644 663 q 550 696 594 686 q 451 706 506 706 q 238 615 306 704 q 171 382 171 526 q 238 143 171 233 q 451 51 306 53 q 678 108 551 51 l 706 39 q 456 -24 582 -22 l 432 -101 q 453 -100 439 -100 z "},"ċ":{"ha":758,"x_min":93,"x_max":706,"o":"m 93 0 m 451 -24 q 186 88 279 -22 q 93 381 93 197 q 186 671 93 563 q 451 781 279 779 q 552 772 510 781 q 644 743 594 763 l 644 663 q 550 696 594 686 q 451 706 506 706 q 238 615 306 704 q 171 382 171 526 q 238 143 171 233 q 451 51 306 53 q 678 108 551 51 l 706 39 q 451 -24 581 -24 m 388 1094 l 463 1094 l 463 940 l 388 940 l 388 1094 z "},"d":{"ha":865,"x_min":93,"x_max":726,"o":"m 726 1175 l 726 0 l 651 0 l 651 79 q 540 4 599 32 q 424 -24 482 -24 q 183 79 272 -24 q 93 379 93 182 q 183 678 93 575 q 424 781 272 781 q 540 753 482 781 q 651 678 599 725 l 651 1175 l 726 1175 m 424 51 q 651 154 542 51 l 651 603 q 424 706 542 706 q 235 622 299 706 q 171 379 171 539 q 235 135 171 218 q 424 51 299 51 z "},"ð":{"ha":857,"x_min":93,"x_max":764,"o":"m 507 1085 q 697 790 629 963 q 764 435 764 617 q 677 102 764 228 q 429 -24 590 -24 q 183 79 274 -24 q 93 378 93 182 q 187 683 93 586 q 428 781 281 781 q 543 752 483 781 q 654 675 603 724 q 576 872 626 778 q 454 1036 525 965 l 329 922 l 283 957 l 411 1076 q 315 1143 368 1114 l 358 1197 q 463 1125 410 1169 l 558 1214 l 607 1176 l 507 1085 m 686 435 q 675 579 686 514 q 428 706 551 706 q 244 633 317 706 q 171 378 171 561 q 240 128 171 204 q 429 51 310 51 q 617 150 549 51 q 686 435 685 249 z "},"ď":{"ha":865,"x_min":93,"x_max":957,"o":"m 93 0 m 726 1175 l 726 0 l 651 0 l 651 79 q 540 4 599 32 q 424 -24 482 -24 q 183 79 272 -24 q 93 379 93 182 q 183 678 93 575 q 424 781 272 781 q 540 753 482 781 q 651 678 599 725 l 651 1175 l 726 1175 m 424 51 q 651 154 542 51 l 651 603 q 424 706 542 706 q 235 622 299 706 q 171 379 171 539 q 235 135 171 218 q 424 51 299 51 m 882 1039 l 957 1039 l 879 758 l 813 758 l 882 1039 z "},"đ":{"ha":865,"x_min":93,"x_max":814,"o":"m 814 925 l 726 925 l 726 0 l 651 0 l 651 79 q 540 4 599 32 q 424 -24 482 -24 q 183 79 272 -24 q 93 379 93 182 q 183 678 93 575 q 424 781 272 781 q 540 753 482 781 q 651 678 599 725 l 651 925 l 396 925 l 396 992 l 651 992 l 651 1175 l 726 1175 l 726 992 l 814 992 l 814 925 m 424 51 q 651 154 542 51 l 651 603 q 424 706 542 706 q 235 622 299 706 q 171 379 171 539 q 235 135 171 218 q 424 51 299 51 z "},"e":{"ha":794,"x_min":93,"x_max":725,"o":"m 171 382 q 238 142 171 233 q 451 51 306 51 q 678 108 551 51 l 706 39 q 451 -24 583 -24 q 186 87 279 -24 q 93 381 93 197 q 137 599 93 508 q 256 735 181 689 q 424 781 331 781 q 644 690 564 781 q 725 431 724 600 l 725 401 l 171 401 l 171 382 m 424 706 q 260 648 325 706 q 178 476 196 590 l 646 476 q 583 650 638 594 q 424 706 529 706 z "},"é":{"ha":794,"x_min":93,"x_max":725,"o":"m 93 0 m 171 382 q 238 142 171 233 q 451 51 306 51 q 678 108 551 51 l 706 39 q 451 -24 583 -24 q 186 87 279 -24 q 93 381 93 197 q 137 599 93 508 q 256 735 181 689 q 424 781 331 781 q 644 690 564 781 q 725 431 724 600 l 725 401 l 171 401 l 171 382 m 424 706 q 260 648 325 706 q 178 476 196 590 l 646 476 q 583 650 638 594 q 424 706 529 706 m 528 1124 l 622 1124 l 454 911 l 378 911 l 528 1124 z "},"ě":{"ha":794,"x_min":93,"x_max":725,"o":"m 93 0 m 171 382 q 238 142 171 233 q 451 51 306 51 q 678 108 551 51 l 706 39 q 451 -24 583 -24 q 186 87 279 -24 q 93 381 93 197 q 137 599 93 508 q 256 735 181 689 q 424 781 331 781 q 644 690 564 781 q 725 431 724 600 l 725 401 l 171 401 l 171 382 m 424 706 q 260 648 325 706 q 178 476 196 590 l 646 476 q 583 650 638 594 q 424 706 529 706 m 628 1124 l 460 911 l 383 911 l 215 1124 l 310 1124 l 422 965 l 533 1124 l 628 1124 z "},"ê":{"ha":794,"x_min":93,"x_max":725,"o":"m 93 0 m 171 382 q 238 142 171 233 q 451 51 306 51 q 678 108 551 51 l 706 39 q 451 -24 583 -24 q 186 87 279 -24 q 93 381 93 197 q 137 599 93 508 q 256 735 181 689 q 424 781 331 781 q 644 690 564 781 q 725 431 724 600 l 725 401 l 171 401 l 171 382 m 424 706 q 260 648 325 706 q 178 476 196 590 l 646 476 q 583 650 638 594 q 424 706 529 706 m 533 911 l 422 1069 l 310 911 l 215 911 l 383 1124 l 460 1124 l 628 911 l 533 911 z "},"ë":{"ha":794,"x_min":93,"x_max":725,"o":"m 93 0 m 171 382 q 238 142 171 233 q 451 51 306 51 q 678 108 551 51 l 706 39 q 451 -24 583 -24 q 186 87 279 -24 q 93 381 93 197 q 137 599 93 508 q 256 735 181 689 q 424 781 331 781 q 644 690 564 781 q 725 431 724 600 l 725 401 l 171 401 l 171 382 m 424 706 q 260 648 325 706 q 178 476 196 590 l 646 476 q 583 650 638 594 q 424 706 529 706 m 519 1094 l 594 1094 l 594 940 l 519 940 l 519 1094 m 249 1094 l 324 1094 l 324 940 l 249 940 l 249 1094 z "},"ė":{"ha":794,"x_min":93,"x_max":725,"o":"m 93 0 m 171 382 q 238 142 171 233 q 451 51 306 51 q 678 108 551 51 l 706 39 q 451 -24 583 -24 q 186 87 279 -24 q 93 381 93 197 q 137 599 93 508 q 256 735 181 689 q 424 781 331 781 q 644 690 564 781 q 725 431 724 600 l 725 401 l 171 401 l 171 382 m 424 706 q 260 648 325 706 q 178 476 196 590 l 646 476 q 583 650 638 594 q 424 706 529 706 m 386 1094 l 461 1094 l 461 940 l 386 940 l 386 1094 z "},"è":{"ha":794,"x_min":93,"x_max":725,"o":"m 93 0 m 171 382 q 238 142 171 233 q 451 51 306 51 q 678 108 551 51 l 706 39 q 451 -24 583 -24 q 186 87 279 -24 q 93 381 93 197 q 137 599 93 508 q 256 735 181 689 q 424 781 331 781 q 644 690 564 781 q 725 431 724 600 l 725 401 l 171 401 l 171 382 m 424 706 q 260 648 325 706 q 178 476 196 590 l 646 476 q 583 650 638 594 q 424 706 529 706 m 224 1124 l 318 1124 l 468 911 l 392 911 l 224 1124 z "},"ē":{"ha":794,"x_min":93,"x_max":725,"o":"m 93 0 m 171 382 q 238 142 171 233 q 451 51 306 51 q 678 108 551 51 l 706 39 q 451 -24 583 -24 q 186 87 279 -24 q 93 381 93 197 q 137 599 93 508 q 256 735 181 689 q 424 781 331 781 q 644 690 564 781 q 725 431 724 600 l 725 401 l 171 401 l 171 382 m 424 706 q 260 648 325 706 q 178 476 196 590 l 646 476 q 583 650 638 594 q 424 706 529 706 m 207 1051 l 636 1051 l 636 985 l 207 985 l 207 1051 z "},"ę":{"ha":794,"x_min":93,"x_max":725,"o":"m 171 382 q 238 142 171 233 q 451 51 306 51 q 678 108 551 51 l 706 39 q 563 -80 611 -29 q 515 -187 515 -131 q 533 -228 515 -212 q 586 -244 550 -244 q 658 -228 626 -244 l 658 -294 q 586 -310 624 -310 q 481 -278 517 -310 q 444 -194 444 -247 q 471 -103 444 -146 q 551 -14 497 -60 q 451 -24 504 -24 q 186 87 279 -24 q 93 381 93 197 q 137 599 93 508 q 256 735 181 689 q 424 781 331 781 q 644 690 564 781 q 725 431 724 600 l 725 401 l 171 401 l 171 382 m 424 706 q 260 648 325 706 q 178 476 196 590 l 646 476 q 583 650 638 594 q 424 706 529 706 z "},"f":{"ha":414,"x_min":57,"x_max":379,"o":"m 315 1118 q 245 1097 264 1118 q 226 1017 226 1076 l 226 758 l 379 758 l 379 683 l 226 683 l 226 0 l 151 0 l 151 683 l 57 683 l 57 758 l 151 758 l 151 1025 q 190 1158 151 1122 q 322 1193 228 1193 q 379 1188 351 1193 l 379 1113 q 315 1118 351 1118 z "},"g":{"ha":833,"x_min":93,"x_max":726,"o":"m 726 758 l 726 -25 q 704 -198 726 -129 q 614 -308 682 -267 q 417 -349 546 -349 q 288 -337 342 -349 q 168 -299 233 -326 l 168 -215 q 396 -274 289 -274 q 566 -244 511 -274 q 636 -161 621 -214 q 651 -11 651 -108 l 651 107 q 540 32 599 60 q 424 4 482 4 q 251 50 325 4 q 135 184 176 96 q 93 393 93 272 q 183 681 93 582 q 424 781 272 781 q 540 753 482 781 q 651 678 599 725 l 651 758 l 726 758 m 424 79 q 651 182 542 79 l 651 603 q 424 706 542 706 q 236 622 301 706 q 171 393 171 538 q 236 163 171 246 q 424 79 301 79 z "},"ğ":{"ha":833,"x_min":93,"x_max":726,"o":"m 93 0 m 726 758 l 726 -25 q 704 -198 726 -129 q 614 -308 682 -267 q 417 -349 546 -349 q 288 -337 342 -349 q 168 -299 233 -326 l 168 -215 q 396 -274 289 -274 q 566 -244 511 -274 q 636 -161 621 -214 q 651 -11 651 -108 l 651 107 q 540 32 599 60 q 424 4 482 4 q 251 50 325 4 q 135 184 176 96 q 93 393 93 272 q 183 681 93 582 q 424 781 272 781 q 540 753 482 781 q 651 678 599 725 l 651 758 l 726 758 m 424 79 q 651 182 542 79 l 651 603 q 424 706 542 706 q 236 622 301 706 q 171 393 171 538 q 236 163 171 246 q 424 79 301 79 m 424 914 q 272 965 328 914 q 215 1113 215 1017 l 215 1121 l 285 1121 l 285 1113 q 318 1013 285 1044 q 424 981 351 981 q 529 1013 496 981 q 563 1113 563 1044 l 563 1121 l 632 1121 l 632 1113 q 578 965 636 1017 q 424 914 521 914 z "},"ģ":{"ha":833,"x_min":93,"x_max":726,"o":"m 93 0 m 726 758 l 726 -25 q 704 -198 726 -129 q 614 -308 682 -267 q 417 -349 546 -349 q 288 -337 342 -349 q 168 -299 233 -326 l 168 -215 q 396 -274 289 -274 q 566 -244 511 -274 q 636 -161 621 -214 q 651 -11 651 -108 l 651 107 q 540 32 599 60 q 424 4 482 4 q 251 50 325 4 q 135 184 176 96 q 93 393 93 272 q 183 681 93 582 q 424 781 272 781 q 540 753 482 781 q 651 678 599 725 l 651 758 l 726 758 m 424 79 q 651 182 542 79 l 651 603 q 424 706 542 706 q 236 622 301 706 q 171 393 171 538 q 236 163 171 246 q 424 79 301 79 m 433 1171 l 508 1171 l 464 940 l 381 940 l 433 1171 z "},"ġ":{"ha":833,"x_min":93,"x_max":726,"o":"m 93 0 m 726 758 l 726 -25 q 704 -198 726 -129 q 614 -308 682 -267 q 417 -349 546 -349 q 288 -337 342 -349 q 168 -299 233 -326 l 168 -215 q 396 -274 289 -274 q 566 -244 511 -274 q 636 -161 621 -214 q 651 -11 651 -108 l 651 107 q 540 32 599 60 q 424 4 482 4 q 251 50 325 4 q 135 184 176 96 q 93 393 93 272 q 183 681 93 582 q 424 781 272 781 q 540 753 482 781 q 651 678 599 725 l 651 758 l 726 758 m 424 79 q 651 182 542 79 l 651 603 q 424 706 542 706 q 236 622 301 706 q 171 393 171 538 q 236 163 171 246 q 424 79 301 79 m 386 1094 l 461 1094 l 461 940 l 386 940 l 386 1094 z "},"h":{"ha":850,"x_min":139,"x_max":718,"o":"m 456 775 q 654 703 590 775 q 718 458 718 631 l 718 0 l 643 0 l 643 458 q 626 601 643 549 q 567 676 608 653 q 456 700 526 700 q 328 671 390 700 q 214 592 267 642 l 214 0 l 139 0 l 139 1175 l 214 1175 l 214 667 q 331 745 267 715 q 456 775 394 775 z "},"ħ":{"ha":850,"x_min":51,"x_max":718,"o":"m 456 775 q 654 703 590 775 q 718 458 718 631 l 718 0 l 643 0 l 643 458 q 626 601 643 549 q 567 676 608 653 q 456 700 526 700 q 328 671 390 700 q 214 592 267 642 l 214 0 l 139 0 l 139 925 l 51 925 l 51 992 l 139 992 l 139 1175 l 214 1175 l 214 992 l 469 992 l 469 925 l 214 925 l 214 667 q 331 745 267 715 q 456 775 394 775 z "},"i":{"ha":353,"x_min":139,"x_max":214,"o":"m 139 1122 l 214 1122 l 214 913 l 139 913 l 139 1122 m 139 758 l 214 758 l 214 0 l 139 0 l 139 758 z "},"ı":{"ha":353,"x_min":139,"x_max":214,"o":"m 139 758 l 214 758 l 214 0 l 139 0 l 139 758 z "},"í":{"ha":353,"x_min":131,"x_max":375,"o":"m 131 0 m 139 758 l 214 758 l 214 0 l 139 0 l 139 758 m 281 1124 l 375 1124 l 207 911 l 131 911 l 281 1124 z "},"î":{"ha":353,"x_min":-32,"x_max":381,"o":"m 0 0 m 139 758 l 214 758 l 214 0 l 139 0 l 139 758 m 286 911 l 175 1069 l 63 911 l -32 911 l 136 1124 l 213 1124 l 381 911 l 286 911 z "},"ï":{"ha":353,"x_min":1,"x_max":347,"o":"m 1 0 m 139 758 l 214 758 l 214 0 l 139 0 l 139 758 m 272 1094 l 347 1094 l 347 940 l 272 940 l 272 1094 m 1 1094 l 76 1094 l 76 940 l 1 940 l 1 1094 z "},"ì":{"ha":353,"x_min":-24,"x_max":221,"o":"m 0 0 m 139 758 l 214 758 l 214 0 l 139 0 l 139 758 m -24 1124 l 71 1124 l 221 911 l 144 911 l -24 1124 z "},"ĳ":{"ha":706,"x_min":139,"x_max":567,"o":"m 139 0 m 139 1122 l 214 1122 l 214 913 l 139 913 l 139 1122 m 139 758 l 214 758 l 214 0 l 139 0 l 139 758 m 492 1122 l 567 1122 l 567 913 l 492 913 l 492 1122 m 396 -349 q 339 -343 367 -349 l 339 -268 q 403 -274 367 -274 q 458 -261 439 -274 q 484 -216 476 -249 q 492 -117 492 -183 l 492 758 l 567 758 l 567 -125 q 552 -262 567 -215 q 501 -329 538 -310 q 396 -349 465 -349 z "},"ī":{"ha":353,"x_min":-40,"x_max":389,"o":"m 0 0 m 139 758 l 214 758 l 214 0 l 139 0 l 139 758 m -40 1051 l 389 1051 l 389 985 l -40 985 l -40 1051 z "},"į":{"ha":353,"x_min":3,"x_max":214,"o":"m 214 1122 l 214 913 l 139 913 l 139 1122 l 214 1122 m 214 758 l 214 0 q 109 -98 144 -56 q 74 -187 74 -140 q 90 -228 74 -212 q 142 -244 107 -244 q 214 -228 182 -244 l 214 -294 q 142 -310 179 -310 q 38 -278 74 -310 q 3 -194 3 -247 q 37 -97 3 -143 q 139 0 71 -51 l 139 758 l 214 758 z "},"j":{"ha":353,"x_min":-14,"x_max":214,"o":"m 139 1122 l 214 1122 l 214 913 l 139 913 l 139 1122 m 43 -349 q -14 -343 14 -349 l -14 -268 q 50 -274 14 -274 q 105 -261 86 -274 q 131 -216 124 -249 q 139 -117 139 -183 l 139 758 l 214 758 l 214 -125 q 199 -262 214 -215 q 149 -329 185 -310 q 43 -349 113 -349 z "},"ȷ":{"ha":353,"x_min":-14,"x_max":214,"o":"m 43 -349 q -14 -343 14 -349 l -14 -268 q 50 -274 14 -274 q 105 -261 86 -274 q 131 -216 124 -249 q 139 -117 139 -183 l 139 758 l 214 758 l 214 -125 q 199 -262 214 -215 q 149 -329 185 -310 q 43 -349 113 -349 z "},"k":{"ha":760,"x_min":139,"x_max":718,"o":"m 307 401 l 214 307 l 214 0 l 139 0 l 139 1175 l 214 1175 l 214 407 l 563 758 l 663 758 l 360 454 l 718 0 l 624 0 l 307 401 z "},"ķ":{"ha":760,"x_min":139,"x_max":718,"o":"m 139 0 m 307 401 l 214 307 l 214 0 l 139 0 l 139 1175 l 214 1175 l 214 407 l 563 758 l 663 758 l 360 454 l 718 0 l 624 0 l 307 401 m 343 -111 l 426 -111 l 374 -342 l 299 -342 l 343 -111 z "},"l":{"ha":401,"x_min":139,"x_max":367,"o":"m 310 -18 q 177 17 215 -18 q 139 150 139 53 l 139 1175 l 214 1175 l 214 158 q 233 78 214 99 q 303 57 251 57 q 367 63 339 57 l 367 -12 q 310 -18 339 -18 z "},"ĺ":{"ha":401,"x_min":131,"x_max":375,"o":"m 131 0 m 310 -18 q 177 17 215 -18 q 139 150 139 53 l 139 1175 l 214 1175 l 214 158 q 233 78 214 99 q 303 57 251 57 q 367 63 339 57 l 367 -12 q 310 -18 339 -18 m 281 1540 l 375 1540 l 207 1328 l 131 1328 l 281 1540 z "},"ľ":{"ha":401,"x_min":139,"x_max":476,"o":"m 139 0 m 310 -18 q 177 17 215 -18 q 139 150 139 53 l 139 1175 l 214 1175 l 214 158 q 233 78 214 99 q 303 57 251 57 q 367 63 339 57 l 367 -12 q 310 -18 339 -18 m 401 1053 l 476 1053 l 399 772 l 332 772 l 401 1053 z "},"ļ":{"ha":401,"x_min":139,"x_max":367,"o":"m 139 0 m 310 -18 q 177 17 215 -18 q 139 150 139 53 l 139 1175 l 214 1175 l 214 158 q 233 78 214 99 q 303 57 251 57 q 367 63 339 57 l 367 -12 q 310 -18 339 -18 m 224 -111 l 307 -111 l 254 -342 l 179 -342 l 224 -111 z "},"ŀ":{"ha":401,"x_min":139,"x_max":401,"o":"m 139 0 m 310 -18 q 177 17 215 -18 q 139 150 139 53 l 139 1175 l 214 1175 l 214 158 q 233 78 214 99 q 303 57 251 57 q 367 63 339 57 l 367 -12 q 310 -18 339 -18 m 313 574 l 401 574 l 401 364 l 313 364 l 313 574 z "},"ł":{"ha":401,"x_min":15,"x_max":367,"o":"m 303 57 q 367 63 339 57 l 367 -12 q 310 -18 339 -18 q 177 17 215 -18 q 139 150 139 53 l 139 544 l 15 496 l 15 565 l 139 614 l 139 1175 l 214 1175 l 214 644 l 361 703 l 361 633 l 214 575 l 214 158 q 233 78 214 99 q 303 57 251 57 z "},"m":{"ha":1319,"x_min":139,"x_max":1222,"o":"m 960 775 q 1158 703 1094 775 q 1222 458 1222 631 l 1222 0 l 1147 0 l 1147 458 q 1130 601 1147 549 q 1072 676 1113 653 q 960 700 1031 700 q 827 665 892 700 q 710 572 763 631 q 718 458 718 522 l 718 0 l 643 0 l 643 458 q 626 601 643 549 q 567 676 608 653 q 456 700 526 700 q 328 671 390 700 q 214 592 267 642 l 214 0 l 139 0 l 139 758 l 214 758 l 214 667 q 331 745 267 715 q 456 775 394 775 q 606 743 547 775 q 692 639 664 711 q 817 737 746 699 q 960 775 889 775 z "},"n":{"ha":850,"x_min":139,"x_max":718,"o":"m 456 775 q 654 703 590 775 q 718 458 718 631 l 718 0 l 643 0 l 643 458 q 626 601 643 549 q 567 676 608 653 q 456 700 526 700 q 214 592 329 700 l 214 0 l 139 0 l 139 758 l 214 758 l 214 667 q 331 745 268 715 q 456 775 394 775 z "},"ń":{"ha":850,"x_min":139,"x_max":718,"o":"m 139 0 m 456 775 q 654 703 590 775 q 718 458 718 631 l 718 0 l 643 0 l 643 458 q 626 601 643 549 q 567 676 608 653 q 456 700 526 700 q 214 592 329 700 l 214 0 l 139 0 l 139 758 l 214 758 l 214 667 q 331 745 268 715 q 456 775 394 775 m 532 1124 l 626 1124 l 458 911 l 382 911 l 532 1124 z "},"ň":{"ha":850,"x_min":-53,"x_max":718,"o":"m 0 0 m 456 775 q 654 703 590 775 q 718 458 718 631 l 718 0 l 643 0 l 643 458 q 626 601 643 549 q 567 676 608 653 q 456 700 526 700 q 214 592 329 700 l 214 0 l 139 0 l 139 758 l 214 758 l 214 667 q 331 745 268 715 q 456 775 394 775 m 17 1053 l 92 1053 l 14 772 l -53 772 l 17 1053 z "},"ņ":{"ha":850,"x_min":139,"x_max":718,"o":"m 139 0 m 456 775 q 654 703 590 775 q 718 458 718 631 l 718 0 l 643 0 l 643 458 q 626 601 643 549 q 567 676 608 653 q 456 700 526 700 q 214 592 329 700 l 214 0 l 139 0 l 139 758 l 214 758 l 214 667 q 331 745 268 715 q 456 775 394 775 m 385 -111 l 468 -111 l 415 -342 l 340 -342 l 385 -111 z "},"ŋ":{"ha":833,"x_min":139,"x_max":718,"o":"m 456 775 q 654 703 590 775 q 718 458 718 631 l 718 -125 q 703 -262 718 -215 q 653 -329 689 -310 q 547 -349 617 -349 q 490 -343 518 -349 l 490 -268 q 554 -274 518 -274 q 609 -261 590 -274 q 635 -216 628 -249 q 643 -117 643 -183 l 643 458 q 626 601 643 549 q 567 676 608 653 q 456 700 526 700 q 214 592 329 700 l 214 0 l 139 0 l 139 758 l 214 758 l 214 667 q 331 745 268 715 q 456 775 394 775 z "},"ñ":{"ha":850,"x_min":139,"x_max":718,"o":"m 139 0 m 456 775 q 654 703 590 775 q 718 458 718 631 l 718 0 l 643 0 l 643 458 q 626 601 643 549 q 567 676 608 653 q 456 700 526 700 q 214 592 329 700 l 214 0 l 139 0 l 139 758 l 214 758 l 214 667 q 331 745 268 715 q 456 775 394 775 m 231 947 q 262 1047 233 1015 q 331 1079 290 1079 q 413 1056 369 1079 l 464 1028 q 507 1014 488 1014 q 551 1079 551 1014 l 621 1079 q 590 979 618 1011 q 521 947 561 947 q 440 971 483 947 l 389 999 q 344 1013 364 1013 q 300 947 300 1013 l 231 947 z "},"o":{"ha":901,"x_min":93,"x_max":808,"o":"m 451 -24 q 255 29 336 -24 q 133 174 174 82 q 93 379 93 265 q 133 584 93 493 q 255 728 174 675 q 451 781 336 781 q 647 728 567 781 q 768 584 728 675 q 808 379 808 493 q 768 174 808 265 q 647 29 728 82 q 451 -24 567 -24 m 451 51 q 602 95 539 51 q 698 213 665 139 q 731 379 731 288 q 698 545 731 471 q 603 663 665 619 q 451 706 540 706 q 299 663 363 706 q 203 545 236 619 q 171 379 171 471 q 203 213 171 288 q 299 95 236 139 q 451 51 363 51 z "},"ó":{"ha":901,"x_min":93,"x_max":808,"o":"m 93 0 m 451 -24 q 255 29 336 -24 q 133 174 174 82 q 93 379 93 265 q 133 584 93 493 q 255 728 174 675 q 451 781 336 781 q 647 728 567 781 q 768 584 728 675 q 808 379 808 493 q 768 174 808 265 q 647 29 728 82 q 451 -24 567 -24 m 451 51 q 602 95 539 51 q 698 213 665 139 q 731 379 731 288 q 698 545 731 471 q 603 663 665 619 q 451 706 540 706 q 299 663 363 706 q 203 545 236 619 q 171 379 171 471 q 203 213 171 288 q 299 95 236 139 q 451 51 363 51 m 556 1124 l 650 1124 l 482 911 l 406 911 l 556 1124 z "},"ô":{"ha":901,"x_min":93,"x_max":808,"o":"m 93 0 m 451 -24 q 255 29 336 -24 q 133 174 174 82 q 93 379 93 265 q 133 584 93 493 q 255 728 174 675 q 451 781 336 781 q 647 728 567 781 q 768 584 728 675 q 808 379 808 493 q 768 174 808 265 q 647 29 728 82 q 451 -24 567 -24 m 451 51 q 602 95 539 51 q 698 213 665 139 q 731 379 731 288 q 698 545 731 471 q 603 663 665 619 q 451 706 540 706 q 299 663 363 706 q 203 545 236 619 q 171 379 171 471 q 203 213 171 288 q 299 95 236 139 q 451 51 363 51 m 561 911 l 450 1069 l 338 911 l 243 911 l 411 1124 l 488 1124 l 656 911 l 561 911 z "},"ö":{"ha":901,"x_min":93,"x_max":808,"o":"m 93 0 m 451 -24 q 255 29 336 -24 q 133 174 174 82 q 93 379 93 265 q 133 584 93 493 q 255 728 174 675 q 451 781 336 781 q 647 728 567 781 q 768 584 728 675 q 808 379 808 493 q 768 174 808 265 q 647 29 728 82 q 451 -24 567 -24 m 451 51 q 602 95 539 51 q 698 213 665 139 q 731 379 731 288 q 698 545 731 471 q 603 663 665 619 q 451 706 540 706 q 299 663 363 706 q 203 545 236 619 q 171 379 171 471 q 203 213 171 288 q 299 95 236 139 q 451 51 363 51 m 547 1094 l 622 1094 l 622 940 l 547 940 l 547 1094 m 276 1094 l 351 1094 l 351 940 l 276 940 l 276 1094 z "},"ò":{"ha":901,"x_min":93,"x_max":808,"o":"m 93 0 m 451 -24 q 255 29 336 -24 q 133 174 174 82 q 93 379 93 265 q 133 584 93 493 q 255 728 174 675 q 451 781 336 781 q 647 728 567 781 q 768 584 728 675 q 808 379 808 493 q 768 174 808 265 q 647 29 728 82 q 451 -24 567 -24 m 451 51 q 602 95 539 51 q 698 213 665 139 q 731 379 731 288 q 698 545 731 471 q 603 663 665 619 q 451 706 540 706 q 299 663 363 706 q 203 545 236 619 q 171 379 171 471 q 203 213 171 288 q 299 95 236 139 q 451 51 363 51 m 251 1124 l 346 1124 l 496 911 l 419 911 l 251 1124 z "},"ő":{"ha":901,"x_min":93,"x_max":808,"o":"m 93 0 m 451 -24 q 255 29 336 -24 q 133 174 174 82 q 93 379 93 265 q 133 584 93 493 q 255 728 174 675 q 451 781 336 781 q 647 728 567 781 q 768 584 728 675 q 808 379 808 493 q 768 174 808 265 q 647 29 728 82 q 451 -24 567 -24 m 451 51 q 602 95 539 51 q 698 213 665 139 q 731 379 731 288 q 698 545 731 471 q 603 663 665 619 q 451 706 540 706 q 299 663 363 706 q 203 545 236 619 q 171 379 171 471 q 203 213 171 288 q 299 95 236 139 q 451 51 363 51 m 674 1124 l 768 1124 l 600 911 l 524 911 l 674 1124 m 438 1124 l 532 1124 l 364 911 l 288 911 l 438 1124 z "},"ō":{"ha":901,"x_min":93,"x_max":808,"o":"m 93 0 m 451 -24 q 255 29 336 -24 q 133 174 174 82 q 93 379 93 265 q 133 584 93 493 q 255 728 174 675 q 451 781 336 781 q 647 728 567 781 q 768 584 728 675 q 808 379 808 493 q 768 174 808 265 q 647 29 728 82 q 451 -24 567 -24 m 451 51 q 602 95 539 51 q 698 213 665 139 q 731 379 731 288 q 698 545 731 471 q 603 663 665 619 q 451 706 540 706 q 299 663 363 706 q 203 545 236 619 q 171 379 171 471 q 203 213 171 288 q 299 95 236 139 q 451 51 363 51 m 235 1051 l 664 1051 l 664 985 l 235 985 l 235 1051 z "},"ø":{"ha":901,"x_min":39,"x_max":863,"o":"m 754 611 q 808 379 808 514 q 768 174 808 265 q 647 29 728 82 q 451 -24 567 -24 q 299 6 365 -24 q 186 90 232 36 l 88 0 l 39 47 l 147 146 q 93 379 93 246 q 133 584 93 493 q 255 728 174 675 q 451 781 336 781 q 603 751 536 781 q 715 668 671 722 l 815 758 l 863 710 l 754 611 m 171 379 q 208 203 171 278 l 657 613 q 451 706 582 706 q 299 663 363 706 q 203 545 236 619 q 171 379 171 471 m 731 379 q 693 556 731 479 l 244 144 q 451 51 322 51 q 602 95 539 51 q 698 213 665 139 q 731 379 731 288 z "},"õ":{"ha":901,"x_min":93,"x_max":808,"o":"m 93 0 m 451 -24 q 255 29 336 -24 q 133 174 174 82 q 93 379 93 265 q 133 584 93 493 q 255 728 174 675 q 451 781 336 781 q 647 728 567 781 q 768 584 728 675 q 808 379 808 493 q 768 174 808 265 q 647 29 728 82 q 451 -24 567 -24 m 451 51 q 602 95 539 51 q 698 213 665 139 q 731 379 731 288 q 698 545 731 471 q 603 663 665 619 q 451 706 540 706 q 299 663 363 706 q 203 545 236 619 q 171 379 171 471 q 203 213 171 288 q 299 95 236 139 q 451 51 363 51 m 254 947 q 285 1047 257 1015 q 354 1079 314 1079 q 436 1056 393 1079 l 488 1028 q 531 1014 511 1014 q 575 1079 575 1014 l 644 1079 q 613 979 642 1011 q 544 947 585 947 q 464 971 507 947 l 413 999 q 368 1013 388 1013 q 324 947 324 1013 l 254 947 z "},"œ":{"ha":1432,"x_min":93,"x_max":1363,"o":"m 808 382 q 876 142 808 233 q 1089 51 943 51 q 1315 108 1189 51 l 1343 39 q 1089 -24 1221 -24 q 891 28 972 -24 q 769 175 810 81 q 648 29 728 82 q 451 -24 568 -24 q 255 29 336 -24 q 133 174 174 82 q 93 379 93 265 q 133 584 93 493 q 255 728 174 675 q 451 781 336 781 q 647 728 567 781 q 768 585 726 676 q 886 731 808 681 q 1061 781 964 781 q 1281 690 1201 781 q 1363 431 1361 600 l 1363 401 l 808 401 l 808 382 m 451 51 q 602 95 539 51 q 698 213 665 139 q 731 379 731 288 q 698 545 731 471 q 603 663 665 619 q 451 706 540 706 q 299 663 363 706 q 203 545 236 619 q 171 379 171 471 q 203 213 171 288 q 299 95 236 139 q 451 51 363 51 m 1061 706 q 898 648 963 706 q 815 476 833 590 l 1283 476 q 1221 650 1275 594 q 1061 706 1167 706 z "},"p":{"ha":865,"x_min":139,"x_max":772,"o":"m 442 781 q 683 678 593 781 q 772 378 772 575 q 683 79 772 182 q 442 -24 593 -24 q 325 4 383 -24 q 214 79 267 32 l 214 -325 l 139 -325 l 139 758 l 214 758 l 214 678 q 325 753 267 725 q 442 781 383 781 m 442 51 q 631 135 567 51 q 694 378 694 218 q 631 622 694 539 q 442 706 567 706 q 214 603 324 706 l 214 154 q 442 51 324 51 z "},"þ":{"ha":865,"x_min":139,"x_max":772,"o":"m 442 781 q 683 678 593 781 q 772 378 772 575 q 683 79 772 182 q 442 -24 593 -24 q 325 4 383 -24 q 214 79 267 32 l 214 -325 l 139 -325 l 139 1175 l 214 1175 l 214 678 q 325 753 267 725 q 442 781 383 781 m 442 51 q 631 135 567 51 q 694 378 694 218 q 631 622 694 539 q 442 706 567 706 q 214 603 324 706 l 214 154 q 442 51 324 51 z "},"q":{"ha":865,"x_min":93,"x_max":726,"o":"m 726 758 l 726 -325 l 651 -325 l 651 79 q 540 4 599 32 q 424 -24 482 -24 q 183 79 272 -24 q 93 379 93 182 q 183 678 93 575 q 424 781 272 781 q 540 753 482 781 q 651 678 599 725 l 651 758 l 726 758 m 424 51 q 651 154 542 51 l 651 603 q 424 706 542 706 q 235 622 299 706 q 171 379 171 539 q 235 135 171 218 q 424 51 299 51 z "},"r":{"ha":529,"x_min":139,"x_max":488,"o":"m 488 775 l 488 700 l 456 700 q 328 671 390 700 q 214 592 267 642 l 214 0 l 139 0 l 139 758 l 214 758 l 214 667 q 331 745 267 715 q 456 775 394 775 l 488 775 z "},"ŕ":{"ha":529,"x_min":139,"x_max":525,"o":"m 139 0 m 488 775 l 488 700 l 456 700 q 328 671 390 700 q 214 592 267 642 l 214 0 l 139 0 l 139 758 l 214 758 l 214 667 q 331 745 267 715 q 456 775 394 775 l 488 775 m 431 1124 l 525 1124 l 357 911 l 281 911 l 431 1124 z "},"ř":{"ha":529,"x_min":118,"x_max":531,"o":"m 118 0 m 488 775 l 488 700 l 456 700 q 328 671 390 700 q 214 592 267 642 l 214 0 l 139 0 l 139 758 l 214 758 l 214 667 q 331 745 267 715 q 456 775 394 775 l 488 775 m 531 1124 l 363 911 l 286 911 l 118 1124 l 213 1124 l 325 965 l 436 1124 l 531 1124 z "},"ŗ":{"ha":529,"x_min":82,"x_max":488,"o":"m 82 0 m 488 775 l 488 700 l 456 700 q 328 671 390 700 q 214 592 267 642 l 214 0 l 139 0 l 139 758 l 214 758 l 214 667 q 331 745 267 715 q 456 775 394 775 l 488 775 m 126 -111 l 210 -111 l 157 -342 l 82 -342 l 126 -111 z "},"s":{"ha":678,"x_min":78,"x_max":592,"o":"m 340 -24 q 203 -10 264 -24 q 78 33 143 3 l 78 121 q 340 51 201 51 q 473 92 432 51 q 514 196 514 132 q 479 290 514 260 q 368 340 444 319 l 299 360 q 155 432 210 385 q 100 581 100 479 q 160 726 100 671 q 336 781 221 781 q 453 768 403 781 q 556 731 503 756 l 556 650 q 451 692 496 678 q 336 706 407 706 q 216 669 254 706 q 178 579 178 632 q 215 485 178 517 q 321 435 251 454 l 390 415 q 497 376 456 397 q 565 311 539 354 q 592 194 592 268 q 523 34 592 92 q 340 -24 454 -24 z "},"ś":{"ha":678,"x_min":78,"x_max":592,"o":"m 78 0 m 340 -24 q 203 -10 264 -24 q 78 33 143 3 l 78 121 q 340 51 201 51 q 473 92 432 51 q 514 196 514 132 q 479 290 514 260 q 368 340 444 319 l 299 360 q 155 432 210 385 q 100 581 100 479 q 160 726 100 671 q 336 781 221 781 q 453 768 403 781 q 556 731 503 756 l 556 650 q 451 692 496 678 q 336 706 407 706 q 216 669 254 706 q 178 579 178 632 q 215 485 178 517 q 321 435 251 454 l 390 415 q 497 376 456 397 q 565 311 539 354 q 592 194 592 268 q 523 34 592 92 q 340 -24 454 -24 m 440 1124 l 535 1124 l 367 911 l 290 911 l 440 1124 z "},"š":{"ha":678,"x_min":78,"x_max":592,"o":"m 78 0 m 340 -24 q 203 -10 264 -24 q 78 33 143 3 l 78 121 q 340 51 201 51 q 473 92 432 51 q 514 196 514 132 q 479 290 514 260 q 368 340 444 319 l 299 360 q 155 432 210 385 q 100 581 100 479 q 160 726 100 671 q 336 781 221 781 q 453 768 403 781 q 556 731 503 756 l 556 650 q 451 692 496 678 q 336 706 407 706 q 216 669 254 706 q 178 579 178 632 q 215 485 178 517 q 321 435 251 454 l 390 415 q 497 376 456 397 q 565 311 539 354 q 592 194 592 268 q 523 34 592 92 q 340 -24 454 -24 m 540 1124 l 372 911 l 296 911 l 128 1124 l 222 1124 l 335 965 l 446 1124 l 540 1124 z "},"ş":{"ha":678,"x_min":78,"x_max":592,"o":"m 592 194 q 533 43 592 100 q 374 -22 474 -14 l 349 -101 q 369 -100 356 -100 q 481 -135 442 -100 q 521 -229 521 -171 q 476 -328 521 -290 q 351 -365 432 -365 q 224 -337 285 -365 l 224 -271 q 351 -300 288 -300 q 426 -279 401 -300 q 450 -229 450 -258 q 369 -165 450 -165 q 251 -189 322 -165 l 303 -22 q 188 -7 240 -21 q 78 33 136 7 l 78 121 q 340 51 201 51 q 473 92 432 51 q 514 196 514 132 q 479 290 514 260 q 368 340 444 319 l 299 360 q 155 432 210 385 q 100 581 100 479 q 160 726 100 671 q 336 781 221 781 q 453 768 403 781 q 556 731 503 756 l 556 650 q 451 692 496 678 q 336 706 407 706 q 216 669 254 706 q 178 579 178 632 q 215 485 178 517 q 321 435 251 454 l 390 415 q 497 376 456 397 q 565 311 539 354 q 592 194 592 268 z "},"ș":{"ha":678,"x_min":78,"x_max":592,"o":"m 78 0 m 340 -24 q 203 -10 264 -24 q 78 33 143 3 l 78 121 q 340 51 201 51 q 473 92 432 51 q 514 196 514 132 q 479 290 514 260 q 368 340 444 319 l 299 360 q 155 432 210 385 q 100 581 100 479 q 160 726 100 671 q 336 781 221 781 q 453 768 403 781 q 556 731 503 756 l 556 650 q 451 692 496 678 q 336 706 407 706 q 216 669 254 706 q 178 579 178 632 q 215 485 178 517 q 321 435 251 454 l 390 415 q 497 376 456 397 q 565 311 539 354 q 592 194 592 268 q 523 34 592 92 q 340 -24 454 -24 m 290 -111 l 374 -111 l 321 -342 l 246 -342 l 290 -111 z "},"ß":{"ha":826,"x_min":139,"x_max":761,"o":"m 508 -24 q 426 -16 465 -24 q 343 11 388 -8 l 343 90 q 434 60 397 68 q 508 51 471 51 q 683 196 679 51 q 663 268 683 239 q 612 315 642 297 q 531 357 582 333 q 435 406 472 382 q 374 469 399 429 q 349 569 349 508 q 367 662 349 624 q 421 754 385 700 q 482 856 461 810 q 503 969 503 901 q 467 1083 503 1047 q 358 1118 432 1118 q 248 1085 282 1118 q 214 969 214 1051 l 214 0 l 139 0 l 139 969 q 194 1142 139 1092 q 365 1193 249 1193 q 522 1135 465 1193 q 578 969 578 1078 q 554 828 578 883 q 486 707 531 772 q 441 633 456 663 q 426 568 426 604 q 460 491 426 519 q 567 426 494 463 q 667 370 628 396 q 733 301 706 344 q 761 194 761 258 q 689 31 756 86 q 508 -24 622 -24 z "},"t":{"ha":471,"x_min":57,"x_max":407,"o":"m 315 57 q 407 68 356 57 l 407 -7 q 315 -18 358 -18 q 215 -1 250 -18 q 165 53 179 15 q 151 158 151 90 l 151 683 l 57 683 l 57 758 l 151 758 l 151 1022 l 226 1022 l 226 758 l 404 758 l 404 683 l 226 683 l 226 158 q 245 78 226 99 q 315 57 264 57 z "},"ŧ":{"ha":471,"x_min":57,"x_max":407,"o":"m 315 57 q 407 68 356 57 l 407 -7 q 315 -18 358 -18 q 215 -1 250 -18 q 165 53 179 15 q 151 158 151 90 l 151 351 l 57 351 l 57 418 l 151 418 l 151 683 l 57 683 l 57 758 l 151 758 l 151 1022 l 226 1022 l 226 758 l 404 758 l 404 683 l 226 683 l 226 418 l 404 418 l 404 351 l 226 351 l 226 158 q 245 78 226 99 q 315 57 264 57 z "},"ť":{"ha":471,"x_min":57,"x_max":481,"o":"m 57 0 m 315 57 q 407 68 356 57 l 407 -7 q 315 -18 358 -18 q 215 -1 250 -18 q 165 53 179 15 q 151 158 151 90 l 151 683 l 57 683 l 57 758 l 151 758 l 151 1022 l 226 1022 l 226 758 l 404 758 l 404 683 l 226 683 l 226 158 q 245 78 226 99 q 315 57 264 57 m 406 1122 l 481 1122 l 403 842 l 336 842 l 406 1122 z "},"ţ":{"ha":471,"x_min":57,"x_max":440,"o":"m 289 -100 q 401 -135 361 -100 q 440 -229 440 -171 q 396 -328 440 -290 q 271 -365 351 -365 q 143 -337 204 -365 l 143 -271 q 271 -300 207 -300 q 345 -279 321 -300 q 369 -229 369 -258 q 289 -165 369 -165 q 171 -189 242 -165 l 226 -7 q 167 47 183 8 q 151 158 151 85 l 151 683 l 57 683 l 57 758 l 151 758 l 151 1022 l 226 1022 l 226 758 l 404 758 l 404 683 l 226 683 l 226 158 q 245 78 226 99 q 315 57 264 57 q 407 68 356 57 l 407 -7 q 315 -18 358 -18 l 294 -18 l 268 -101 q 289 -100 275 -100 z "},"ț":{"ha":471,"x_min":57,"x_max":407,"o":"m 57 0 m 315 57 q 407 68 356 57 l 407 -7 q 315 -18 358 -18 q 215 -1 250 -18 q 165 53 179 15 q 151 158 151 90 l 151 683 l 57 683 l 57 758 l 151 758 l 151 1022 l 226 1022 l 226 758 l 404 758 l 404 683 l 226 683 l 226 158 q 245 78 226 99 q 315 57 264 57 m 210 -111 l 293 -111 l 240 -342 l 165 -342 l 210 -111 z "},"u":{"ha":850,"x_min":132,"x_max":711,"o":"m 711 758 l 711 0 l 636 0 l 636 92 q 519 13 583 43 q 394 -17 456 -17 q 196 56 260 -17 q 132 300 132 128 l 132 758 l 207 758 l 207 300 q 224 158 207 210 q 283 82 242 106 q 394 58 324 58 q 522 88 460 58 q 636 167 583 117 l 636 758 l 711 758 z "},"ú":{"ha":850,"x_min":132,"x_max":711,"o":"m 132 0 m 711 758 l 711 0 l 636 0 l 636 92 q 519 13 583 43 q 394 -17 456 -17 q 196 56 260 -17 q 132 300 132 128 l 132 758 l 207 758 l 207 300 q 224 158 207 210 q 283 82 242 106 q 394 58 324 58 q 522 88 460 58 q 636 167 583 117 l 636 758 l 711 758 m 524 1124 l 618 1124 l 450 911 l 374 911 l 524 1124 z "},"û":{"ha":850,"x_min":132,"x_max":711,"o":"m 132 0 m 711 758 l 711 0 l 636 0 l 636 92 q 519 13 583 43 q 394 -17 456 -17 q 196 56 260 -17 q 132 300 132 128 l 132 758 l 207 758 l 207 300 q 224 158 207 210 q 283 82 242 106 q 394 58 324 58 q 522 88 460 58 q 636 167 583 117 l 636 758 l 711 758 m 529 911 l 418 1069 l 306 911 l 211 911 l 379 1124 l 456 1124 l 624 911 l 529 911 z "},"ü":{"ha":850,"x_min":132,"x_max":711,"o":"m 132 0 m 711 758 l 711 0 l 636 0 l 636 92 q 519 13 583 43 q 394 -17 456 -17 q 196 56 260 -17 q 132 300 132 128 l 132 758 l 207 758 l 207 300 q 224 158 207 210 q 283 82 242 106 q 394 58 324 58 q 522 88 460 58 q 636 167 583 117 l 636 758 l 711 758 m 515 1094 l 590 1094 l 590 940 l 515 940 l 515 1094 m 244 1094 l 319 1094 l 319 940 l 244 940 l 244 1094 z "},"ù":{"ha":850,"x_min":132,"x_max":711,"o":"m 132 0 m 711 758 l 711 0 l 636 0 l 636 92 q 519 13 583 43 q 394 -17 456 -17 q 196 56 260 -17 q 132 300 132 128 l 132 758 l 207 758 l 207 300 q 224 158 207 210 q 283 82 242 106 q 394 58 324 58 q 522 88 460 58 q 636 167 583 117 l 636 758 l 711 758 m 219 1124 l 314 1124 l 464 911 l 388 911 l 219 1124 z "},"ű":{"ha":850,"x_min":132,"x_max":736,"o":"m 132 0 m 711 758 l 711 0 l 636 0 l 636 92 q 519 13 583 43 q 394 -17 456 -17 q 196 56 260 -17 q 132 300 132 128 l 132 758 l 207 758 l 207 300 q 224 158 207 210 q 283 82 242 106 q 394 58 324 58 q 522 88 460 58 q 636 167 583 117 l 636 758 l 711 758 m 642 1124 l 736 1124 l 568 911 l 492 911 l 642 1124 m 406 1124 l 500 1124 l 332 911 l 256 911 l 406 1124 z "},"ū":{"ha":850,"x_min":132,"x_max":711,"o":"m 132 0 m 711 758 l 711 0 l 636 0 l 636 92 q 519 13 583 43 q 394 -17 456 -17 q 196 56 260 -17 q 132 300 132 128 l 132 758 l 207 758 l 207 300 q 224 158 207 210 q 283 82 242 106 q 394 58 324 58 q 522 88 460 58 q 636 167 583 117 l 636 758 l 711 758 m 203 1051 l 632 1051 l 632 985 l 203 985 l 203 1051 z "},"ų":{"ha":850,"x_min":132,"x_max":711,"o":"m 711 758 l 711 0 q 606 -98 642 -56 q 571 -187 571 -140 q 588 -228 571 -212 q 639 -244 604 -244 q 711 -228 679 -244 l 711 -294 q 639 -310 676 -310 q 535 -278 571 -310 q 500 -194 500 -247 q 534 -97 500 -143 q 636 0 568 -51 l 636 92 q 519 13 583 43 q 394 -17 456 -17 q 196 56 260 -17 q 132 300 132 128 l 132 758 l 207 758 l 207 300 q 224 158 207 210 q 283 82 242 106 q 394 58 324 58 q 522 88 460 58 q 636 167 583 117 l 636 758 l 711 758 z "},"ů":{"ha":850,"x_min":132,"x_max":711,"o":"m 132 0 m 711 758 l 711 0 l 636 0 l 636 92 q 519 13 583 43 q 394 -17 456 -17 q 196 56 260 -17 q 132 300 132 128 l 132 758 l 207 758 l 207 300 q 224 158 207 210 q 283 82 242 106 q 394 58 324 58 q 522 88 460 58 q 636 167 583 117 l 636 758 l 711 758 m 418 889 q 326 926 364 889 q 289 1017 289 963 q 326 1107 289 1071 q 418 1143 363 1143 q 509 1107 472 1143 q 546 1017 546 1071 q 509 926 546 963 q 418 889 472 889 m 418 942 q 469 963 449 942 q 489 1017 489 983 q 469 1072 489 1051 q 418 1092 450 1092 q 367 1071 388 1092 q 346 1017 346 1050 q 367 963 346 983 q 418 942 388 942 z "},"v":{"ha":743,"x_min":28,"x_max":715,"o":"m 715 758 l 406 -12 l 339 -12 l 28 758 l 108 758 l 372 104 l 635 758 l 715 758 z "},"w":{"ha":1128,"x_min":28,"x_max":1100,"o":"m 1100 758 l 846 -12 l 779 -12 l 564 636 l 350 -12 l 283 -12 l 28 758 l 108 758 l 317 110 l 524 758 l 604 758 l 813 110 l 1019 758 l 1100 758 z "},"ẃ":{"ha":1128,"x_min":28,"x_max":1100,"o":"m 28 0 m 1100 758 l 846 -12 l 779 -12 l 564 636 l 350 -12 l 283 -12 l 28 758 l 108 758 l 317 110 l 524 758 l 604 758 l 813 110 l 1019 758 l 1100 758 m 668 1124 l 763 1124 l 594 911 l 518 911 l 668 1124 z "},"ŵ":{"ha":1128,"x_min":28,"x_max":1100,"o":"m 28 0 m 1100 758 l 846 -12 l 779 -12 l 564 636 l 350 -12 l 283 -12 l 28 758 l 108 758 l 317 110 l 524 758 l 604 758 l 813 110 l 1019 758 l 1100 758 m 674 911 l 563 1069 l 450 911 l 356 911 l 524 1124 l 600 1124 l 768 911 l 674 911 z "},"ẅ":{"ha":1128,"x_min":28,"x_max":1100,"o":"m 28 0 m 1100 758 l 846 -12 l 779 -12 l 564 636 l 350 -12 l 283 -12 l 28 758 l 108 758 l 317 110 l 524 758 l 604 758 l 813 110 l 1019 758 l 1100 758 m 660 1094 l 735 1094 l 735 940 l 660 940 l 660 1094 m 389 1094 l 464 1094 l 464 940 l 389 940 l 389 1094 z "},"ẁ":{"ha":1128,"x_min":28,"x_max":1100,"o":"m 28 0 m 1100 758 l 846 -12 l 779 -12 l 564 636 l 350 -12 l 283 -12 l 28 758 l 108 758 l 317 110 l 524 758 l 604 758 l 813 110 l 1019 758 l 1100 758 m 364 1124 l 458 1124 l 608 911 l 532 911 l 364 1124 z "},"x":{"ha":778,"x_min":58,"x_max":719,"o":"m 625 0 l 383 335 l 153 0 l 58 0 l 336 396 l 72 758 l 167 758 l 390 450 l 615 758 l 707 758 l 436 386 l 719 0 l 625 0 z "},"y":{"ha":743,"x_min":28,"x_max":715,"o":"m 715 758 l 361 -124 q 297 -272 318 -232 q 244 -330 276 -311 q 149 -349 213 -349 q 92 -343 119 -349 l 92 -268 q 156 -274 119 -274 q 206 -260 186 -274 q 240 -216 225 -246 q 283 -117 256 -186 l 332 4 l 28 758 l 108 758 l 372 104 l 635 758 l 715 758 z "},"ý":{"ha":743,"x_min":28,"x_max":715,"o":"m 28 0 m 715 758 l 361 -124 q 297 -272 318 -232 q 244 -330 276 -311 q 149 -349 213 -349 q 92 -343 119 -349 l 92 -268 q 156 -274 119 -274 q 206 -260 186 -274 q 240 -216 225 -246 q 283 -117 256 -186 l 332 4 l 28 758 l 108 758 l 372 104 l 635 758 l 715 758 m 476 1124 l 571 1124 l 403 911 l 326 911 l 476 1124 z "},"ŷ":{"ha":743,"x_min":28,"x_max":715,"o":"m 28 0 m 715 758 l 361 -124 q 297 -272 318 -232 q 244 -330 276 -311 q 149 -349 213 -349 q 92 -343 119 -349 l 92 -268 q 156 -274 119 -274 q 206 -260 186 -274 q 240 -216 225 -246 q 283 -117 256 -186 l 332 4 l 28 758 l 108 758 l 372 104 l 635 758 l 715 758 m 482 911 l 371 1069 l 258 911 l 164 911 l 332 1124 l 408 1124 l 576 911 l 482 911 z "},"ÿ":{"ha":743,"x_min":28,"x_max":715,"o":"m 28 0 m 715 758 l 361 -124 q 297 -272 318 -232 q 244 -330 276 -311 q 149 -349 213 -349 q 92 -343 119 -349 l 92 -268 q 156 -274 119 -274 q 206 -260 186 -274 q 240 -216 225 -246 q 283 -117 256 -186 l 332 4 l 28 758 l 108 758 l 372 104 l 635 758 l 715 758 m 468 1094 l 543 1094 l 543 940 l 468 940 l 468 1094 m 197 1094 l 272 1094 l 272 940 l 197 940 l 197 1094 z "},"ỳ":{"ha":743,"x_min":28,"x_max":715,"o":"m 28 0 m 715 758 l 361 -124 q 297 -272 318 -232 q 244 -330 276 -311 q 149 -349 213 -349 q 92 -343 119 -349 l 92 -268 q 156 -274 119 -274 q 206 -260 186 -274 q 240 -216 225 -246 q 283 -117 256 -186 l 332 4 l 28 758 l 108 758 l 372 104 l 635 758 l 715 758 m 172 1124 l 267 1124 l 417 911 l 340 911 l 172 1124 z "},"z":{"ha":718,"x_min":93,"x_max":635,"o":"m 635 72 l 635 0 l 93 0 l 93 72 l 518 686 l 118 686 l 118 758 l 604 758 l 604 686 l 181 72 l 635 72 z "},"ź":{"ha":718,"x_min":93,"x_max":635,"o":"m 93 0 m 635 72 l 635 0 l 93 0 l 93 72 l 518 686 l 118 686 l 118 758 l 604 758 l 604 686 l 181 72 l 635 72 m 449 1124 l 543 1124 l 375 911 l 299 911 l 449 1124 z "},"ž":{"ha":718,"x_min":93,"x_max":635,"o":"m 93 0 m 635 72 l 635 0 l 93 0 l 93 72 l 518 686 l 118 686 l 118 758 l 604 758 l 604 686 l 181 72 l 635 72 m 549 1124 l 381 911 l 304 911 l 136 1124 l 231 1124 l 343 965 l 454 1124 l 549 1124 z "},"ż":{"ha":718,"x_min":93,"x_max":635,"o":"m 93 0 m 635 72 l 635 0 l 93 0 l 93 72 l 518 686 l 118 686 l 118 758 l 604 758 l 604 686 l 181 72 l 635 72 m 307 1094 l 382 1094 l 382 940 l 307 940 l 307 1094 z "},"ﬁ":{"ha":767,"x_min":57,"x_max":628,"o":"m 57 0 m 315 1118 q 245 1097 264 1118 q 226 1017 226 1076 l 226 758 l 379 758 l 379 683 l 226 683 l 226 0 l 151 0 l 151 683 l 57 683 l 57 758 l 151 758 l 151 1025 q 190 1158 151 1122 q 322 1193 228 1193 q 379 1188 351 1193 l 379 1113 q 315 1118 351 1118 m 553 1122 l 628 1122 l 628 913 l 553 913 l 553 1122 m 553 758 l 628 758 l 628 0 l 553 0 l 553 758 z "},"ﬂ":{"ha":815,"x_min":57,"x_max":781,"o":"m 57 0 m 315 1118 q 245 1097 264 1118 q 226 1017 226 1076 l 226 758 l 379 758 l 379 683 l 226 683 l 226 0 l 151 0 l 151 683 l 57 683 l 57 758 l 151 758 l 151 1025 q 190 1158 151 1122 q 322 1193 228 1193 q 379 1188 351 1193 l 379 1113 q 315 1118 351 1118 m 724 -18 q 591 17 629 -18 q 553 150 553 53 l 553 1175 l 628 1175 l 628 158 q 647 78 628 99 q 717 57 665 57 q 781 63 753 57 l 781 -12 q 724 -18 753 -18 z "},"ª":{"ha":551,"x_min":50,"x_max":461,"o":"m 268 936 q 390 907 349 936 q 447 828 432 878 q 461 706 461 779 l 461 394 l 389 394 l 389 447 q 233 382 318 382 q 104 432 158 382 q 50 567 50 482 q 109 703 50 654 q 264 753 168 753 q 389 724 331 753 q 377 806 388 775 q 338 853 367 836 q 253 869 308 869 l 189 869 l 189 936 l 268 936 m 233 454 q 389 521 313 454 l 389 653 q 264 681 333 681 q 166 654 207 681 q 125 567 125 628 q 159 482 125 510 q 233 454 193 454 z "},"º":{"ha":718,"x_min":93,"x_max":625,"o":"m 360 382 q 216 420 276 382 q 124 524 156 458 q 93 669 93 589 q 124 815 93 750 q 216 917 156 879 q 360 956 276 956 q 503 917 443 956 q 594 815 563 879 q 625 669 625 750 q 594 524 625 589 q 503 420 563 458 q 360 382 443 382 m 360 457 q 501 516 456 457 q 547 669 547 575 q 501 822 547 763 q 360 881 456 881 q 217 822 264 881 q 171 669 171 763 q 217 516 171 575 q 360 457 264 457 z "},"ॲ":{"ha":989,"x_min":90,"x_max":1046,"o":"m 90 0 m 1003 881 l 1003 819 l 836 819 l 836 0 l 761 0 l 761 349 l 490 349 q 496 293 496 325 q 404 111 496 167 q 171 56 313 56 l 90 56 l 90 117 l 171 117 q 350 153 279 117 q 421 293 421 190 q 374 408 421 371 q 225 446 328 446 l 154 446 l 154 507 l 226 507 q 372 554 324 507 q 421 675 421 601 q 369 788 421 757 q 213 819 318 819 l 133 819 l 133 881 l 213 881 q 426 833 357 881 q 496 675 496 786 q 369 478 496 540 q 464 410 432 457 l 761 410 l 761 819 l 579 819 l 579 881 l 1003 881 m 797 986 q 616 1041 683 986 q 549 1193 549 1096 l 549 1207 l 610 1207 l 610 1193 q 657 1085 610 1124 q 797 1047 704 1047 q 938 1085 890 1047 q 985 1193 985 1124 l 985 1207 l 1046 1207 l 1046 1193 q 978 1041 1046 1096 q 797 986 911 986 z "},"ऄ":{"ha":989,"x_min":81,"x_max":1003,"o":"m 1003 881 l 1003 819 l 836 819 l 836 0 l 761 0 l 761 349 l 490 349 q 496 293 496 325 q 404 111 496 167 q 171 56 313 56 l 90 56 l 90 117 l 171 117 q 350 153 279 117 q 421 293 421 190 q 374 408 421 371 q 225 446 328 446 l 154 446 l 154 507 l 226 507 q 372 554 324 507 q 421 675 421 601 q 369 788 421 757 q 213 819 318 819 l 133 819 l 133 881 l 213 881 q 426 833 357 881 q 496 675 496 786 q 369 478 496 540 q 464 410 432 457 l 761 410 l 761 819 l 579 819 l 579 881 l 761 881 l 761 936 q 748 1032 761 997 q 695 1084 735 1067 q 578 1101 656 1101 l 346 1101 q 184 1125 242 1101 q 103 1197 126 1149 q 81 1328 81 1246 l 81 1349 l 156 1349 l 156 1328 q 167 1231 156 1264 q 219 1180 178 1197 q 346 1163 260 1163 l 578 1163 q 742 1139 686 1163 q 817 1067 797 1115 q 836 936 836 1019 l 836 881 l 1003 881 z "},"अ":{"ha":989,"x_min":90,"x_max":1003,"o":"m 1003 881 l 1003 819 l 836 819 l 836 0 l 761 0 l 761 349 l 490 349 q 496 293 496 325 q 404 111 496 167 q 171 56 313 56 l 90 56 l 90 117 l 171 117 q 350 153 279 117 q 421 293 421 190 q 374 408 421 371 q 225 446 328 446 l 154 446 l 154 507 l 226 507 q 372 554 324 507 q 421 675 421 601 q 369 788 421 757 q 213 819 318 819 l 133 819 l 133 881 l 213 881 q 426 833 357 881 q 496 675 496 786 q 369 478 496 540 q 464 410 432 457 l 761 410 l 761 819 l 579 819 l 579 881 l 1003 881 z "},"आ":{"ha":1369,"x_min":90,"x_max":1383,"o":"m 1383 819 l 1217 819 l 1217 0 l 1142 0 l 1142 819 l 836 819 l 836 0 l 761 0 l 761 349 l 490 349 q 496 293 496 325 q 404 111 496 167 q 171 56 313 56 l 90 56 l 90 117 l 171 117 q 350 153 279 117 q 421 293 421 190 q 374 408 421 371 q 225 446 328 446 l 154 446 l 154 507 l 226 507 q 372 554 324 507 q 421 675 421 601 q 369 788 421 757 q 213 819 318 819 l 133 819 l 133 881 l 213 881 q 426 833 357 881 q 496 675 496 786 q 369 478 496 540 q 464 410 432 457 l 761 410 l 761 819 l 579 819 l 579 881 l 1383 881 l 1383 819 z "},"इ":{"ha":697,"x_min":-14,"x_max":711,"o":"m 301 592 q 207 572 238 592 q 176 497 176 551 q 188 439 176 464 q 218 403 200 414 l 399 403 q 567 357 507 403 q 626 218 626 311 q 567 80 626 128 q 399 32 507 32 l 378 32 q 176 74 267 32 l 176 -76 l 101 -76 l 101 242 l 176 242 l 176 144 q 378 93 268 93 l 399 93 q 511 122 471 93 q 551 213 551 151 q 514 313 551 283 q 399 342 476 342 l 182 342 q 127 406 153 364 q 101 497 101 447 q 150 617 101 581 q 301 653 199 653 l 454 653 l 454 819 l -14 819 l -14 881 l 711 881 l 711 819 l 529 819 l 529 592 l 301 592 z "},"ई":{"ha":697,"x_min":-14,"x_max":711,"o":"m 301 592 q 207 572 238 592 q 176 497 176 551 q 188 439 176 464 q 218 403 200 414 l 399 403 q 567 357 507 403 q 626 218 626 311 q 567 80 626 128 q 399 32 507 32 l 378 32 q 176 74 267 32 l 176 -76 l 101 -76 l 101 242 l 176 242 l 176 144 q 378 93 268 93 l 399 93 q 511 122 471 93 q 551 213 551 151 q 514 313 551 283 q 399 342 476 342 l 182 342 q 127 406 153 364 q 101 497 101 447 q 150 617 101 581 q 301 653 199 653 l 454 653 l 454 819 l -14 819 l -14 881 l 449 881 q 393 1090 393 999 q 453 1240 393 1199 q 589 1281 514 1281 q 675 1265 639 1281 l 675 1200 q 589 1219 636 1219 q 468 1090 468 1219 q 483 990 468 1039 q 525 881 497 940 l 711 881 l 711 819 l 529 819 l 529 592 l 301 592 z "},"उ":{"ha":765,"x_min":-14,"x_max":779,"o":"m 779 819 l 610 819 q 648 760 635 794 q 661 674 661 726 q 630 556 661 604 q 533 476 599 508 q 629 392 597 453 q 661 251 661 332 q 378 0 661 0 q 94 251 94 0 l 94 321 l 169 321 l 169 251 q 224 101 169 140 q 378 61 279 61 q 531 101 476 61 q 586 251 586 140 q 540 397 586 349 q 390 446 493 446 l 292 446 l 292 507 l 392 507 q 538 554 489 507 q 586 674 586 601 q 566 759 586 729 q 496 819 546 789 l -14 819 l -14 881 l 779 881 l 779 819 z "},"ऊ":{"ha":1119,"x_min":-14,"x_max":1133,"o":"m 1133 819 l 610 819 q 648 760 635 794 q 661 674 661 726 q 630 556 661 604 q 533 476 599 508 q 633 383 600 453 q 721 430 676 414 q 822 446 765 446 q 998 397 942 446 q 1054 224 1054 349 q 997 51 1054 103 q 822 0 939 0 l 806 0 q 761 2 785 0 q 722 7 738 4 l 722 69 q 806 61 760 61 l 822 61 q 940 96 901 61 q 979 224 979 131 q 943 344 979 304 q 822 385 907 385 q 728 369 767 385 q 654 324 689 353 q 661 251 661 286 q 378 0 661 0 q 94 251 94 0 l 94 321 l 169 321 l 169 251 q 224 101 169 140 q 378 61 279 61 q 531 101 476 61 q 586 251 586 140 q 540 397 586 349 q 390 446 493 446 l 292 446 l 292 507 l 392 507 q 538 554 489 507 q 586 674 586 601 q 566 759 586 729 q 496 819 546 789 l -14 819 l -14 881 l 1133 881 l 1133 819 z "},"ऋ":{"ha":1147,"x_min":-14,"x_max":1161,"o":"m 611 819 l 611 474 l 847 474 l 847 663 l 922 663 l 922 471 q 1039 349 996 411 q 1082 218 1082 288 q 1010 56 1082 111 q 822 0 938 0 l 781 0 l 781 61 l 822 61 q 956 101 904 61 q 1007 218 1007 140 q 975 322 1007 275 q 882 413 943 369 l 611 413 l 611 0 l 536 0 l 536 351 l 142 0 l 96 51 l 535 442 q 413 536 469 508 q 293 564 357 564 q 212 553 263 564 q 115 532 161 543 l 83 524 l 83 594 q 144 608 96 597 q 231 626 192 619 q 293 633 269 633 q 415 608 363 633 q 536 522 468 583 l 536 819 l -14 819 l -14 881 l 1161 881 l 1161 819 l 611 819 z "},"ॠ":{"ha":1106,"x_min":-14,"x_max":1178,"o":"m 1039 -204 q 1178 -161 1117 -204 l 1178 -232 q 1039 -265 1117 -265 q 890 -230 938 -265 q 842 -117 842 -194 q 885 -8 842 -47 q 807 113 807 24 q 833 205 807 171 q 918 249 858 239 l 835 413 l 611 413 l 611 0 l 536 0 l 536 351 l 142 0 l 96 51 l 535 442 q 413 536 469 508 q 293 564 357 564 q 212 553 263 564 q 115 532 161 543 l 83 524 l 83 594 q 144 608 96 597 q 231 626 192 619 q 293 633 269 633 q 415 608 363 633 q 536 522 468 583 l 536 819 l -14 819 l -14 881 l 1119 881 l 1119 819 l 611 819 l 611 474 l 806 474 l 806 663 l 881 663 l 881 471 l 992 254 q 1053 247 1025 254 l 1053 186 q 983 193 1022 193 q 905 173 928 193 q 882 113 882 153 q 910 51 882 71 q 1018 32 939 32 l 1081 32 l 1081 -29 l 1025 -29 q 917 -117 917 -29 q 948 -184 917 -164 q 1039 -204 979 -204 z "},"ऌ":{"ha":1068,"x_min":-14,"x_max":1082,"o":"m 790 819 l 790 596 q 924 534 876 586 q 972 410 972 482 q 938 281 972 338 q 838 156 903 225 q 770 76 792 107 q 749 14 749 46 q 778 -50 749 -26 q 875 -74 808 -74 q 960 -56 915 -74 q 1038 -15 1004 -39 l 1038 -85 q 964 -122 1003 -110 q 875 -135 925 -135 q 727 -92 781 -135 q 674 13 674 -49 q 699 97 674 58 q 776 190 725 136 q 867 299 836 251 q 897 410 897 347 q 860 504 897 472 q 753 536 822 536 q 626 482 669 536 q 581 329 583 428 l 581 275 l 506 275 l 506 329 q 460 482 503 428 q 333 536 417 536 q 207 482 250 536 q 161 329 164 428 q 226 135 165 210 q 444 61 286 61 l 461 61 l 461 0 l 444 0 q 169 95 253 0 q 86 329 86 190 q 149 524 86 451 q 333 597 213 597 q 460 569 407 597 q 543 488 513 540 q 715 596 597 582 l 715 819 l -14 819 l -14 881 l 1082 881 l 1082 819 l 790 819 z "},"ॡ":{"ha":1068,"x_min":-14,"x_max":1082,"o":"m 790 819 l 790 596 q 924 534 876 586 q 972 410 972 482 q 938 281 972 338 q 838 156 903 225 q 770 76 792 107 q 749 14 749 46 q 778 -50 749 -26 q 875 -74 808 -74 q 947 -61 904 -74 l 947 -126 q 876 -135 914 -135 q 828 -132 858 -135 q 783 -222 783 -164 q 815 -290 783 -269 q 906 -310 846 -310 q 1044 -267 983 -310 l 1044 -337 q 906 -371 983 -371 q 756 -335 804 -371 q 708 -222 708 -300 q 756 -110 708 -149 q 694 -57 715 -89 q 674 13 674 -25 q 699 98 674 60 q 778 190 725 136 q 867 299 836 251 q 897 410 897 347 q 860 504 897 472 q 753 536 822 536 q 626 482 669 536 q 581 329 583 428 l 581 275 l 506 275 l 506 329 q 460 482 503 428 q 333 536 417 536 q 207 482 250 536 q 161 329 164 428 q 226 135 165 210 q 444 61 286 61 l 461 61 l 461 0 l 444 0 q 169 95 253 0 q 86 329 86 190 q 149 524 86 451 q 333 597 213 597 q 460 569 407 597 q 543 488 513 540 q 715 596 597 582 l 715 819 l -14 819 l -14 881 l 1082 881 l 1082 819 l 790 819 z "},"ऍ":{"ha":790,"x_min":-14,"x_max":804,"o":"m 0 56 m 449 411 q 528 422 499 413 q 572 463 557 432 q 588 554 588 494 l 588 819 l 228 819 l 228 410 q 273 211 228 275 q 386 132 318 147 q 568 117 454 117 l 676 117 l 676 56 l 568 56 q 345 81 433 56 q 205 184 257 107 q 153 410 153 261 l 153 819 l -14 819 l -14 881 l 804 881 l 804 819 l 663 819 l 663 554 q 611 396 663 440 q 449 350 560 351 l 418 350 l 418 411 l 449 411 m 415 986 q 234 1041 301 986 q 167 1193 167 1096 l 167 1207 l 228 1207 l 228 1193 q 275 1085 228 1124 q 415 1047 322 1047 q 556 1085 508 1047 q 603 1193 603 1124 l 603 1207 l 664 1207 l 664 1193 q 597 1041 664 1096 q 415 986 529 986 z "},"ऎ":{"ha":790,"x_min":-93,"x_max":804,"o":"m 449 411 q 528 422 499 413 q 572 463 557 432 q 588 554 588 494 l 588 819 l 228 819 l 228 410 q 273 211 228 275 q 386 132 318 147 q 568 117 454 117 l 676 117 l 676 56 l 568 56 q 345 81 433 56 q 205 184 257 107 q 153 410 153 261 l 153 819 l -14 819 l -14 881 l 588 881 l 588 936 q 574 1032 588 997 q 522 1084 561 1067 q 404 1101 482 1101 l 172 1101 q 10 1125 68 1101 q -70 1197 -47 1149 q -93 1328 -93 1246 l -93 1349 l -18 1349 l -18 1328 q -7 1231 -18 1264 q 45 1180 4 1197 q 172 1163 86 1163 l 404 1163 q 568 1139 513 1163 q 643 1067 624 1115 q 663 936 663 1019 l 663 881 l 804 881 l 804 819 l 663 819 l 663 554 q 611 396 663 440 q 449 350 560 351 l 418 350 l 418 411 l 449 411 z "},"ए":{"ha":790,"x_min":-14,"x_max":804,"o":"m 449 411 q 528 422 499 413 q 572 463 557 432 q 588 554 588 494 l 588 819 l 228 819 l 228 410 q 273 211 228 275 q 386 132 318 147 q 568 117 454 117 l 676 117 l 676 56 l 568 56 q 345 81 433 56 q 205 184 257 107 q 153 410 153 261 l 153 819 l -14 819 l -14 881 l 804 881 l 804 819 l 663 819 l 663 554 q 611 396 663 440 q 449 350 560 351 l 418 350 l 418 411 l 449 411 z "},"ऐ":{"ha":790,"x_min":-14,"x_max":804,"o":"m 449 411 q 528 422 499 413 q 572 463 557 432 q 588 554 588 494 l 588 819 l 228 819 l 228 410 q 273 211 228 275 q 386 132 318 147 q 568 117 454 117 l 676 117 l 676 56 l 568 56 q 345 81 433 56 q 205 184 257 107 q 153 410 153 261 l 153 819 l -14 819 l -14 881 l 586 881 l 543 1068 q 490 1167 526 1140 q 375 1193 453 1193 l 271 1193 l 271 1254 l 375 1254 q 495 1240 450 1254 q 570 1186 540 1226 q 618 1068 600 1146 l 661 881 l 804 881 l 804 819 l 663 819 l 663 554 q 611 396 663 440 q 449 350 560 351 l 418 350 l 418 411 l 449 411 z "},"ऑ":{"ha":1369,"x_min":90,"x_max":1426,"o":"m 90 0 m 1383 819 l 1217 819 l 1217 0 l 1142 0 l 1142 819 l 836 819 l 836 0 l 761 0 l 761 349 l 490 349 q 496 293 496 325 q 404 111 496 167 q 171 56 313 56 l 90 56 l 90 117 l 171 117 q 350 153 279 117 q 421 293 421 190 q 374 408 421 371 q 225 446 328 446 l 154 446 l 154 507 l 226 507 q 372 554 324 507 q 421 675 421 601 q 369 788 421 757 q 213 819 318 819 l 133 819 l 133 881 l 213 881 q 426 833 357 881 q 496 675 496 786 q 369 478 496 540 q 464 410 432 457 l 761 410 l 761 819 l 579 819 l 579 881 l 1383 881 l 1383 819 m 1178 986 q 997 1041 1064 986 q 929 1193 929 1096 l 929 1207 l 990 1207 l 990 1193 q 1038 1085 990 1124 q 1178 1047 1085 1047 q 1318 1085 1271 1047 q 1365 1193 1365 1124 l 1365 1207 l 1426 1207 l 1426 1193 q 1359 1041 1426 1096 q 1178 986 1292 986 z "},"ऒ":{"ha":1369,"x_min":90,"x_max":1383,"o":"m 1383 819 l 1217 819 l 1217 0 l 1142 0 l 1142 819 l 836 819 l 836 0 l 761 0 l 761 349 l 490 349 q 496 293 496 325 q 404 111 496 167 q 171 56 313 56 l 90 56 l 90 117 l 171 117 q 350 153 279 117 q 421 293 421 190 q 374 408 421 371 q 225 446 328 446 l 154 446 l 154 507 l 226 507 q 372 554 324 507 q 421 675 421 601 q 369 788 421 757 q 213 819 318 819 l 133 819 l 133 881 l 213 881 q 426 833 357 881 q 496 675 496 786 q 369 478 496 540 q 464 410 432 457 l 761 410 l 761 819 l 579 819 l 579 881 l 1142 881 l 1142 936 q 1128 1032 1142 997 q 1076 1084 1115 1067 q 958 1101 1036 1101 l 726 1101 q 565 1125 622 1101 q 484 1197 507 1149 q 461 1328 461 1246 l 461 1349 l 536 1349 l 536 1328 q 547 1231 536 1264 q 599 1180 558 1197 q 726 1163 640 1163 l 958 1163 q 1122 1139 1067 1163 q 1197 1067 1178 1115 q 1217 936 1217 1019 l 1217 881 l 1383 881 l 1383 819 z "},"ओ":{"ha":1369,"x_min":90,"x_max":1383,"o":"m 1383 819 l 1217 819 l 1217 0 l 1142 0 l 1142 819 l 836 819 l 836 0 l 761 0 l 761 349 l 490 349 q 496 293 496 325 q 404 111 496 167 q 171 56 313 56 l 90 56 l 90 117 l 171 117 q 350 153 279 117 q 421 293 421 190 q 374 408 421 371 q 225 446 328 446 l 154 446 l 154 507 l 226 507 q 372 554 324 507 q 421 675 421 601 q 369 788 421 757 q 213 819 318 819 l 133 819 l 133 881 l 213 881 q 426 833 357 881 q 496 675 496 786 q 369 478 496 540 q 464 410 432 457 l 761 410 l 761 819 l 579 819 l 579 881 l 1140 881 l 1097 1068 q 1044 1167 1081 1140 q 929 1193 1007 1193 l 825 1193 l 825 1254 l 929 1254 q 1049 1240 1004 1254 q 1124 1186 1094 1226 q 1172 1068 1154 1146 l 1215 881 l 1383 881 l 1383 819 z "},"औ":{"ha":1369,"x_min":90,"x_max":1383,"o":"m 1383 819 l 1217 819 l 1217 0 l 1142 0 l 1142 819 l 836 819 l 836 0 l 761 0 l 761 349 l 490 349 q 496 293 496 325 q 404 111 496 167 q 171 56 313 56 l 90 56 l 90 117 l 171 117 q 350 153 279 117 q 421 293 421 190 q 374 408 421 371 q 225 446 328 446 l 154 446 l 154 507 l 226 507 q 372 554 324 507 q 421 675 421 601 q 369 788 421 757 q 213 819 318 819 l 133 819 l 133 881 l 213 881 q 426 833 357 881 q 496 675 496 786 q 369 478 496 540 q 464 410 432 457 l 761 410 l 761 819 l 579 819 l 579 881 l 1132 881 l 1060 971 q 990 1044 1022 1018 q 912 1084 958 1071 q 793 1097 865 1097 l 675 1097 l 675 1158 l 793 1158 q 938 1144 885 1158 q 1026 1097 990 1129 q 1114 994 1063 1064 l 1072 1181 q 1019 1279 1056 1253 q 904 1306 982 1306 l 800 1306 l 800 1367 l 904 1367 q 1024 1353 979 1367 q 1099 1299 1069 1339 q 1147 1181 1129 1258 l 1215 881 l 1383 881 l 1383 819 z "},"ॳ":{"ha":989,"x_min":90,"x_max":1003,"o":"m 1003 881 l 1003 819 l 836 819 l 836 0 l 761 0 l 761 349 l 490 349 q 496 293 496 325 q 404 111 496 167 q 171 56 313 56 l 90 56 l 90 117 l 171 117 q 350 153 279 117 q 421 293 421 190 q 374 408 421 371 q 225 446 328 446 l 154 446 l 154 507 l 226 507 q 372 554 324 507 q 421 675 421 601 q 369 788 421 757 q 213 819 318 819 l 133 819 l 133 881 l 213 881 q 426 833 357 881 q 496 675 496 786 q 369 478 496 540 q 464 410 432 457 l 761 410 l 761 819 l 579 819 l 579 881 l 761 881 l 761 1254 l 836 1254 l 836 881 l 1003 881 z "},"ॴ":{"ha":1369,"x_min":90,"x_max":1383,"o":"m 1383 819 l 1217 819 l 1217 0 l 1142 0 l 1142 819 l 836 819 l 836 0 l 761 0 l 761 349 l 490 349 q 496 293 496 325 q 404 111 496 167 q 171 56 313 56 l 90 56 l 90 117 l 171 117 q 350 153 279 117 q 421 293 421 190 q 374 408 421 371 q 225 446 328 446 l 154 446 l 154 507 l 226 507 q 372 554 324 507 q 421 675 421 601 q 369 788 421 757 q 213 819 318 819 l 133 819 l 133 881 l 213 881 q 426 833 357 881 q 496 675 496 786 q 369 478 496 540 q 464 410 432 457 l 761 410 l 761 819 l 579 819 l 579 881 l 1142 881 l 1142 1254 l 1217 1254 l 1217 881 l 1383 881 l 1383 819 z "},"ॶ":{"ha":989,"x_min":90,"x_max":1003,"o":"m 90 0 m 1003 881 l 1003 819 l 836 819 l 836 0 l 761 0 l 761 349 l 490 349 q 496 293 496 325 q 404 111 496 167 q 171 56 313 56 l 90 56 l 90 117 l 171 117 q 350 153 279 117 q 421 293 421 190 q 374 408 421 371 q 225 446 328 446 l 154 446 l 154 507 l 226 507 q 372 554 324 507 q 421 675 421 601 q 369 788 421 757 q 213 819 318 819 l 133 819 l 133 881 l 213 881 q 426 833 357 881 q 496 675 496 786 q 369 478 496 540 q 464 410 432 457 l 761 410 l 761 819 l 579 819 l 579 881 l 1003 881 m 492 -264 q 317 -220 392 -264 q 197 -106 242 -176 l 242 -71 q 492 -203 335 -201 q 742 -71 649 -201 l 786 -106 q 667 -219 742 -175 q 492 -264 592 -264 z "},"ॷ":{"ha":989,"x_min":90,"x_max":1003,"o":"m 90 0 m 1003 881 l 1003 819 l 836 819 l 836 0 l 761 0 l 761 349 l 490 349 q 496 293 496 325 q 404 111 496 167 q 171 56 313 56 l 90 56 l 90 117 l 171 117 q 350 153 279 117 q 421 293 421 190 q 374 408 421 371 q 225 446 328 446 l 154 446 l 154 507 l 226 507 q 372 554 324 507 q 421 675 421 601 q 369 788 421 757 q 213 819 318 819 l 133 819 l 133 881 l 213 881 q 426 833 357 881 q 496 675 496 786 q 369 478 496 540 q 464 410 432 457 l 761 410 l 761 819 l 579 819 l 579 881 l 1003 881 m 492 -264 q 317 -220 392 -264 q 197 -106 242 -176 l 242 -71 q 492 -203 335 -201 q 742 -71 649 -201 l 786 -106 q 667 -219 742 -175 q 492 -264 592 -264 m 492 -486 q 317 -442 392 -486 q 197 -328 242 -399 l 242 -293 q 492 -425 335 -424 q 742 -293 649 -424 l 786 -328 q 667 -442 742 -397 q 492 -486 592 -486 z "},"ा":{"ha":381,"x_min":-14,"x_max":394,"o":"m 394 819 l 228 819 l 228 0 l 153 0 l 153 819 l -14 819 l -14 881 l 394 881 l 394 819 z "},"ि":{"ha":381,"x_min":-14,"x_max":971,"o":"m 574 1282 q 799 1252 713 1282 q 927 1153 885 1222 q 971 965 969 1085 l 971 844 l 896 844 l 896 965 q 858 1132 896 1076 q 753 1204 821 1188 q 574 1221 686 1221 l 551 1221 q 371 1204 438 1221 q 267 1132 304 1188 q 229 965 229 1076 l 229 881 l 396 881 l 396 819 l 229 819 l 229 0 l 154 0 l 154 819 l -14 819 l -14 881 l 154 881 l 154 965 q 197 1153 154 1085 q 325 1252 239 1222 q 551 1282 411 1282 l 574 1282 z "},"ी":{"ha":381,"x_min":-228,"x_max":394,"o":"m 394 819 l 228 819 l 228 0 l 153 0 l 153 819 l -14 819 l -14 881 l 153 881 l 153 1007 q 138 1147 153 1100 q 94 1207 122 1193 q 15 1221 65 1221 l -15 1221 q -94 1207 -65 1221 q -137 1147 -122 1193 q -153 1007 -153 1100 l -153 844 l -228 844 l -228 1007 q -206 1171 -228 1111 q -139 1256 -185 1231 q -15 1282 -93 1282 l 15 1282 q 138 1256 92 1282 q 206 1171 183 1231 q 228 1007 228 1111 l 228 881 l 394 881 l 394 819 z "},"ॉ":{"ha":381,"x_min":-60,"x_max":438,"o":"m 0 0 m 394 819 l 228 819 l 228 0 l 153 0 l 153 819 l -14 819 l -14 881 l 394 881 l 394 819 m 189 986 q 8 1041 75 986 q -60 1193 -60 1096 l -60 1207 l 1 1207 l 1 1193 q 49 1085 1 1124 q 189 1047 96 1047 q 329 1085 282 1047 q 376 1193 376 1124 l 376 1207 l 438 1207 l 438 1193 q 370 1041 438 1096 q 189 986 303 986 z "},"ॊ":{"ha":381,"x_min":-528,"x_max":394,"o":"m 394 819 l 228 819 l 228 0 l 153 0 l 153 819 l -14 819 l -14 881 l 153 881 l 153 936 q 140 1032 153 997 q 87 1084 126 1067 q -31 1101 47 1101 l -262 1101 q -424 1125 -367 1101 q -505 1197 -482 1149 q -528 1328 -528 1246 l -528 1349 l -453 1349 l -453 1328 q -442 1231 -453 1264 q -390 1180 -431 1197 q -262 1163 -349 1163 l -31 1163 q 133 1139 78 1163 q 208 1067 189 1115 q 228 936 228 1019 l 228 881 l 394 881 l 394 819 z "},"ो":{"ha":381,"x_min":-164,"x_max":394,"o":"m 394 819 l 228 819 l 228 0 l 153 0 l 153 819 l -14 819 l -14 881 l 151 881 l 108 1068 q 55 1167 92 1140 q -60 1193 18 1193 l -164 1193 l -164 1254 l -60 1254 q 60 1240 15 1254 q 135 1186 106 1226 q 183 1068 165 1146 l 226 881 l 394 881 l 394 819 z "},"ौ":{"ha":381,"x_min":-314,"x_max":394,"o":"m 394 819 l 228 819 l 228 0 l 153 0 l 153 819 l -14 819 l -14 881 l 143 881 l 71 971 q 1 1044 33 1018 q -77 1084 -31 1071 q -196 1097 -124 1097 l -314 1097 l -314 1158 l -196 1158 q -51 1144 -104 1158 q 38 1097 1 1129 q 125 994 74 1064 l 83 1181 q 30 1279 67 1253 q -85 1306 -7 1306 l -189 1306 l -189 1367 l -85 1367 q 35 1353 -10 1367 q 110 1299 81 1339 q 158 1181 140 1258 l 226 881 l 394 881 l 394 819 z "},"ॎ":{"ha":343,"x_min":115,"x_max":357,"o":"m 357 819 l 190 819 l 190 0 l 115 0 l 115 881 l 357 881 l 357 819 z "},"ऻ":{"ha":381,"x_min":-14,"x_max":394,"o":"m 394 819 l 228 819 l 228 0 l 153 0 l 153 819 l -14 819 l -14 881 l 153 881 l 153 1254 l 228 1254 l 228 881 l 394 881 l 394 819 z "},"क":{"ha":1106,"x_min":-14,"x_max":1119,"o":"m 590 819 l 590 558 q 760 596 657 596 l 785 596 q 979 550 918 594 q 1040 392 1040 506 q 978 234 1040 281 q 785 188 917 188 l 768 188 q 724 190 747 188 q 685 194 700 192 l 685 257 q 768 249 722 249 l 785 249 q 922 278 878 249 q 965 392 965 307 q 945 483 965 451 q 887 524 925 514 q 785 535 849 533 l 760 535 q 590 492 663 535 l 590 0 l 515 0 l 515 225 q 346 188 449 188 l 321 188 q 126 233 188 189 q 65 392 65 278 q 127 549 65 503 q 321 596 189 596 l 338 596 q 382 594 358 596 q 421 589 406 592 l 421 526 q 338 535 383 535 l 321 535 q 184 506 228 535 q 140 392 140 476 q 160 301 140 332 q 219 260 181 269 q 321 249 257 250 l 346 249 q 515 292 443 249 l 515 819 l -14 819 l -14 881 l 1119 881 l 1119 819 l 590 819 z "},"ख":{"ha":1103,"x_min":-14,"x_max":1117,"o":"m 1117 819 l 950 819 l 950 0 l 875 0 l 875 263 q 747 243 822 243 l 722 243 q 564 284 619 243 q 508 419 508 325 q 562 553 508 510 q 694 596 615 596 l 711 596 q 781 590 750 596 l 781 529 q 711 535 746 535 l 694 535 q 583 419 583 535 q 617 327 583 350 q 722 304 650 304 l 747 304 q 875 326 821 304 l 875 819 l 439 819 l 439 549 q 374 400 439 442 q 169 358 310 358 l 161 358 l 161 271 q 183 145 161 190 q 251 81 204 100 q 379 61 299 61 l 608 61 l 608 0 l 379 0 q 162 58 238 0 q 86 271 86 115 l 86 596 l 161 596 l 161 419 l 169 419 q 278 428 238 419 q 342 465 319 438 q 364 549 364 493 l 364 819 l -14 819 l -14 881 l 1117 881 l 1117 819 z "},"ग":{"ha":806,"x_min":-14,"x_max":819,"o":"m 819 819 l 653 819 l 653 0 l 578 0 l 578 819 l 292 819 l 293 403 q 269 310 293 342 q 197 278 246 278 q 56 397 108 278 l 115 426 q 152 362 135 385 q 190 339 169 339 q 213 353 207 339 q 218 403 218 368 l 217 819 l -14 819 l -14 881 l 819 881 l 819 819 z "},"घ":{"ha":821,"x_min":-14,"x_max":835,"o":"m 835 881 l 835 819 l 668 819 l 668 0 l 593 0 l 593 215 q 424 183 522 183 l 399 183 q 204 229 265 185 q 143 388 143 274 q 215 553 143 506 q 123 615 153 572 q 93 729 93 658 q 107 819 93 782 l -14 819 l -14 881 l 835 881 m 424 244 q 593 288 524 244 l 593 819 l 190 819 q 168 729 168 790 q 194 642 168 671 q 269 602 221 613 q 399 592 317 592 l 439 592 l 439 531 l 399 531 q 262 501 306 531 q 218 388 218 472 q 238 297 218 328 q 297 256 258 265 q 399 244 335 246 l 424 244 z "},"ङ":{"ha":826,"x_min":-14,"x_max":840,"o":"m 840 881 l 840 819 l 529 819 l 529 560 l 292 560 q 197 540 228 560 q 167 465 167 519 q 178 407 167 432 q 208 371 190 382 l 389 371 q 557 325 497 371 q 617 186 617 279 q 557 48 617 96 q 389 0 497 0 l 368 0 q 190 22 268 0 q 43 88 111 43 l 74 143 q 209 81 139 101 q 368 61 279 61 l 389 61 q 501 90 461 61 q 542 181 542 119 q 504 281 542 251 q 389 310 467 310 l 172 310 q 117 374 143 332 q 92 465 92 415 q 140 585 92 549 q 292 621 189 621 l 454 621 l 454 819 l -14 819 l -14 881 l 840 881 m 710 518 l 789 439 l 710 361 l 631 439 l 710 518 z "},"च":{"ha":842,"x_min":-14,"x_max":856,"o":"m 856 881 l 856 819 l 689 819 l 689 0 l 614 0 l 614 203 q 444 165 547 165 l 419 165 q 211 214 278 165 q 144 385 144 263 q 201 550 144 497 l 33 550 l 33 611 l 479 611 l 479 550 l 313 550 q 243 490 267 528 q 219 385 219 451 q 243 283 219 318 q 309 238 267 249 q 419 226 351 226 l 444 226 q 614 269 542 226 l 614 819 l -14 819 l -14 881 l 856 881 z "},"छ":{"ha":975,"x_min":-14,"x_max":989,"o":"m 822 819 l 822 701 q 864 604 864 672 l 864 438 q 757 130 864 225 q 490 35 650 35 l 465 35 q 233 93 325 35 q 140 281 140 151 q 162 400 140 353 q 226 476 183 447 q 126 539 158 496 q 93 657 93 582 q 164 819 93 758 l -14 819 l -14 881 l 989 881 l 989 819 l 822 819 m 747 819 l 289 819 q 168 657 168 772 q 194 569 168 599 q 270 529 221 539 q 406 519 319 519 l 439 519 l 439 458 l 424 458 q 266 421 317 458 q 215 281 215 383 q 288 135 215 175 q 465 96 360 96 l 490 96 q 703 172 617 96 q 789 438 789 249 l 789 604 q 778 647 789 635 q 739 660 768 660 q 700 647 711 660 q 689 604 689 633 l 689 458 l 614 458 l 614 604 q 643 691 614 661 q 739 721 672 721 l 747 721 l 747 819 z "},"ज":{"ha":897,"x_min":-14,"x_max":911,"o":"m 911 881 l 911 819 l 744 819 l 744 0 l 669 0 l 669 521 l 504 521 l 504 406 q 456 217 504 276 q 285 157 407 157 q 116 217 167 157 q 65 406 65 278 l 65 582 l 140 582 l 140 406 q 172 265 140 311 q 285 218 204 218 q 376 239 344 218 q 418 299 407 260 q 429 406 429 339 l 429 582 l 669 582 l 669 819 l -14 819 l -14 881 l 911 881 z "},"झ":{"ha":1017,"x_min":-14,"x_max":1031,"o":"m 1031 819 l 864 819 l 864 0 l 789 0 l 789 289 l 582 289 q 585 246 585 261 q 530 108 585 156 q 378 60 475 60 l 357 60 q 176 92 261 60 l 176 -49 l 101 -49 l 101 269 l 176 269 l 176 161 q 357 121 254 121 l 378 121 q 475 150 440 121 q 510 239 510 179 q 476 340 510 310 q 378 369 443 369 l 182 369 q 127 433 153 392 q 101 525 101 475 q 150 644 101 608 q 301 681 199 681 l 413 681 l 413 819 l -14 819 l -14 881 l 1031 881 l 1031 819 m 789 819 l 488 819 l 488 619 l 301 619 q 207 599 238 619 q 176 525 176 579 q 188 467 176 492 q 218 431 200 442 l 378 431 q 560 350 510 431 l 789 350 l 789 819 z "},"ञ":{"ha":783,"x_min":-14,"x_max":797,"o":"m 797 881 l 797 819 l 631 819 l 631 0 l 556 0 l 556 369 l 394 369 q 326 207 389 257 q 140 157 263 157 l 53 157 l 53 218 l 140 218 q 276 258 232 218 q 321 397 321 297 q 301 508 321 469 q 242 562 281 547 q 140 576 203 576 l 53 576 l 53 638 l 140 638 q 326 590 264 638 q 394 431 388 543 l 556 431 l 556 819 l -14 819 l -14 881 l 797 881 z "},"ट":{"ha":707,"x_min":-14,"x_max":721,"o":"m 371 578 q 255 559 300 578 q 185 489 210 540 q 161 343 161 438 q 183 197 161 247 q 247 127 206 146 q 357 108 289 108 l 383 108 q 491 125 450 108 q 553 183 532 142 q 574 301 574 225 l 574 343 l 649 343 l 649 301 q 585 107 649 167 q 383 47 521 47 l 357 47 q 151 114 217 47 q 86 343 86 181 q 156 572 86 504 q 371 639 225 639 l 479 639 l 479 819 l -14 819 l -14 881 l 721 881 l 721 819 l 554 819 l 554 578 l 371 578 z "},"ठ":{"ha":743,"x_min":-14,"x_max":757,"o":"m 590 751 q 518 614 590 654 q 617 519 585 585 q 649 343 649 453 q 583 114 649 181 q 378 47 518 47 l 357 47 q 151 114 217 47 q 86 343 86 181 q 156 572 86 504 q 371 639 225 639 q 483 663 450 639 q 515 751 515 688 l 515 819 l -14 819 l -14 881 l 757 881 l 757 819 l 590 819 l 590 751 m 574 343 q 550 488 574 436 q 483 558 526 539 q 371 578 439 578 q 255 559 300 578 q 185 489 210 540 q 161 343 161 438 q 183 197 161 247 q 249 127 206 146 q 365 108 293 108 l 378 108 q 489 127 447 108 q 552 197 531 146 q 574 343 574 247 z "},"ड":{"ha":681,"x_min":-14,"x_max":694,"o":"m 292 560 q 197 540 228 560 q 167 465 167 519 q 178 407 167 432 q 208 371 190 382 l 389 371 q 557 325 497 371 q 617 186 617 279 q 557 48 617 96 q 389 0 497 0 l 368 0 q 190 22 268 0 q 43 88 111 43 l 74 143 q 209 81 139 101 q 368 61 279 61 l 389 61 q 501 90 461 61 q 542 181 542 119 q 504 281 542 251 q 389 310 467 310 l 172 310 q 117 374 143 332 q 92 465 92 415 q 140 585 92 549 q 292 621 189 621 l 454 621 l 454 819 l -14 819 l -14 881 l 694 881 l 694 819 l 529 819 l 529 560 l 292 560 z "},"ढ":{"ha":707,"x_min":-14,"x_max":721,"o":"m 371 578 q 255 559 300 578 q 185 489 210 540 q 161 343 161 438 q 183 197 161 247 q 247 127 206 146 q 357 108 289 108 l 383 108 q 526 140 481 108 q 574 246 572 171 l 574 290 q 557 344 574 328 q 503 360 540 360 q 449 344 465 360 q 432 290 432 328 l 432 225 l 357 225 l 357 290 q 392 388 357 354 q 503 421 426 421 q 614 388 579 421 q 649 290 649 354 l 649 246 q 583 96 647 144 q 383 47 518 47 l 357 47 q 151 114 217 47 q 86 343 86 181 q 156 572 86 504 q 371 639 225 639 l 479 639 l 479 819 l -14 819 l -14 881 l 721 881 l 721 819 l 554 819 l 554 578 l 371 578 z "},"ण":{"ha":975,"x_min":-14,"x_max":989,"o":"m 989 881 l 989 819 l 822 819 l 822 0 l 747 0 l 747 819 l 536 819 l 536 525 q 490 358 536 406 q 344 310 443 310 q 199 358 246 310 q 153 525 153 406 l 153 819 l -14 819 l -14 881 l 989 881 m 461 819 l 228 819 l 228 525 q 256 404 228 438 q 344 371 285 371 q 433 404 404 371 q 461 525 461 438 l 461 819 z "},"त":{"ha":783,"x_min":-14,"x_max":797,"o":"m 797 881 l 797 819 l 631 819 l 631 0 l 556 0 l 556 564 l 306 564 q 225 544 256 564 q 178 469 194 524 q 161 315 163 415 q 205 116 163 171 q 333 61 247 61 l 350 61 l 350 0 l 333 0 q 150 74 214 0 q 86 315 86 149 q 140 554 86 483 q 306 625 193 625 l 556 625 l 556 819 l -14 819 l -14 881 l 797 881 z "},"थ":{"ha":806,"x_min":72,"x_max":819,"o":"m 819 881 l 819 819 l 653 819 l 653 0 l 578 0 l 578 267 q 480 228 532 240 q 386 217 428 217 q 209 260 274 217 q 90 418 144 304 q 208 476 168 450 q 267 548 247 503 q 286 674 286 593 l 286 726 q 272 814 286 790 q 217 838 257 838 q 162 813 176 838 q 147 726 147 789 l 147 674 l 72 674 l 72 726 q 106 856 72 813 q 217 899 140 899 q 328 856 294 899 q 361 726 361 814 l 361 674 q 340 532 361 586 q 281 445 318 478 q 183 379 244 413 q 267 299 217 319 q 386 278 317 278 q 578 339 481 278 l 578 819 l 453 819 l 453 881 l 819 881 z "},"द":{"ha":707,"x_min":-14,"x_max":721,"o":"m 399 606 q 267 588 318 606 q 189 522 217 571 q 161 385 161 474 q 186 248 161 296 q 259 182 211 200 q 385 164 307 164 l 410 164 q 513 175 467 164 l 513 297 l 588 297 l 588 -21 l 513 -21 l 513 113 q 410 103 468 103 l 385 103 q 158 167 231 103 q 86 385 86 231 q 163 603 86 539 q 399 667 239 667 l 479 667 l 479 819 l -14 819 l -14 881 l 721 881 l 721 819 l 554 819 l 554 606 l 399 606 z "},"ध":{"ha":806,"x_min":78,"x_max":819,"o":"m 819 881 l 819 819 l 653 819 l 653 0 l 578 0 l 578 188 q 408 156 507 156 l 383 156 q 189 201 250 157 q 128 360 128 246 q 200 525 128 478 q 108 588 138 544 q 78 701 78 631 q 136 853 78 808 q 319 899 194 899 l 336 899 q 379 896 360 899 l 379 835 l 336 838 l 319 838 q 192 810 232 838 q 153 701 153 782 q 179 614 153 643 q 253 574 206 585 q 383 564 301 564 l 424 564 l 424 503 l 383 503 q 247 474 290 503 q 203 360 203 444 q 223 269 203 300 q 281 228 243 238 q 383 217 319 218 l 408 217 q 578 260 508 217 l 578 819 l 467 819 l 467 881 l 819 881 z "},"न":{"ha":764,"x_min":-14,"x_max":778,"o":"m 778 881 l 778 819 l 611 819 l 611 0 l 536 0 l 536 481 l 217 481 q 172 474 185 481 q 160 446 160 467 q 231 374 160 410 l 201 315 q 85 453 85 367 q 115 519 85 497 q 203 542 146 542 l 536 542 l 536 819 l -14 819 l -14 881 l 778 881 z "},"ऩ":{"ha":764,"x_min":-14,"x_max":778,"o":"m 0 0 m 778 881 l 778 819 l 611 819 l 611 0 l 536 0 l 536 481 l 217 481 q 172 474 185 481 q 160 446 160 467 q 231 374 160 410 l 201 315 q 85 453 85 367 q 115 519 85 497 q 203 542 146 542 l 536 542 l 536 819 l -14 819 l -14 881 l 778 881 m 265 0 l 344 79 l 424 0 l 344 -78 l 265 0 z "},"प":{"ha":743,"x_min":-14,"x_max":757,"o":"m 757 881 l 757 819 l 590 819 l 590 0 l 515 0 l 515 343 q 357 297 442 297 q 182 349 239 297 q 125 531 125 400 l 125 819 l -14 819 l -14 881 l 757 881 m 357 358 q 445 372 408 358 q 515 411 482 386 l 515 819 l 200 819 l 200 531 q 235 397 200 436 q 357 358 269 358 z "},"फ":{"ha":1106,"x_min":-14,"x_max":1119,"o":"m 590 819 l 590 558 q 760 596 657 596 l 785 596 q 979 550 918 594 q 1040 392 1040 506 q 978 234 1040 281 q 785 188 917 188 l 768 188 q 724 190 747 188 q 685 194 700 192 l 685 257 q 768 249 722 249 l 785 249 q 922 278 878 249 q 965 392 965 307 q 945 483 965 451 q 887 524 925 514 q 785 535 849 533 l 760 535 q 590 492 663 535 l 590 0 l 515 0 l 515 343 q 357 297 442 297 q 182 349 239 297 q 125 531 125 400 l 125 819 l -14 819 l -14 881 l 1119 881 l 1119 819 l 590 819 m 357 358 q 445 372 408 358 q 515 411 482 386 l 515 819 l 200 819 l 200 531 q 235 397 200 436 q 357 358 269 358 z "},"ब":{"ha":743,"x_min":-14,"x_max":757,"o":"m 757 881 l 757 819 l 590 819 l 590 0 l 515 0 l 515 225 q 346 188 449 188 l 321 188 q 126 233 188 189 q 65 392 65 278 q 127 549 65 503 q 321 596 189 596 l 338 596 q 382 594 358 596 q 421 589 406 592 l 421 526 q 338 535 383 535 l 321 535 q 235 526 263 535 l 463 267 q 515 292 488 274 l 515 819 l -14 819 l -14 881 l 757 881 m 346 249 q 408 253 376 249 l 186 507 q 140 392 140 476 q 160 301 140 332 q 219 260 181 269 q 321 249 257 250 l 346 249 z "},"भ":{"ha":842,"x_min":29,"x_max":856,"o":"m 856 881 l 856 819 l 689 819 l 689 0 l 614 0 l 614 357 l 279 357 l 279 222 l 204 222 l 204 782 q 194 825 204 813 q 154 838 183 838 q 115 824 126 838 q 104 782 104 811 l 104 729 l 29 729 l 29 782 q 58 869 29 839 q 154 899 88 899 q 250 869 221 899 q 279 782 279 839 l 279 418 l 614 418 l 614 819 l 469 819 l 469 881 l 856 881 z "},"म":{"ha":783,"x_min":-14,"x_max":797,"o":"m 797 881 l 797 819 l 631 819 l 631 0 l 556 0 l 556 388 l 221 388 l 221 253 l 146 253 l 146 819 l -14 819 l -14 881 l 797 881 m 556 449 l 556 819 l 221 819 l 221 449 l 556 449 z "},"य":{"ha":806,"x_min":-14,"x_max":819,"o":"m 819 881 l 819 819 l 653 819 l 653 0 l 578 0 l 578 296 q 480 258 532 269 q 386 246 428 246 q 208 290 274 246 q 90 447 143 333 q 238 531 197 488 q 278 644 278 575 q 228 819 278 732 l -14 819 l -14 881 l 819 881 m 386 307 q 578 368 481 307 l 578 819 l 301 819 q 340 727 326 775 q 353 644 353 679 q 313 510 353 565 q 183 408 274 454 q 267 328 217 349 q 386 307 317 307 z "},"र":{"ha":592,"x_min":-14,"x_max":606,"o":"m 168 358 l 168 271 q 190 145 168 190 q 258 81 211 100 q 386 61 306 61 l 525 61 l 525 0 l 386 0 q 169 58 244 0 q 93 271 93 115 l 93 596 l 168 596 l 168 419 l 169 419 q 278 428 238 419 q 342 465 319 438 q 364 549 364 493 l 364 819 l -14 819 l -14 881 l 606 881 l 606 819 l 439 819 l 439 549 q 374 400 439 442 q 169 358 310 358 l 168 358 z "},"ऱ":{"ha":592,"x_min":-14,"x_max":606,"o":"m 0 0 m 168 358 l 168 271 q 190 145 168 190 q 258 81 211 100 q 386 61 306 61 l 525 61 l 525 0 l 386 0 q 169 58 244 0 q 93 271 93 115 l 93 596 l 168 596 l 168 419 l 169 419 q 278 428 238 419 q 342 465 319 438 q 364 549 364 493 l 364 819 l -14 819 l -14 881 l 606 881 l 606 819 l 439 819 l 439 549 q 374 400 439 442 q 169 358 310 358 l 168 358 m -1 -107 l 78 -28 l 157 -107 l 78 -185 l -1 -107 z "},"ल":{"ha":1072,"x_min":-14,"x_max":1086,"o":"m 1086 881 l 1086 819 l 919 819 l 915 0 l 840 0 l 843 528 q 753 550 807 550 q 626 496 669 550 q 581 343 583 442 l 581 275 l 506 275 l 506 329 q 460 482 503 428 q 333 536 417 536 q 207 482 250 536 q 161 329 164 428 q 226 135 165 210 q 444 61 286 61 l 461 61 l 461 0 l 444 0 q 169 95 253 0 q 86 329 86 190 q 149 524 86 451 q 333 597 213 597 q 539 494 474 597 q 623 581 569 550 q 753 611 676 611 q 843 599 804 611 l 844 819 l -14 819 l -14 881 l 1086 881 z "},"ळ":{"ha":1036,"x_min":-14,"x_max":1050,"o":"m 765 819 l 765 625 q 917 547 864 614 q 971 383 971 481 q 907 207 971 276 q 726 138 843 138 q 599 168 651 138 q 518 251 546 199 q 438 168 490 199 q 311 138 385 138 q 129 207 193 138 q 65 383 65 276 q 129 559 65 490 q 311 628 193 628 q 438 598 385 628 q 518 515 490 568 q 690 626 569 613 l 690 819 l -14 819 l -14 881 l 1050 881 l 1050 819 l 765 819 m 311 199 q 439 249 397 199 q 481 383 481 300 q 439 516 481 465 q 311 567 397 567 q 182 516 224 567 q 140 383 140 465 q 182 249 140 300 q 311 199 224 199 m 896 383 q 854 516 896 465 q 726 567 813 567 q 597 516 639 567 q 556 383 556 465 q 597 249 556 300 q 726 199 639 199 q 854 249 813 199 q 896 383 896 300 z "},"ऴ":{"ha":1036,"x_min":-14,"x_max":1050,"o":"m 0 0 m 765 819 l 765 625 q 917 547 864 614 q 971 383 971 481 q 907 207 971 276 q 726 138 843 138 q 599 168 651 138 q 518 251 546 199 q 438 168 490 199 q 311 138 385 138 q 129 207 193 138 q 65 383 65 276 q 129 559 65 490 q 311 628 193 628 q 438 598 385 628 q 518 515 490 568 q 690 626 569 613 l 690 819 l -14 819 l -14 881 l 1050 881 l 1050 819 l 765 819 m 311 199 q 439 249 397 199 q 481 383 481 300 q 439 516 481 465 q 311 567 397 567 q 182 516 224 567 q 140 383 140 465 q 182 249 140 300 q 311 199 224 199 m 896 383 q 854 516 896 465 q 726 567 813 567 q 597 516 639 567 q 556 383 556 465 q 597 249 556 300 q 726 199 639 199 q 854 249 813 199 q 896 383 896 300 m 438 0 l 517 79 l 596 0 l 517 -78 l 438 0 z "},"व":{"ha":743,"x_min":-14,"x_max":757,"o":"m 757 881 l 757 819 l 590 819 l 590 0 l 515 0 l 515 225 q 346 188 449 188 l 321 188 q 126 233 188 189 q 65 392 65 278 q 127 549 65 503 q 321 596 189 596 l 338 596 q 382 594 358 596 q 421 589 406 592 l 421 526 q 338 535 383 535 l 321 535 q 184 506 228 535 q 140 392 140 476 q 160 301 140 332 q 219 260 181 269 q 321 249 257 250 l 346 249 q 515 292 443 249 l 515 819 l -14 819 l -14 881 l 757 881 z "},"श":{"ha":975,"x_min":79,"x_max":989,"o":"m 232 331 q 310 119 240 176 q 496 61 379 61 l 579 61 l 579 0 l 496 0 q 256 77 346 0 q 157 329 165 154 l 79 329 l 79 390 l 204 390 q 399 459 329 390 q 471 649 469 528 q 458 762 471 721 q 413 820 444 803 q 326 838 382 838 q 218 794 253 838 q 182 649 183 751 l 182 596 l 107 596 l 107 649 q 161 836 108 774 q 326 899 214 899 q 494 836 443 899 q 546 649 546 774 q 507 490 546 560 q 397 378 468 419 q 232 331 326 336 m 989 819 l 822 819 l 822 0 l 747 0 l 747 881 l 989 881 l 989 819 z "},"ष":{"ha":783,"x_min":-14,"x_max":797,"o":"m 797 881 l 797 819 l 631 819 l 631 0 l 556 0 l 556 346 q 376 297 476 297 q 185 349 247 297 q 124 531 124 401 l 124 819 l -14 819 l -14 881 l 797 881 m 556 819 l 239 819 l 556 458 l 556 819 m 199 531 q 239 397 199 436 q 376 358 279 358 q 539 403 469 358 l 538 403 l 199 789 l 199 531 z "},"स":{"ha":1017,"x_min":-14,"x_max":1031,"o":"m 1031 881 l 1031 819 l 864 819 l 864 0 l 789 0 l 789 392 l 493 392 l 493 453 l 789 453 l 789 819 l 439 819 l 439 549 q 374 400 439 442 q 169 358 310 358 l 161 358 l 161 271 q 183 145 161 190 q 251 81 204 100 q 379 61 299 61 l 608 61 l 608 0 l 379 0 q 162 58 238 0 q 86 271 86 115 l 86 596 l 161 596 l 161 419 l 169 419 q 278 428 238 419 q 342 465 319 438 q 364 549 364 493 l 364 819 l -14 819 l -14 881 l 1031 881 z "},"ह":{"ha":743,"x_min":-14,"x_max":757,"o":"m 301 592 q 207 572 238 592 q 176 497 176 551 q 197 424 176 456 q 251 374 218 392 q 389 411 308 411 l 433 411 q 588 362 533 411 q 642 231 642 313 l 642 189 l 581 189 l 581 231 q 542 317 581 283 q 433 350 503 350 l 389 350 q 283 312 331 350 q 235 183 235 274 q 313 16 235 61 q 514 -29 390 -29 l 589 -29 l 589 -90 l 514 -90 q 258 -26 356 -90 q 160 183 160 39 q 200 325 160 269 q 132 398 163 353 q 101 497 101 443 q 150 617 101 581 q 301 653 199 653 l 515 653 l 515 819 l -14 819 l -14 881 l 757 881 l 757 819 l 590 819 l 590 592 l 301 592 z "},"क़":{"ha":1106,"x_min":-14,"x_max":1119,"o":"m 0 0 m 590 819 l 590 558 q 760 596 657 596 l 785 596 q 979 550 918 594 q 1040 392 1040 506 q 978 234 1040 281 q 785 188 917 188 l 768 188 q 724 190 747 188 q 685 194 700 192 l 685 257 q 768 249 722 249 l 785 249 q 922 278 878 249 q 965 392 965 307 q 945 483 965 451 q 887 524 925 514 q 785 535 849 533 l 760 535 q 590 492 663 535 l 590 0 l 515 0 l 515 225 q 346 188 449 188 l 321 188 q 126 233 188 189 q 65 392 65 278 q 127 549 65 503 q 321 596 189 596 l 338 596 q 382 594 358 596 q 421 589 406 592 l 421 526 q 338 535 383 535 l 321 535 q 184 506 228 535 q 140 392 140 476 q 160 301 140 332 q 219 260 181 269 q 321 249 257 250 l 346 249 q 515 292 443 249 l 515 819 l -14 819 l -14 881 l 1119 881 l 1119 819 l 590 819 m 242 0 l 321 79 l 400 0 l 321 -78 l 242 0 z "},"ख़":{"ha":1103,"x_min":-14,"x_max":1117,"o":"m 0 0 m 1117 819 l 950 819 l 950 0 l 875 0 l 875 263 q 747 243 822 243 l 722 243 q 564 284 619 243 q 508 419 508 325 q 562 553 508 510 q 694 596 615 596 l 711 596 q 781 590 750 596 l 781 529 q 711 535 746 535 l 694 535 q 583 419 583 535 q 617 327 583 350 q 722 304 650 304 l 747 304 q 875 326 821 304 l 875 819 l 439 819 l 439 549 q 374 400 439 442 q 169 358 310 358 l 161 358 l 161 271 q 183 145 161 190 q 251 81 204 100 q 379 61 299 61 l 608 61 l 608 0 l 379 0 q 162 58 238 0 q 86 271 86 115 l 86 596 l 161 596 l 161 419 l 169 419 q 278 428 238 419 q 342 465 319 438 q 364 549 364 493 l 364 819 l -14 819 l -14 881 l 1117 881 l 1117 819 m 46 -140 l 125 -61 l 204 -140 l 125 -218 l 46 -140 z "},"ग़":{"ha":806,"x_min":-14,"x_max":819,"o":"m 0 0 m 819 819 l 653 819 l 653 0 l 578 0 l 578 819 l 292 819 l 293 403 q 269 310 293 342 q 197 278 246 278 q 56 397 108 278 l 115 426 q 152 362 135 385 q 190 339 169 339 q 213 353 207 339 q 218 403 218 368 l 217 819 l -14 819 l -14 881 l 819 881 l 819 819 m 175 0 l 254 79 l 333 0 l 254 -78 l 175 0 z "},"ज़":{"ha":897,"x_min":-14,"x_max":911,"o":"m 0 0 m 911 881 l 911 819 l 744 819 l 744 0 l 669 0 l 669 521 l 504 521 l 504 406 q 456 217 504 276 q 285 157 407 157 q 116 217 167 157 q 65 406 65 278 l 65 582 l 140 582 l 140 406 q 172 265 140 311 q 285 218 204 218 q 376 239 344 218 q 418 299 407 260 q 429 406 429 339 l 429 582 l 669 582 l 669 819 l -14 819 l -14 881 l 911 881 m 206 0 l 285 79 l 364 0 l 285 -78 l 206 0 z "},"ड़":{"ha":681,"x_min":-14,"x_max":694,"o":"m 0 0 m 292 560 q 197 540 228 560 q 167 465 167 519 q 178 407 167 432 q 208 371 190 382 l 389 371 q 557 325 497 371 q 617 186 617 279 q 557 48 617 96 q 389 0 497 0 l 368 0 q 190 22 268 0 q 43 88 111 43 l 74 143 q 209 81 139 101 q 368 61 279 61 l 389 61 q 501 90 461 61 q 542 181 542 119 q 504 281 542 251 q 389 310 467 310 l 172 310 q 117 374 143 332 q 92 465 92 415 q 140 585 92 549 q 292 621 189 621 l 454 621 l 454 819 l -14 819 l -14 881 l 694 881 l 694 819 l 529 819 l 529 560 l 292 560 m 293 -139 l 372 -60 l 451 -139 l 372 -217 l 293 -139 z "},"ढ़":{"ha":707,"x_min":-14,"x_max":721,"o":"m 0 0 m 371 578 q 255 559 300 578 q 185 489 210 540 q 161 343 161 438 q 183 197 161 247 q 247 127 206 146 q 357 108 289 108 l 383 108 q 526 140 481 108 q 574 246 572 171 l 574 290 q 557 344 574 328 q 503 360 540 360 q 449 344 465 360 q 432 290 432 328 l 432 225 l 357 225 l 357 290 q 392 388 357 354 q 503 421 426 421 q 614 388 579 421 q 649 290 649 354 l 649 246 q 583 96 647 144 q 383 47 518 47 l 357 47 q 151 114 217 47 q 86 343 86 181 q 156 572 86 504 q 371 639 225 639 l 479 639 l 479 819 l -14 819 l -14 881 l 721 881 l 721 819 l 554 819 l 554 578 l 371 578 m 293 -111 l 372 -32 l 451 -111 l 372 -189 l 293 -111 z "},"फ़":{"ha":1106,"x_min":-14,"x_max":1119,"o":"m 0 0 m 590 819 l 590 558 q 760 596 657 596 l 785 596 q 979 550 918 594 q 1040 392 1040 506 q 978 234 1040 281 q 785 188 917 188 l 768 188 q 724 190 747 188 q 685 194 700 192 l 685 257 q 768 249 722 249 l 785 249 q 922 278 878 249 q 965 392 965 307 q 945 483 965 451 q 887 524 925 514 q 785 535 849 533 l 760 535 q 590 492 663 535 l 590 0 l 515 0 l 515 343 q 357 297 442 297 q 182 349 239 297 q 125 531 125 400 l 125 819 l -14 819 l -14 881 l 1119 881 l 1119 819 l 590 819 m 357 358 q 445 372 408 358 q 515 411 482 386 l 515 819 l 200 819 l 200 531 q 235 397 200 436 q 357 358 269 358 m 99 139 l 178 218 l 257 139 l 178 61 l 99 139 z "},"य़":{"ha":806,"x_min":-14,"x_max":819,"o":"m 0 0 m 819 881 l 819 819 l 653 819 l 653 0 l 578 0 l 578 296 q 480 258 532 269 q 386 246 428 246 q 208 290 274 246 q 90 447 143 333 q 238 531 197 488 q 278 644 278 575 q 228 819 278 732 l -14 819 l -14 881 l 819 881 m 386 307 q 578 368 481 307 l 578 819 l 301 819 q 340 727 326 775 q 353 644 353 679 q 313 510 353 565 q 183 408 274 454 q 267 328 217 349 q 386 307 317 307 m 94 97 l 174 176 l 253 97 l 174 19 l 94 97 z "},"ॹ":{"ha":897,"x_min":-14,"x_max":911,"o":"m 0 0 m 911 881 l 911 819 l 744 819 l 744 0 l 669 0 l 669 521 l 504 521 l 504 406 q 456 217 504 276 q 285 157 407 157 q 116 217 167 157 q 65 406 65 278 l 65 582 l 140 582 l 140 406 q 172 265 140 311 q 285 218 204 218 q 376 239 344 218 q 418 299 407 260 q 429 406 429 339 l 429 582 l 669 582 l 669 819 l -14 819 l -14 881 l 911 881 m 69 11 l 149 90 l 228 11 l 149 -67 l 69 11 m 206 -122 l 285 -43 l 364 -122 l 285 -200 l 206 -122 m 342 11 l 421 90 l 500 11 l 421 -67 l 342 11 z "},"ॺ":{"ha":806,"x_min":-14,"x_max":819,"o":"m 819 881 l 819 819 l 653 819 l 653 0 l 578 0 l 578 296 q 480 258 532 269 q 386 246 428 246 q 208 290 274 246 q 90 447 143 333 q 238 531 197 488 q 278 644 278 575 q 228 819 278 732 l -14 819 l -14 881 l 819 881 m 578 819 l 301 819 l 301 818 l 578 451 l 578 819 m 183 408 q 267 328 217 349 q 386 307 317 307 q 578 368 481 307 l 351 667 q 353 644 353 660 q 313 510 353 565 q 183 408 274 454 z "},"ॻ":{"ha":806,"x_min":-14,"x_max":819,"o":"m 819 819 l 653 819 l 653 0 l 69 0 l 69 61 l 578 61 l 578 819 l 292 819 l 293 403 q 269 310 293 342 q 197 278 246 278 q 56 397 108 278 l 115 426 q 152 362 135 385 q 190 339 169 339 q 213 353 207 339 q 218 403 218 368 l 217 819 l -14 819 l -14 881 l 819 881 l 819 819 z "},"ॼ":{"ha":842,"x_min":-14,"x_max":911,"o":"m 911 881 l 911 819 l 744 819 l 744 0 l 69 0 l 69 61 l 669 61 l 669 521 l 504 521 l 504 406 q 456 217 504 276 q 285 157 407 157 q 116 217 167 157 q 65 406 65 278 l 65 582 l 140 582 l 140 406 q 172 265 140 311 q 285 218 204 218 q 376 239 344 218 q 418 299 407 260 q 429 406 429 339 l 429 582 l 669 582 l 669 819 l -14 819 l -14 881 l 911 881 z "},"ॾ":{"ha":681,"x_min":-14,"x_max":694,"o":"m 292 560 q 197 540 228 560 q 167 465 167 519 q 178 407 167 432 q 208 371 190 382 l 389 371 q 557 325 497 371 q 617 186 617 279 q 557 48 617 96 q 389 0 497 0 l 368 0 q 190 22 268 0 q 43 88 111 43 l 74 143 q 209 81 139 101 q 368 61 279 61 l 389 61 q 501 90 461 61 q 542 181 542 119 q 504 281 542 251 q 389 310 467 310 l 172 310 q 117 374 143 332 q 92 465 92 415 q 140 585 92 549 q 292 621 189 621 l 454 621 l 454 819 l -14 819 l -14 881 l 694 881 l 694 819 l 529 819 l 529 560 l 292 560 m 69 -106 l 611 -106 l 611 -167 l 69 -167 l 69 -106 z "},"ॿ":{"ha":743,"x_min":-14,"x_max":757,"o":"m 757 881 l 757 819 l 590 819 l 590 0 l 69 0 l 69 61 l 515 61 l 515 225 q 346 188 449 188 l 321 188 q 126 233 188 189 q 65 392 65 278 q 127 549 65 503 q 321 596 189 596 l 338 596 q 382 594 358 596 q 421 589 406 592 l 421 526 q 338 535 383 535 l 321 535 q 235 526 263 535 l 463 267 q 515 292 488 274 l 515 819 l -14 819 l -14 881 l 757 881 m 346 249 q 408 253 376 249 l 186 507 q 140 392 140 476 q 160 301 140 332 q 219 260 181 269 q 321 249 257 250 l 346 249 z "},"⁄":{"ha":549,"x_min":-56,"x_max":604,"o":"m 524 1074 l 604 1074 l 25 -46 l -56 -46 l 524 1074 z "},"½":{"ha":1426,"x_min":118,"x_max":1372,"o":"m 118 0 m 424 257 l 424 182 l 118 182 l 118 257 l 233 257 l 233 860 l 138 860 l 138 935 l 308 935 l 308 257 l 424 257 m 978 1074 l 1058 1074 l 479 -46 l 399 -46 l 978 1074 m 946 75 q 1138 299 1069 213 q 1240 451 1206 385 q 1275 572 1275 517 q 1241 663 1275 632 q 1143 694 1207 694 q 969 653 1053 694 l 969 729 q 1143 767 1054 767 q 1296 717 1239 767 q 1353 574 1353 667 q 1316 439 1353 510 q 1226 300 1279 368 q 1079 126 1172 232 l 1033 75 l 1372 75 l 1372 0 l 946 0 l 946 75 z "},"¼":{"ha":1332,"x_min":118,"x_max":1318,"o":"m 118 0 m 424 257 l 424 182 l 118 182 l 118 257 l 233 257 l 233 860 l 138 860 l 138 935 l 308 935 l 308 257 l 424 257 m 978 1074 l 1058 1074 l 479 -46 l 399 -46 l 978 1074 m 1318 189 l 1211 189 l 1211 0 l 1136 0 l 1136 189 l 818 189 l 818 261 l 1144 765 l 1211 765 l 1211 261 l 1318 261 l 1318 189 m 1136 261 l 1136 636 l 890 261 l 1136 261 z "},"¾":{"ha":1325,"x_min":79,"x_max":1311,"o":"m 79 0 m 333 579 q 437 509 401 558 q 472 393 472 460 q 409 226 472 285 q 236 167 346 167 q 79 194 150 167 l 79 271 q 236 239 154 239 q 350 280 307 239 q 393 396 393 321 q 344 505 393 467 q 207 543 296 543 l 158 543 l 158 615 l 207 615 q 338 651 293 615 q 383 756 383 686 q 346 844 383 813 q 236 876 308 876 q 89 849 158 876 l 89 924 q 236 949 158 949 q 405 897 347 949 q 463 756 463 846 q 333 579 463 628 m 971 1074 l 1051 1074 l 472 -46 l 392 -46 l 971 1074 m 1311 189 l 1204 189 l 1204 0 l 1129 0 l 1129 189 l 811 189 l 811 261 l 1138 765 l 1204 765 l 1204 261 l 1311 261 l 1311 189 m 1129 261 l 1129 636 l 883 261 l 1129 261 z "},"¹":{"ha":542,"x_min":118,"x_max":424,"o":"m 424 257 l 424 182 l 118 182 l 118 257 l 233 257 l 233 860 l 138 860 l 138 935 l 308 935 l 308 257 l 424 257 z "},"²":{"ha":542,"x_min":61,"x_max":488,"o":"m 61 257 q 253 481 185 394 q 356 633 321 567 q 390 754 390 699 q 356 845 390 814 q 258 876 322 876 q 85 835 168 876 l 85 911 q 258 949 169 949 q 411 899 354 949 q 468 756 468 849 q 431 621 468 692 q 341 482 394 550 q 194 308 288 414 l 149 257 l 488 257 l 488 182 l 61 182 l 61 257 z "},"³":{"ha":542,"x_min":79,"x_max":472,"o":"m 333 579 q 437 509 401 558 q 472 393 472 460 q 409 226 472 285 q 236 167 346 167 q 79 194 150 167 l 79 271 q 236 239 154 239 q 350 280 307 239 q 393 396 393 321 q 344 505 393 467 q 207 543 296 543 l 158 543 l 158 615 l 207 615 q 338 651 293 615 q 383 756 383 686 q 346 844 383 813 q 236 876 308 876 q 89 849 158 876 l 89 924 q 236 949 158 949 q 405 897 347 949 q 463 756 463 846 q 333 579 463 628 z "},"०":{"ha":886,"x_min":136,"x_max":750,"o":"m 443 172 q 279 211 349 172 q 173 317 210 250 q 136 465 136 383 q 173 614 136 547 q 279 719 210 681 q 443 758 349 758 q 607 719 538 758 q 713 614 676 681 q 750 465 750 547 q 713 317 750 383 q 607 211 676 250 q 443 172 538 172 m 443 233 q 613 300 551 233 q 675 465 675 367 q 613 631 675 564 q 443 697 551 697 q 273 631 335 697 q 211 465 211 564 q 273 300 211 367 q 443 233 335 233 z "},"१":{"ha":667,"x_min":93,"x_max":588,"o":"m 588 649 q 544 486 588 560 q 426 363 500 413 q 264 296 353 314 l 503 18 l 453 -24 l 185 288 l 176 288 l 93 288 l 93 349 l 176 349 q 342 385 265 349 q 465 490 418 422 q 513 649 513 558 q 498 762 513 721 q 449 820 483 803 q 354 838 415 838 q 235 794 274 838 q 196 649 197 751 l 196 596 l 121 596 l 121 649 q 178 836 122 774 q 354 899 235 899 q 533 836 478 899 q 588 649 588 774 z "},"२":{"ha":686,"x_min":133,"x_max":635,"o":"m 635 61 l 635 0 l 551 0 q 211 368 211 0 l 211 406 l 133 406 l 133 467 l 240 467 q 417 504 360 467 q 476 643 475 542 q 417 782 475 744 q 240 819 360 819 l 133 819 l 133 881 l 240 881 q 474 826 399 881 q 551 643 550 771 q 485 469 550 525 q 286 407 421 414 l 286 368 q 358 127 288 193 q 551 61 429 61 l 635 61 z "},"३":{"ha":672,"x_min":118,"x_max":607,"o":"m 418 489 q 558 410 508 465 q 607 279 607 356 q 533 101 607 161 q 339 42 460 42 q 193 63 260 42 l 193 -53 l 118 -53 l 118 265 l 193 265 l 193 131 q 339 103 260 103 q 478 144 425 103 q 532 279 532 185 q 461 404 532 363 q 253 446 390 446 l 196 446 l 196 507 l 254 507 q 400 554 351 507 q 449 675 449 601 q 397 788 449 757 q 240 819 346 819 l 133 819 l 133 881 l 240 881 q 454 833 385 881 q 524 675 524 786 q 418 489 524 551 z "},"४":{"ha":797,"x_min":107,"x_max":690,"o":"m 690 813 q 669 659 690 717 q 611 567 647 601 q 507 489 575 533 l 453 453 q 583 340 538 397 q 628 194 628 283 q 565 38 628 99 q 399 -24 503 -24 q 232 38 294 -24 q 169 194 169 99 q 217 338 169 278 q 346 453 265 399 l 290 489 q 185 569 224 532 q 127 665 147 607 q 107 813 107 722 l 107 881 l 182 881 l 182 813 q 196 677 182 725 q 240 599 210 629 q 339 526 271 569 l 399 488 l 458 526 q 553 599 521 568 q 600 679 585 631 q 615 813 615 728 l 615 881 l 690 881 l 690 813 m 553 194 q 514 319 553 269 q 400 418 475 368 q 285 317 326 368 q 244 194 244 265 q 287 76 244 115 q 399 38 329 38 q 510 76 468 38 q 553 194 553 115 z "},"५":{"ha":794,"x_min":153,"x_max":642,"o":"m 642 717 l 642 214 q 568 36 642 96 q 374 -24 494 -24 q 196 10 275 -24 l 176 90 q 267 51 222 64 q 374 38 313 38 q 513 78 460 38 q 567 214 567 119 l 567 407 q 482 360 525 376 q 385 344 439 344 q 210 396 267 344 q 153 578 153 447 l 153 881 l 228 881 l 228 578 q 263 444 228 483 q 385 406 297 406 q 486 424 446 406 q 567 478 526 443 l 567 715 l 642 717 z "},"६":{"ha":704,"x_min":93,"x_max":621,"o":"m 621 308 l 621 -10 l 546 -10 l 546 132 q 414 114 483 114 l 389 114 q 198 171 263 115 q 133 332 133 226 q 222 522 133 463 q 125 585 157 543 q 93 701 93 628 q 161 853 93 808 q 376 899 229 899 l 401 899 q 506 888 461 899 l 506 824 q 401 838 460 838 l 376 838 q 217 810 267 838 q 168 701 168 782 q 194 614 168 643 q 269 574 221 585 q 399 564 317 564 l 453 564 l 453 503 l 389 503 q 255 460 301 503 q 208 332 208 417 q 389 175 208 178 l 414 175 q 546 199 486 175 l 546 308 l 621 308 z "},"७":{"ha":819,"x_min":135,"x_max":685,"o":"m 410 35 q 253 65 313 35 q 165 175 194 96 q 135 397 135 254 l 135 881 l 210 881 l 210 397 q 231 206 210 271 q 295 118 253 140 q 410 96 338 96 q 522 118 481 96 q 587 206 564 140 q 610 397 610 271 l 610 782 q 599 825 610 813 q 560 838 589 838 q 521 824 532 838 q 510 782 510 811 l 510 636 l 435 636 l 435 782 q 464 869 435 839 q 560 899 493 899 q 656 869 626 899 q 685 782 685 839 l 685 397 q 653 176 685 256 q 563 66 622 97 q 410 35 504 35 z "},"८":{"ha":654,"x_min":65,"x_max":592,"o":"m 493 0 q 172 85 279 0 q 65 317 65 171 q 130 525 65 432 q 332 738 194 618 l 543 921 l 592 864 l 381 681 q 244 553 294 607 q 167 442 194 499 q 140 317 140 385 q 227 128 140 194 q 493 61 314 61 l 572 61 l 572 0 l 493 0 z "},"९":{"ha":724,"x_min":65,"x_max":686,"o":"m 421 186 l 392 213 q 218 375 282 310 q 110 515 154 440 q 65 668 65 590 q 134 842 65 785 q 329 899 203 899 q 493 841 435 899 q 551 668 551 783 l 551 581 l 476 581 l 476 668 q 329 838 476 838 q 190 799 239 838 q 140 668 140 760 q 174 546 140 604 q 260 435 208 488 q 407 297 311 382 q 471 242 468 244 l 686 49 l 636 -7 l 421 186 z "},"*":{"ha":858,"x_min":111,"x_max":747,"o":"m 479 865 l 747 726 l 710 661 l 454 821 l 467 521 l 392 521 l 404 821 l 149 661 l 111 726 l 379 865 l 111 1006 l 149 1071 l 404 910 l 392 1211 l 467 1211 l 454 910 l 710 1071 l 747 1006 l 479 865 z "},"\\":{"ha":551,"x_min":21,"x_max":531,"o":"m 21 1293 l 99 1293 l 531 -246 l 453 -246 l 21 1293 z "},"·":{"ha":394,"x_min":153,"x_max":242,"o":"m 153 574 l 242 574 l 242 364 l 153 364 l 153 574 z "},"•":{"ha":482,"x_min":90,"x_max":392,"o":"m 242 378 q 135 422 179 378 q 90 529 90 467 q 135 635 90 592 q 242 679 179 679 q 349 636 306 679 q 392 529 392 593 q 348 422 392 467 q 242 378 304 378 z "},":":{"ha":394,"x_min":153,"x_max":242,"o":"m 153 0 m 153 210 l 242 210 l 242 0 l 153 0 l 153 210 m 153 758 l 242 758 l 242 549 l 153 549 l 153 758 z "},",":{"ha":394,"x_min":107,"x_max":274,"o":"m 190 210 l 274 210 l 182 -210 l 107 -210 l 190 210 z "},"…":{"ha":1183,"x_min":153,"x_max":1031,"o":"m 153 210 l 242 210 l 242 0 l 153 0 l 153 210 m 547 210 l 636 210 l 636 0 l 547 0 l 547 210 m 1031 210 l 1031 0 l 942 0 l 942 210 l 1031 210 z "},"!":{"ha":394,"x_min":147,"x_max":247,"o":"m 147 1053 l 247 1053 l 231 319 l 164 319 l 147 1053 m 153 210 l 242 210 l 242 0 l 153 0 l 153 210 z "},"¡":{"ha":394,"x_min":147,"x_max":247,"o":"m 153 1053 l 242 1053 l 242 843 l 153 843 l 153 1053 m 164 733 l 231 733 l 247 0 l 147 0 l 164 733 z "},"#":{"ha":976,"x_min":83,"x_max":892,"o":"m 717 607 l 682 329 l 850 329 l 850 254 l 672 254 l 639 0 l 561 0 l 594 254 l 326 254 l 293 0 l 215 0 l 249 254 l 83 254 l 83 329 l 258 329 l 293 607 l 125 607 l 125 682 l 303 682 l 336 936 l 414 936 l 381 682 l 649 682 l 682 936 l 760 936 l 726 682 l 892 682 l 892 607 l 717 607 m 639 607 l 371 607 l 336 329 l 604 329 l 639 607 z "},".":{"ha":394,"x_min":153,"x_max":242,"o":"m 153 210 l 242 210 l 242 0 l 153 0 l 153 210 z "},"?":{"ha":764,"x_min":121,"x_max":643,"o":"m 314 371 q 331 472 314 431 q 372 540 347 513 q 446 610 397 567 l 483 643 q 544 717 526 682 q 563 801 563 753 q 508 949 563 897 q 363 1000 454 1000 q 121 943 235 1000 l 121 1021 q 363 1072 239 1072 q 565 1002 486 1072 q 643 803 643 932 q 617 683 643 732 q 542 592 592 635 l 504 558 q 436 494 457 517 q 403 442 415 471 q 392 371 392 413 l 392 319 l 314 319 l 314 371 m 308 210 l 397 210 l 397 0 l 308 0 l 308 210 z "},"¿":{"ha":764,"x_min":121,"x_max":643,"o":"m 456 843 l 367 843 l 367 1053 l 456 1053 l 456 843 m 401 -19 q 199 51 278 -19 q 121 250 121 121 q 147 369 121 321 q 222 461 172 418 l 260 494 q 328 559 307 536 q 360 611 349 582 q 372 682 372 640 l 372 733 l 450 733 l 450 682 q 433 581 450 622 q 392 513 417 540 q 318 443 367 486 l 281 410 q 219 335 238 371 q 201 251 201 300 q 256 104 201 156 q 401 53 310 53 q 643 110 529 53 l 643 32 q 401 -19 525 -19 z "},"\"":{"ha":617,"x_min":158,"x_max":458,"o":"m 158 633 m 158 1053 l 236 1053 l 236 633 l 158 633 l 158 1053 m 381 1053 l 458 1053 l 458 633 l 381 633 l 381 1053 z "},"'":{"ha":394,"x_min":158,"x_max":236,"o":"m 158 1053 l 236 1053 l 236 633 l 158 633 l 158 1053 z "},";":{"ha":394,"x_min":107,"x_max":274,"o":"m 107 0 m 190 210 l 274 210 l 182 -210 l 107 -210 l 190 210 m 153 758 l 242 758 l 242 549 l 153 549 l 153 758 z "},"/":{"ha":551,"x_min":21,"x_max":531,"o":"m 453 1293 l 531 1293 l 99 -246 l 21 -246 l 453 1293 z "},"_":{"ha":694,"x_min":0,"x_max":694,"o":"m 0 -107 l 694 -107 l 694 -182 l 0 -182 l 0 -107 z "},"{":{"ha":450,"x_min":63,"x_max":397,"o":"m 244 693 q 225 558 244 600 q 154 499 206 515 q 225 438 206 481 q 244 304 244 394 l 244 -3 q 263 -83 244 -62 q 333 -104 282 -104 q 397 -99 369 -104 l 397 -174 q 340 -179 369 -179 q 206 -144 244 -179 q 167 -11 167 -108 l 167 304 q 159 403 167 371 q 133 449 151 436 q 78 461 114 461 l 63 461 l 63 536 l 78 536 q 133 549 114 536 q 159 594 151 561 q 167 693 167 626 l 167 1008 q 206 1141 167 1106 q 340 1176 244 1176 q 397 1171 369 1176 l 397 1096 q 333 1101 369 1101 q 263 1081 282 1101 q 244 1000 244 1060 l 244 693 z "},"}":{"ha":450,"x_min":53,"x_max":388,"o":"m 53 0 m 206 693 q 225 558 206 600 q 296 499 244 515 q 225 438 244 481 q 206 304 206 394 l 206 -3 q 187 -83 206 -62 q 117 -104 168 -104 q 53 -99 81 -104 l 53 -174 q 110 -179 81 -179 q 244 -144 206 -179 q 283 -11 283 -108 l 283 304 q 291 403 283 371 q 317 449 299 436 q 372 461 336 461 l 388 461 l 388 536 l 372 536 q 317 549 336 536 q 291 594 299 561 q 283 693 283 626 l 283 1008 q 244 1141 283 1106 q 110 1176 206 1176 q 53 1171 81 1176 l 53 1096 q 117 1101 81 1101 q 187 1081 168 1101 q 206 1000 206 1060 l 206 693 z "},"[":{"ha":450,"x_min":167,"x_max":367,"o":"m 367 -104 l 367 -179 l 167 -179 l 167 1176 l 360 1176 l 360 1101 l 244 1101 l 244 -104 l 367 -104 z "},"]":{"ha":450,"x_min":83,"x_max":283,"o":"m 283 -179 l 83 -179 l 83 -104 l 206 -104 l 206 1101 l 90 1101 l 90 1176 l 283 1176 l 283 -179 z "},"(":{"ha":453,"x_min":78,"x_max":369,"o":"m 319 -179 q 213 -33 263 -111 q 121 183 164 46 q 78 499 78 319 q 121 815 78 678 q 213 1030 164 951 q 319 1176 263 1108 l 369 1139 q 273 994 314 1064 q 195 796 232 924 q 158 499 158 668 q 195 201 158 329 q 273 3 232 74 q 369 -142 314 -67 l 319 -179 z "},")":{"ha":453,"x_min":83,"x_max":375,"o":"m 83 -142 q 180 3 139 -67 q 258 201 221 74 q 294 499 294 329 q 258 796 294 668 q 180 994 221 924 q 83 1139 139 1064 l 133 1176 q 240 1030 190 1108 q 332 815 289 951 q 375 499 375 678 q 332 183 375 319 q 240 -33 289 46 q 133 -179 190 -111 l 83 -142 z "},"—":{"ha":1389,"x_min":174,"x_max":1215,"o":"m 174 449 l 1215 449 l 1215 374 l 174 374 l 174 449 z "},"–":{"ha":694,"x_min":0,"x_max":694,"o":"m 0 449 l 694 449 l 694 374 l 0 374 l 0 449 z "},"-":{"ha":631,"x_min":111,"x_max":519,"o":"m 111 450 l 519 450 l 519 372 l 111 372 l 111 450 z "},"«":{"ha":1022,"x_min":167,"x_max":849,"o":"m 508 50 m 585 375 l 849 103 l 794 50 l 508 346 l 508 404 l 794 700 l 849 647 l 585 375 m 243 375 l 507 103 l 453 50 l 167 346 l 167 404 l 453 700 l 507 647 l 243 375 z "},"»":{"ha":1022,"x_min":174,"x_max":856,"o":"m 174 50 m 438 375 l 174 103 l 228 50 l 514 346 l 514 404 l 228 700 l 174 647 l 438 375 m 779 375 l 515 103 l 569 50 l 856 346 l 856 404 l 569 700 l 515 647 l 779 375 z "},"‹":{"ha":681,"x_min":167,"x_max":507,"o":"m 243 375 l 507 103 l 453 50 l 167 346 l 167 404 l 453 700 l 507 647 l 243 375 z "},"›":{"ha":681,"x_min":174,"x_max":514,"o":"m 174 50 m 438 375 l 174 103 l 228 50 l 514 346 l 514 404 l 228 700 l 174 647 l 438 375 z "},"„":{"ha":617,"x_min":107,"x_max":496,"o":"m 190 210 l 274 210 l 182 -210 l 107 -210 l 190 210 m 496 210 l 404 -210 l 329 -210 l 413 210 l 496 210 z "},"“":{"ha":617,"x_min":121,"x_max":510,"o":"m 196 1053 l 288 633 l 204 633 l 121 1053 l 196 1053 m 510 633 l 426 633 l 343 1053 l 418 1053 l 510 633 z "},"”":{"ha":617,"x_min":107,"x_max":496,"o":"m 107 633 m 190 1053 l 274 1053 l 182 633 l 107 633 l 190 1053 m 413 1053 l 496 1053 l 404 633 l 329 633 l 413 1053 z "},"‘":{"ha":394,"x_min":121,"x_max":288,"o":"m 121 633 m 204 633 l 288 633 l 196 1053 l 121 1053 l 204 633 z "},"’":{"ha":394,"x_min":107,"x_max":274,"o":"m 107 633 m 190 1053 l 274 1053 l 182 633 l 107 633 l 190 1053 z "},"‚":{"ha":394,"x_min":107,"x_max":274,"o":"m 107 0 m 190 210 l 274 210 l 182 -210 l 107 -210 l 190 210 z "},"ॽ":{"ha":618,"x_min":133,"x_max":551,"o":"m 551 636 q 482 452 551 513 q 265 390 413 392 l 265 0 l 190 0 l 190 451 l 254 451 q 422 494 368 451 q 476 636 476 538 q 417 776 476 733 q 240 819 357 819 l 133 819 l 133 881 l 240 881 q 474 820 396 881 q 551 636 551 760 z "},"।":{"ha":625,"x_min":397,"x_max":472,"o":"m 397 881 l 472 881 l 472 0 l 397 0 l 397 881 z "},"॥":{"ha":986,"x_min":397,"x_max":833,"o":"m 397 0 m 397 881 l 472 881 l 472 0 l 397 0 l 397 881 m 758 881 l 833 881 l 833 0 l 758 0 l 758 881 z "},"॰":{"ha":640,"x_min":106,"x_max":535,"o":"m 321 169 q 213 197 263 169 q 135 274 164 225 q 106 385 106 324 q 135 494 106 446 q 213 571 164 543 q 321 599 263 599 q 428 571 379 599 q 506 494 478 543 q 535 385 535 446 q 506 274 535 324 q 428 197 478 225 q 321 169 379 169 m 321 231 q 421 275 382 231 q 460 385 460 319 q 421 494 460 450 q 321 538 382 538 q 220 494 260 538 q 181 385 181 450 q 220 275 181 319 q 321 231 260 231 z "},"ॱ":{"ha":381,"x_min":111,"x_max":269,"o":"m 111 850 l 190 929 l 269 850 l 190 772 l 111 850 z "}," ":{"ha":306,"x_min":0,"x_max":0,"o":""},"‍":{"ha":0,"x_min":0,"x_max":0,"o":""},"":{"ha":833,"x_min":0,"x_max":0,"o":""},"¢":{"ha":764,"x_min":96,"x_max":708,"o":"m 708 39 q 492 -22 603 -14 l 492 -133 l 414 -133 l 414 -22 q 178 100 261 -8 q 96 381 96 208 q 178 658 96 551 q 414 779 261 765 l 414 890 l 492 890 l 492 779 q 569 769 533 778 q 647 743 604 760 l 647 663 q 492 704 565 700 l 492 53 q 681 108 579 63 l 708 39 m 174 382 q 231 156 174 244 q 414 54 289 67 l 414 703 q 231 603 289 690 q 174 382 174 517 z "},"¤":{"ha":764,"x_min":56,"x_max":710,"o":"m 60 185 l 178 304 q 121 467 121 372 q 175 625 121 558 l 56 746 l 100 792 l 221 671 q 378 724 292 724 q 544 664 471 724 l 665 783 l 710 738 l 588 615 q 636 467 636 547 q 582 308 636 375 l 703 189 l 656 143 l 536 264 q 378 210 467 210 q 225 260 293 210 l 104 139 l 60 185 m 378 276 q 469 302 426 276 q 536 372 511 328 q 561 467 561 415 q 536 562 561 518 q 469 631 511 606 q 378 657 426 657 q 286 631 328 657 q 220 562 244 606 q 196 467 196 518 q 220 372 196 415 q 286 302 244 328 q 378 276 328 276 z "},"$":{"ha":833,"x_min":82,"x_max":694,"o":"m 694 231 q 622 54 693 121 q 424 -22 550 -12 l 424 -133 l 346 -133 l 346 -22 q 215 -2 276 -19 q 82 50 153 15 l 82 128 q 346 50 214 58 l 346 435 l 332 439 q 163 524 225 468 q 100 694 100 579 q 165 879 100 813 q 346 954 229 946 l 346 1053 l 424 1053 l 424 954 q 531 935 483 950 q 643 890 578 921 l 643 813 q 535 860 586 843 q 424 882 483 876 l 424 497 l 457 488 q 632 401 569 457 q 694 231 694 346 m 181 693 q 224 580 182 618 q 346 518 267 542 l 346 882 q 222 822 263 872 q 181 693 181 772 m 614 235 q 563 349 614 310 q 426 413 513 389 l 424 414 l 424 50 q 568 108 522 58 q 614 235 614 157 z "},"€":{"ha":764,"x_min":76,"x_max":650,"o":"m 650 47 q 547 -8 593 7 q 438 -24 500 -24 q 156 322 196 -24 l 76 322 l 104 397 l 150 397 q 149 467 149 419 q 150 536 149 514 l 76 536 l 104 611 l 156 611 q 438 956 196 956 q 618 900 533 956 l 589 833 q 517 869 557 854 q 438 883 476 883 q 238 611 269 883 l 536 611 l 508 536 l 231 536 q 229 467 229 514 q 231 397 229 419 l 457 397 l 429 322 l 238 322 q 438 49 268 49 q 528 64 490 49 q 617 114 567 79 l 650 47 z "},"ƒ":{"ha":764,"x_min":167,"x_max":572,"o":"m 508 1118 q 456 1109 474 1118 q 431 1080 439 1100 q 419 1017 424 1060 l 393 758 l 544 758 l 531 683 l 385 683 l 281 -325 l 206 -325 l 310 683 l 167 683 l 167 758 l 317 758 l 344 1025 q 368 1128 351 1093 q 419 1178 385 1164 q 515 1193 453 1193 q 572 1188 544 1193 l 572 1113 q 508 1118 544 1118 z "},"₹":{"ha":764,"x_min":104,"x_max":661,"o":"m 494 819 l 494 672 l 661 672 l 661 611 l 494 611 l 494 549 q 430 400 494 442 q 225 358 365 358 l 224 358 l 224 271 q 245 145 224 190 q 314 81 267 100 q 442 61 361 61 l 581 61 l 581 0 l 442 0 q 224 58 300 0 q 149 271 149 115 l 149 489 l 224 489 l 224 419 l 225 419 q 334 428 293 419 q 397 465 375 438 q 419 549 419 493 l 419 611 l 104 611 l 104 672 l 419 672 l 419 819 l 104 819 l 104 881 l 661 881 l 661 819 l 494 819 z "},"£":{"ha":764,"x_min":65,"x_max":697,"o":"m 697 75 l 697 0 l 65 0 l 65 75 l 197 75 l 197 450 l 107 450 l 107 525 l 197 525 l 197 690 q 222 852 197 794 q 301 933 247 910 q 451 956 356 956 q 592 931 539 956 l 592 851 q 520 875 556 869 q 444 881 485 881 q 338 864 374 881 q 287 806 301 847 q 272 682 272 764 l 272 525 l 525 525 l 525 450 l 272 450 l 272 75 l 697 75 z "},"¥":{"ha":764,"x_min":15,"x_max":750,"o":"m 463 474 l 625 474 l 625 399 l 421 399 l 421 260 l 625 260 l 625 185 l 421 185 l 421 0 l 343 0 l 343 185 l 139 185 l 139 260 l 343 260 l 343 399 l 139 399 l 139 474 l 301 474 l 15 936 l 99 936 l 382 474 l 667 936 l 750 936 l 463 474 z "},"≈":{"ha":764,"x_min":89,"x_max":675,"o":"m 486 508 q 425 522 451 508 q 367 563 399 536 q 317 597 336 586 q 274 607 299 607 q 199 585 232 607 q 126 524 167 563 l 89 571 q 181 650 138 621 q 274 679 224 679 q 339 665 313 679 q 399 624 365 651 q 444 591 426 601 q 486 581 463 581 q 563 602 532 581 q 638 664 594 624 l 675 617 q 579 535 618 561 q 486 508 540 508 m 486 231 q 425 244 451 231 q 367 285 399 258 q 317 319 336 308 q 274 329 299 329 q 199 307 232 329 q 126 246 167 285 l 89 293 q 181 372 138 343 q 274 401 224 401 q 339 388 313 401 q 399 346 365 374 q 444 313 426 324 q 486 303 463 303 q 563 324 532 303 q 638 386 594 346 l 675 339 q 579 257 618 283 q 486 231 540 231 z "},"~":{"ha":764,"x_min":61,"x_max":703,"o":"m 514 383 q 437 401 468 383 q 364 454 406 419 q 311 496 333 482 q 260 510 289 510 q 178 483 214 510 q 99 413 142 457 l 61 460 q 153 549 108 517 q 260 582 199 582 q 342 564 310 582 q 414 511 375 546 q 465 472 443 485 q 514 458 486 458 q 594 480 560 458 q 667 538 629 501 l 703 492 q 615 412 657 440 q 514 383 572 383 z "},"÷":{"ha":764,"x_min":93,"x_max":671,"o":"m 93 54 m 338 264 l 426 264 l 426 54 l 338 54 l 338 264 m 93 506 l 671 506 l 671 431 l 93 431 l 93 506 m 338 882 l 426 882 l 426 672 l 338 672 l 338 882 z "},"=":{"ha":764,"x_min":93,"x_max":671,"o":"m 93 644 l 671 644 l 671 569 l 93 569 l 93 644 m 93 367 l 671 367 l 671 292 l 93 292 l 93 367 z "},">":{"ha":764,"x_min":118,"x_max":671,"o":"m 118 135 m 581 468 l 118 196 l 157 135 l 671 439 l 671 497 l 156 803 l 118 740 l 581 468 z "},"≥":{"ha":764,"x_min":93,"x_max":671,"o":"m 93 0 m 93 678 l 574 442 l 93 206 l 93 125 l 671 413 l 671 471 l 93 758 l 93 678 m 671 75 l 93 75 l 93 0 l 671 0 l 671 75 z "},"∆":{"ha":957,"x_min":35,"x_max":922,"o":"m 922 0 l 35 0 l 444 1065 l 511 1065 l 922 0 m 810 75 l 478 936 l 147 75 l 810 75 z "},"∞":{"ha":764,"x_min":42,"x_max":722,"o":"m 529 674 q 669 616 615 674 q 722 467 722 558 q 669 317 722 375 q 529 258 617 258 q 433 287 475 258 q 368 365 390 315 q 308 302 346 325 q 224 279 271 279 q 93 332 144 279 q 42 467 42 385 q 93 601 42 549 q 224 654 144 654 q 309 631 271 654 q 369 567 347 607 q 432 644 390 615 q 529 674 474 674 m 529 326 q 618 365 585 326 q 651 467 651 403 q 618 567 651 529 q 529 606 585 606 q 439 567 472 606 q 406 467 406 529 q 439 365 406 403 q 529 326 472 326 m 224 347 q 304 378 274 347 q 335 467 335 410 q 304 555 335 524 q 224 586 274 586 q 143 556 174 586 q 113 467 113 525 q 143 378 113 408 q 224 347 174 347 z "},"∫":{"ha":764,"x_min":192,"x_max":572,"o":"m 515 1193 q 572 1188 544 1193 l 572 1113 q 508 1118 544 1118 q 438 1097 457 1118 q 419 1017 419 1076 l 419 -125 q 405 -262 419 -215 q 354 -329 390 -310 q 249 -349 318 -349 q 192 -343 219 -349 l 192 -268 q 256 -274 219 -274 q 310 -261 292 -274 q 337 -216 329 -249 q 344 -117 344 -183 l 344 1025 q 383 1158 344 1122 q 515 1193 421 1193 z "},"<":{"ha":764,"x_min":93,"x_max":646,"o":"m 183 468 l 646 196 l 607 135 l 93 439 l 93 497 l 608 803 l 646 740 l 183 468 z "},"≤":{"ha":764,"x_min":93,"x_max":671,"o":"m 671 678 l 190 442 l 671 206 l 671 125 l 93 413 l 93 471 l 671 758 l 671 678 m 93 75 l 671 75 l 671 0 l 93 0 l 93 75 z "},"¬":{"ha":764,"x_min":93,"x_max":671,"o":"m 671 506 l 671 179 l 593 178 l 593 431 l 93 431 l 93 506 l 671 506 z "},"−":{"ha":764,"x_min":93,"x_max":671,"o":"m 93 506 l 671 506 l 671 431 l 93 431 l 93 506 z "},"≠":{"ha":833,"x_min":93,"x_max":671,"o":"m 464 569 l 406 367 l 671 367 l 671 292 l 385 292 l 338 125 l 260 125 l 307 292 l 93 292 l 93 367 l 328 367 l 386 569 l 93 569 l 93 644 l 407 644 l 450 797 l 528 797 l 485 644 l 671 644 l 671 569 l 464 569 z "},"∂":{"ha":857,"x_min":93,"x_max":764,"o":"m 358 1072 q 576 894 485 1001 q 715 658 667 788 q 764 393 764 528 q 677 90 764 204 q 429 -24 590 -24 q 254 26 331 -24 q 135 158 178 75 q 93 336 93 240 q 139 526 93 444 q 261 653 185 608 q 428 697 338 697 q 660 588 567 697 q 533 834 621 721 q 315 1018 444 947 l 358 1072 m 686 393 q 682 472 686 433 q 574 584 639 546 q 428 622 508 622 q 304 590 363 622 q 208 492 246 557 q 171 336 171 428 q 205 190 171 254 q 298 88 239 125 q 429 51 357 51 q 617 139 549 51 q 686 393 685 226 z "},"%":{"ha":1407,"x_min":65,"x_max":1342,"o":"m 967 1074 l 1047 1074 l 468 -46 l 388 -46 l 967 1074 m 329 422 q 197 458 257 422 q 101 553 136 493 q 65 686 65 614 q 101 818 65 758 q 197 913 136 878 q 329 949 257 949 q 461 913 401 949 q 556 818 521 878 q 592 686 592 758 q 556 553 592 614 q 461 458 521 493 q 329 422 401 422 m 329 494 q 460 550 408 494 q 511 686 511 606 q 460 822 511 767 q 329 876 410 876 q 197 822 249 876 q 146 686 146 767 q 197 550 146 606 q 329 494 249 494 m 1079 -24 q 947 12 1007 -24 q 851 108 886 47 q 815 240 815 168 q 851 372 815 313 q 947 467 886 432 q 1079 503 1007 503 q 1211 467 1151 503 q 1306 372 1271 432 q 1342 240 1342 313 q 1306 108 1342 168 q 1211 12 1271 47 q 1079 -24 1151 -24 m 1079 49 q 1210 104 1158 49 q 1261 240 1261 160 q 1210 376 1261 321 q 1079 431 1160 431 q 947 376 999 431 q 896 240 896 321 q 947 104 896 160 q 1079 49 999 49 z "},"‰":{"ha":2032,"x_min":65,"x_max":1967,"o":"m 967 1074 l 1047 1074 l 468 -46 l 388 -46 l 967 1074 m 329 422 q 197 458 257 422 q 101 553 136 493 q 65 686 65 614 q 101 818 65 758 q 197 913 136 878 q 329 949 257 949 q 461 913 401 949 q 556 818 521 878 q 592 686 592 758 q 556 553 592 614 q 461 458 521 493 q 329 422 401 422 m 329 494 q 460 550 408 494 q 511 686 511 606 q 460 822 511 767 q 329 876 410 876 q 197 822 249 876 q 146 686 146 767 q 197 550 146 606 q 329 494 249 494 m 1079 -24 q 947 12 1007 -24 q 851 108 886 47 q 815 240 815 168 q 851 372 815 313 q 947 467 886 432 q 1079 503 1007 503 q 1211 467 1151 503 q 1306 372 1271 432 q 1342 240 1342 313 q 1306 108 1342 168 q 1211 12 1271 47 q 1079 -24 1151 -24 m 1704 -24 q 1572 12 1632 -24 q 1476 108 1511 47 q 1440 240 1440 168 q 1476 372 1440 313 q 1572 467 1511 432 q 1704 503 1632 503 q 1836 467 1776 503 q 1931 372 1896 432 q 1967 240 1967 313 q 1931 108 1967 168 q 1836 12 1896 47 q 1704 -24 1776 -24 m 1079 49 q 1210 104 1158 49 q 1261 240 1261 160 q 1210 376 1261 321 q 1079 431 1160 431 q 947 376 999 431 q 896 240 896 321 q 947 104 896 160 q 1079 49 999 49 m 1704 49 q 1835 104 1783 49 q 1886 240 1886 160 q 1835 376 1886 321 q 1704 431 1785 431 q 1572 376 1624 431 q 1521 240 1521 321 q 1572 104 1521 160 q 1704 49 1624 49 z "},"+":{"ha":764,"x_min":93,"x_max":671,"o":"m 671 431 l 421 431 l 421 179 l 343 178 l 343 431 l 93 431 l 93 506 l 343 506 l 343 756 l 421 757 l 421 506 l 671 506 l 671 431 z "},"±":{"ha":764,"x_min":93,"x_max":671,"o":"m 93 0 m 671 431 l 421 431 l 421 179 l 343 178 l 343 431 l 93 431 l 93 506 l 343 506 l 343 756 l 421 757 l 421 506 l 671 506 l 671 431 m 93 75 l 671 75 l 671 0 l 93 0 l 93 75 z "},"∏":{"ha":1076,"x_min":167,"x_max":910,"o":"m 910 -329 l 832 -329 l 832 978 l 244 978 l 244 -329 l 167 -329 l 167 1053 l 910 1053 l 910 -329 z "},"√":{"ha":972,"x_min":93,"x_max":1042,"o":"m 1042 1303 l 567 -240 l 500 -240 l 239 410 l 133 333 l 93 393 l 272 528 l 532 -121 l 961 1303 l 1042 1303 z "},"∑":{"ha":929,"x_min":111,"x_max":846,"o":"m 846 978 l 210 978 l 621 381 l 621 344 l 210 -254 l 846 -254 l 846 -329 l 111 -329 l 111 -257 l 539 363 l 111 981 l 111 1053 l 846 1053 l 846 978 z "},"◌":{"ha":1069,"x_min":129,"x_max":940,"o":"m 536 742 q 496 758 513 742 q 479 799 479 775 q 496 838 479 821 q 536 856 513 856 q 576 838 558 856 q 593 799 593 821 q 576 758 593 775 q 536 742 558 742 m 358 697 q 319 714 336 697 q 303 754 303 731 q 319 794 303 778 q 358 811 336 811 q 399 794 382 811 q 415 754 415 778 q 399 715 415 732 q 358 697 382 697 m 708 697 q 669 715 686 697 q 651 754 651 732 q 669 794 651 778 q 708 811 686 811 q 749 794 732 811 q 765 754 765 778 q 749 714 765 731 q 708 697 732 697 m 229 568 q 189 585 206 568 q 172 625 172 601 q 189 665 172 649 q 229 682 206 682 q 269 665 253 682 q 286 625 286 649 q 269 585 286 601 q 229 568 253 568 m 840 568 q 800 585 817 568 q 783 625 783 601 q 801 665 783 649 q 840 682 818 682 q 881 665 864 682 q 897 625 897 649 q 881 585 897 601 q 840 568 864 568 m 186 392 q 146 408 163 392 q 129 449 129 425 q 146 489 129 472 q 186 506 163 506 q 226 489 210 506 q 243 449 243 472 q 226 409 243 426 q 186 392 210 392 m 883 392 q 844 409 861 392 q 828 449 828 426 q 844 489 828 472 q 883 506 861 506 q 924 489 907 506 q 940 449 940 472 q 924 408 940 425 q 883 392 907 392 m 229 217 q 189 233 206 217 q 172 274 172 250 q 189 313 172 297 q 229 329 206 329 q 269 313 253 329 q 286 274 286 296 q 269 234 286 251 q 229 217 253 217 m 840 217 q 801 234 818 217 q 783 274 783 251 q 800 313 783 296 q 840 329 817 329 q 881 313 864 329 q 897 274 897 297 q 881 233 897 250 q 840 217 864 217 m 358 85 q 319 101 336 85 q 303 142 303 118 q 319 181 303 165 q 358 197 336 197 q 399 181 382 197 q 415 142 415 164 q 399 102 415 119 q 358 85 382 85 m 708 85 q 669 102 686 85 q 651 142 651 119 q 668 181 651 164 q 708 197 685 197 q 749 181 732 197 q 765 142 765 165 q 749 101 765 118 q 708 85 732 85 m 536 42 q 496 58 513 42 q 479 99 479 75 q 496 139 479 122 q 536 156 513 156 q 576 139 558 156 q 593 99 593 122 q 576 59 593 76 q 536 42 558 42 z "},"◊":{"ha":764,"x_min":74,"x_max":689,"o":"m 689 468 l 411 0 l 353 0 l 74 468 l 353 936 l 411 936 l 689 468 m 604 468 l 382 846 l 160 468 l 382 90 l 604 468 z "},"|":{"ha":411,"x_min":167,"x_max":244,"o":"m 167 1176 l 244 1176 l 244 -179 l 167 -179 l 167 1176 z "},"¦":{"ha":411,"x_min":167,"x_max":244,"o":"m 167 1176 l 244 1176 l 244 654 l 167 654 l 167 1176 m 167 343 l 244 343 l 244 -179 l 167 -179 l 167 343 z "},"@":{"ha":1369,"x_min":93,"x_max":1276,"o":"m 868 218 q 857 156 857 178 q 881 107 857 122 q 958 92 904 92 q 1089 144 1035 92 q 1171 283 1143 197 q 1199 468 1199 369 q 1074 810 1199 690 q 725 931 949 931 q 451 853 578 931 q 247 635 324 775 q 171 317 171 494 q 226 34 171 156 q 395 -155 282 -87 q 675 -222 508 -222 q 857 -197 771 -222 q 1039 -121 943 -171 l 1067 -190 q 874 -268 964 -242 q 675 -294 783 -294 q 372 -223 504 -294 q 167 -13 240 -151 q 93 317 93 125 q 179 673 93 517 q 410 916 265 829 q 725 1003 554 1003 q 1018 938 893 1003 q 1210 751 1143 872 q 1276 468 1276 631 q 1236 235 1276 338 q 1123 76 1196 133 q 958 19 1050 19 q 783 135 794 19 q 601 38 699 38 q 451 94 506 38 q 396 260 396 150 q 443 484 397 382 q 565 644 489 586 q 733 703 642 703 q 903 597 856 703 l 928 681 l 1004 681 l 868 218 m 883 531 q 733 628 825 628 q 601 574 660 628 q 510 435 543 519 q 474 260 476 350 q 504 146 474 179 q 601 113 535 113 q 708 147 657 113 q 801 246 758 182 l 883 531 z "},"&":{"ha":1131,"x_min":93,"x_max":1089,"o":"m 1089 75 l 1089 0 l 1050 0 q 754 132 919 0 q 601 17 685 58 q 425 -24 517 -24 q 243 19 318 -24 q 131 133 168 61 q 93 289 93 204 q 125 422 93 365 q 201 515 157 478 q 325 606 246 553 q 241 735 268 681 q 214 858 214 789 q 278 1019 214 957 q 443 1082 342 1082 q 601 1025 542 1082 q 661 875 661 968 q 490 636 661 753 l 422 590 q 572 413 482 511 q 749 235 661 314 q 845 441 811 324 q 881 692 879 558 l 961 692 q 919 421 961 551 q 803 189 878 290 q 1051 75 946 75 l 1089 75 m 443 1010 q 333 969 371 1010 q 294 858 294 929 q 315 751 294 801 q 381 643 336 700 l 460 697 q 551 783 521 739 q 581 876 581 826 q 545 974 581 938 q 443 1010 510 1010 m 425 49 q 575 82 504 49 q 703 178 646 115 q 364 550 556 317 q 263 474 301 508 q 199 394 224 440 q 174 289 174 349 q 203 170 174 225 q 288 82 232 115 q 425 49 344 49 z "},"¶":{"ha":892,"x_min":69,"x_max":725,"o":"m 425 464 l 385 464 q 148 539 226 464 q 69 757 69 614 q 385 1053 69 1053 l 725 1053 l 725 -139 l 647 -139 l 647 981 l 503 981 l 503 -139 l 425 -139 l 425 464 z "},"©":{"ha":1299,"x_min":93,"x_max":1206,"o":"m 650 -24 q 369 48 497 -24 q 167 244 242 119 q 93 525 93 369 q 168 798 93 672 q 371 998 243 924 q 650 1072 499 1072 q 926 998 799 1072 q 1130 798 1054 924 q 1206 525 1206 672 q 1131 245 1206 371 q 928 48 1056 119 q 650 -24 800 -24 m 650 49 q 885 111 776 49 q 1060 283 994 174 q 1125 528 1125 393 q 1059 763 1125 654 q 883 935 993 871 q 650 1000 774 1000 q 412 935 521 1000 q 238 762 303 871 q 174 525 174 653 q 238 281 174 390 q 410 110 301 172 q 650 49 519 49 m 650 215 q 497 256 560 215 q 403 368 435 297 q 371 525 371 439 q 442 747 371 661 q 650 833 513 833 q 726 827 693 833 q 794 806 758 821 l 794 728 q 650 761 732 761 q 505 696 558 761 q 451 529 451 631 q 503 352 451 415 q 650 289 554 289 q 731 299 692 289 q 814 328 769 308 l 842 264 q 746 228 796 240 q 650 215 696 215 z "},"®":{"ha":1001,"x_min":99,"x_max":903,"o":"m 501 1068 q 702 1014 610 1068 q 849 868 794 960 q 903 671 903 776 q 849 467 903 558 q 702 324 794 376 q 501 272 610 272 q 298 324 390 272 q 152 467 206 375 q 99 671 99 558 q 153 868 99 776 q 299 1014 207 960 q 501 1068 392 1068 m 501 338 q 667 381 590 338 q 789 502 743 425 q 835 674 835 579 q 788 837 835 761 q 665 958 742 913 q 501 1003 589 1003 q 334 958 411 1003 q 212 836 257 913 q 167 671 167 760 q 212 500 167 576 q 333 381 257 424 q 501 338 410 338 m 657 746 q 579 625 657 647 l 676 469 l 601 469 l 513 617 l 433 617 l 433 469 l 368 469 l 368 872 l 517 872 q 623 842 589 872 q 657 746 657 813 m 433 676 l 518 676 q 574 691 558 676 q 589 746 589 706 q 574 798 589 783 q 518 813 558 813 l 433 813 l 433 676 z "},"§":{"ha":764,"x_min":71,"x_max":693,"o":"m 693 413 q 649 298 692 343 q 525 224 606 253 q 631 51 631 164 q 560 -89 629 -37 q 371 -140 490 -140 q 146 -100 246 -140 l 146 -19 q 371 -68 249 -68 q 506 -35 461 -68 q 550 53 550 -1 q 508 140 550 108 q 390 193 465 172 l 321 213 q 185 260 238 235 q 101 328 132 285 q 71 438 71 371 q 235 614 71 561 q 169 678 192 640 q 147 772 147 717 q 210 910 147 865 q 388 956 274 956 q 508 944 457 956 q 614 904 558 932 l 614 826 q 503 869 554 856 q 388 883 453 883 q 268 853 308 883 q 228 771 228 824 q 264 690 228 717 q 369 643 300 663 l 439 624 q 623 544 554 592 q 693 413 692 496 m 432 263 q 565 319 518 281 q 613 414 613 357 q 560 493 613 463 q 417 549 508 524 l 347 568 q 326 575 340 569 q 198 525 243 560 q 151 436 153 490 q 171 371 153 396 q 228 328 189 346 q 343 288 268 310 l 413 268 l 432 263 z "},"™":{"ha":1583,"x_min":56,"x_max":1417,"o":"m 586 978 l 360 978 l 360 300 l 282 300 l 282 978 l 56 978 l 56 1053 l 586 1053 l 586 978 m 1417 1053 l 1417 300 l 1339 300 l 1339 922 l 1090 583 l 1058 583 l 811 922 l 811 300 l 733 300 l 733 1053 l 800 1053 l 1075 676 l 1350 1053 l 1417 1053 z "},"°":{"ha":657,"x_min":65,"x_max":592,"o":"m 329 429 q 197 465 257 429 q 101 560 136 500 q 65 693 65 621 q 101 825 65 765 q 197 920 136 885 q 329 956 257 956 q 461 920 401 956 q 556 825 521 885 q 592 693 592 765 q 556 560 592 621 q 461 465 521 500 q 329 429 401 429 m 329 501 q 460 557 408 501 q 511 693 511 613 q 460 828 511 774 q 329 883 410 883 q 197 828 249 883 q 146 693 146 774 q 197 557 146 613 q 329 501 249 501 z "},"^":{"ha":764,"x_min":47,"x_max":717,"o":"m 654 192 l 382 654 l 110 192 l 47 232 l 353 744 l 411 744 l 717 229 l 654 192 z "},"†":{"ha":644,"x_min":63,"x_max":582,"o":"m 582 779 l 361 779 l 361 65 l 283 65 l 283 779 l 63 779 l 63 854 l 283 854 l 283 1118 l 361 1118 l 361 854 l 582 854 l 582 779 z "},"‡":{"ha":644,"x_min":63,"x_max":582,"o":"m 361 779 l 361 438 l 582 438 l 582 363 l 361 363 l 361 -249 l 283 -249 l 283 363 l 63 363 l 63 438 l 283 438 l 283 779 l 63 779 l 63 854 l 283 854 l 283 1118 l 361 1118 l 361 854 l 582 854 l 582 779 l 361 779 z "},"ऽ":{"ha":674,"x_min":42,"x_max":586,"o":"m 42 61 l 218 61 q 377 106 326 61 q 428 225 428 150 q 394 338 428 288 q 294 456 361 388 q 188 582 224 528 q 153 708 153 636 q 372 881 153 881 l 586 881 l 586 819 l 372 819 q 262 791 296 819 q 228 708 228 763 q 258 610 228 656 q 351 501 289 565 q 431 413 401 450 q 482 328 461 376 q 503 225 503 281 q 433 60 503 119 q 218 0 364 0 l 42 0 l 42 61 z "},"ॐ":{"ha":1297,"x_min":90,"x_max":1204,"o":"m 813 958 l 733 1036 l 813 1115 l 892 1036 l 813 958 m 813 763 q 631 817 699 763 q 564 969 564 872 l 564 983 l 625 983 l 625 969 q 672 862 625 900 q 813 824 719 824 q 953 862 906 824 q 1000 969 1000 900 l 1000 983 l 1061 983 l 1061 969 q 994 817 1061 872 q 813 763 926 763 m 954 658 q 1147 586 1090 658 q 1204 353 1204 514 q 1146 116 1204 185 q 961 47 1088 47 l 940 47 q 757 115 815 47 q 697 349 699 183 l 490 349 q 496 293 496 325 q 404 111 496 167 q 171 56 313 56 l 90 56 l 90 117 l 171 117 q 350 153 279 117 q 421 293 421 190 q 374 408 421 371 q 225 446 328 446 l 154 446 l 154 507 l 226 507 q 372 554 324 507 q 421 675 421 601 q 369 788 421 757 q 213 819 318 819 l 133 819 l 133 881 l 213 881 q 426 833 357 881 q 496 675 496 786 q 369 478 496 540 q 464 410 432 457 l 699 410 q 768 601 708 544 q 954 658 828 658 m 961 108 q 1056 128 1019 108 q 1110 200 1092 147 q 1129 353 1129 253 q 1110 501 1129 449 q 1054 576 1092 554 q 954 597 1017 597 q 849 576 888 597 q 791 503 810 556 q 772 353 772 450 q 791 200 772 253 q 847 128 810 147 q 949 108 885 108 l 961 108 z "},"̦":{"ha":901,"x_min":-544,"x_max":-417,"o":"m -500 -111 l -417 -111 l -469 -342 l -544 -342 l -500 -111 z "},"´":{"ha":901,"x_min":407,"x_max":651,"o":"m 557 1124 l 651 1124 l 483 911 l 407 911 l 557 1124 z "},"˘":{"ha":901,"x_min":244,"x_max":665,"o":"m 453 914 q 301 965 357 914 q 244 1113 244 1017 l 244 1121 l 314 1121 l 314 1113 q 347 1013 314 1044 q 453 981 381 981 q 558 1013 525 981 q 592 1113 592 1044 l 592 1121 l 661 1121 l 661 1113 q 608 965 665 1017 q 453 914 550 914 z "},"ˇ":{"ha":901,"x_min":244,"x_max":657,"o":"m 657 1124 l 489 911 l 413 911 l 244 1124 l 339 1124 l 451 965 l 563 1124 l 657 1124 z "},"¸":{"ha":901,"x_min":335,"x_max":632,"o":"m 481 -100 q 592 -135 553 -100 q 632 -229 632 -171 q 588 -328 632 -290 q 463 -365 543 -365 q 335 -337 396 -365 l 335 -271 q 463 -300 399 -300 q 537 -279 513 -300 q 561 -229 561 -258 q 481 -165 561 -165 q 363 -189 433 -165 l 421 1 l 492 1 l 460 -101 q 481 -100 467 -100 z "},"ˆ":{"ha":901,"x_min":244,"x_max":657,"o":"m 563 911 l 451 1069 l 339 911 l 244 911 l 413 1124 l 489 1124 l 657 911 l 563 911 z "},"¨":{"ha":901,"x_min":278,"x_max":624,"o":"m 549 1094 l 624 1094 l 624 940 l 549 940 l 549 1094 m 278 1094 l 353 1094 l 353 940 l 278 940 l 278 1094 z "},"˙":{"ha":901,"x_min":415,"x_max":490,"o":"m 415 1094 l 490 1094 l 490 940 l 415 940 l 415 1094 z "},"`":{"ha":901,"x_min":253,"x_max":497,"o":"m 253 1124 l 347 1124 l 497 911 l 421 911 l 253 1124 z "},"˝":{"ha":901,"x_min":289,"x_max":769,"o":"m 675 1124 l 769 1124 l 601 911 l 525 911 l 675 1124 m 439 1124 l 533 1124 l 365 911 l 289 911 l 439 1124 z "},"¯":{"ha":901,"x_min":236,"x_max":665,"o":"m 236 1051 l 665 1051 l 665 985 l 236 985 l 236 1051 z "},"˛":{"ha":901,"x_min":292,"x_max":506,"o":"m 433 -310 q 328 -278 364 -310 q 292 -194 292 -247 q 324 -97 292 -143 q 422 0 357 -51 l 506 0 q 399 -98 435 -56 q 363 -187 363 -140 q 380 -228 363 -212 q 433 -244 397 -244 q 506 -228 474 -244 l 506 -294 q 433 -310 471 -310 z "},"˚":{"ha":901,"x_min":322,"x_max":579,"o":"m 451 889 q 360 926 397 889 q 322 1017 322 963 q 359 1107 322 1071 q 451 1143 396 1143 q 542 1107 506 1143 q 579 1017 579 1071 q 542 926 579 963 q 451 889 506 889 m 451 942 q 502 963 482 942 q 522 1017 522 983 q 503 1072 522 1051 q 451 1092 483 1092 q 400 1071 421 1092 q 379 1017 379 1050 q 400 963 379 983 q 451 942 421 942 z "},"˜":{"ha":901,"x_min":256,"x_max":646,"o":"m 256 947 q 287 1047 258 1015 q 356 1079 315 1079 q 438 1056 394 1079 l 489 1028 q 532 1014 513 1014 q 576 1079 576 1014 l 646 1079 q 615 979 643 1011 q 546 947 586 947 q 465 971 508 947 l 414 999 q 369 1013 389 1013 q 325 947 325 1013 l 256 947 z "},"ु":{"ha":0,"x_min":-614,"x_max":29,"o":"m -208 -371 q -429 -322 -335 -371 q -614 -193 -524 -272 l -574 -150 q -403 -267 -492 -224 q -208 -310 -314 -310 q -87 -276 -129 -310 q -46 -182 -46 -243 q -81 -92 -46 -124 q -178 -60 -115 -60 l -253 -60 l -253 1 l -178 1 q -28 -47 -85 1 q 29 -182 28 -94 q -35 -323 29 -275 q -208 -371 -99 -371 z "},"ू":{"ha":0,"x_min":-454,"x_max":203,"o":"m -247 -365 q -397 -317 -340 -365 q -454 -182 -453 -269 q -390 -41 -454 -89 q -217 7 -326 7 q -43 -39 -119 7 q 88 -152 33 -85 q 203 -318 142 -219 l 154 -353 q 40 -192 86 -250 q -69 -94 -6 -133 q -217 -54 -133 -54 q -337 -87 -296 -54 q -379 -182 -379 -121 q -344 -272 -379 -240 q -247 -304 -310 -304 l -172 -304 l -172 -365 l -247 -365 z "},"ृ":{"ha":0,"x_min":-364,"x_max":-28,"o":"m -167 -265 q -316 -230 -268 -265 q -364 -117 -364 -194 q -181 32 -364 32 l -153 32 l -153 -29 l -181 -29 q -289 -117 -289 -29 q -258 -184 -289 -164 q -167 -204 -226 -204 q -28 -161 -89 -204 l -28 -232 q -167 -265 -89 -265 z "},"ॄ":{"ha":0,"x_min":-365,"x_max":6,"o":"m -133 -426 q 6 -383 -56 -426 l 6 -454 q -133 -487 -56 -487 q -283 -452 -235 -487 q -331 -339 -331 -417 q -287 -231 -331 -269 q -365 -110 -365 -199 q -325 -3 -365 -37 q -189 32 -285 32 q -119 25 -151 32 l -119 -36 q -189 -29 -150 -29 q -267 -49 -244 -29 q -290 -110 -290 -69 q -262 -171 -290 -151 q -154 -190 -233 -190 l -92 -190 l -92 -251 l -147 -251 q -256 -339 -256 -251 q -224 -406 -256 -386 q -133 -426 -193 -426 z "},"ॢ":{"ha":0,"x_min":-643,"x_max":0,"o":"m -108 -562 q -53 -551 -82 -562 q 0 -524 -24 -539 l 0 -586 q -108 -619 -47 -619 q -214 -587 -176 -619 q -251 -511 -251 -556 q -235 -456 -251 -481 q -183 -394 -218 -431 q -123 -322 -143 -353 q -103 -249 -103 -290 q -126 -192 -103 -211 q -190 -172 -149 -172 q -270 -207 -243 -172 q -297 -303 -297 -242 l -297 -347 l -364 -347 l -364 -303 q -392 -207 -365 -242 q -469 -172 -418 -172 q -548 -206 -521 -172 q -576 -303 -575 -240 q -535 -425 -574 -378 q -396 -472 -497 -472 l -385 -472 l -385 -531 l -396 -531 q -585 -465 -528 -531 q -643 -303 -643 -399 q -599 -166 -643 -217 q -469 -115 -554 -115 q -331 -181 -374 -115 q -228 -118 -294 -131 l -228 97 l -153 97 l -153 -118 q -67 -164 -97 -128 q -36 -249 -36 -200 q -60 -334 -36 -297 q -126 -418 -83 -371 q -171 -471 -157 -451 q -185 -511 -185 -490 q -108 -562 -185 -562 z "},"ॣ":{"ha":0,"x_min":-643,"x_max":3,"o":"m -89 -721 q 3 -692 -40 -721 l 3 -756 q -89 -778 -37 -778 q -195 -752 -161 -778 q -229 -671 -229 -726 q -203 -597 -229 -626 q -240 -559 -226 -582 q -253 -511 -253 -536 q -235 -455 -253 -481 q -183 -394 -218 -429 q -123 -322 -143 -353 q -103 -249 -103 -290 q -126 -192 -103 -211 q -192 -174 -149 -174 q -270 -208 -243 -174 q -297 -303 -297 -242 l -297 -347 l -364 -347 l -364 -303 q -392 -207 -365 -242 q -469 -172 -418 -172 q -548 -206 -521 -172 q -576 -303 -575 -240 q -535 -425 -574 -378 q -396 -472 -497 -472 l -385 -472 l -385 -531 l -396 -531 q -585 -465 -528 -531 q -643 -303 -643 -399 q -599 -166 -643 -217 q -469 -115 -554 -115 q -331 -181 -374 -115 q -228 -118 -293 -128 l -228 97 l -153 97 l -153 -118 q -67 -164 -97 -128 q -36 -249 -36 -200 q -60 -334 -36 -297 q -126 -418 -83 -371 q -172 -470 -157 -450 q -186 -511 -186 -490 q -110 -562 -186 -562 q -61 -554 -86 -562 l -61 -615 q -108 -621 -83 -621 q -143 -618 -124 -621 q -162 -671 -162 -637 q -89 -721 -162 -721 z "},"ॅ":{"ha":0,"x_min":-440,"x_max":57,"o":"m -192 986 q -373 1041 -306 986 q -440 1193 -440 1096 l -440 1207 l -379 1207 l -379 1193 q -332 1085 -379 1124 q -192 1047 -285 1047 q -51 1085 -99 1047 q -4 1193 -4 1124 l -4 1207 l 57 1207 l 57 1193 q -10 1041 57 1096 q -192 986 -78 986 z "},"ँ":{"ha":0,"x_min":-440,"x_max":57,"o":"m 0 986 m -192 986 q -373 1041 -306 986 q -440 1193 -440 1096 l -440 1207 l -379 1207 l -379 1193 q -332 1085 -379 1124 q -192 1047 -285 1047 q -51 1085 -99 1047 q -4 1193 -4 1124 l -4 1207 l 57 1207 l 57 1193 q -10 1041 57 1096 q -192 986 -78 986 m -271 1260 l -192 1339 l -112 1260 l -192 1182 l -271 1260 z "},"ॆ":{"ha":833,"x_min":-1742,"x_max":-986,"o":"m -1061 936 q -1074 1032 -1061 997 q -1127 1084 -1087 1067 q -1244 1101 -1167 1101 l -1476 1101 q -1638 1125 -1581 1101 q -1719 1197 -1696 1149 q -1742 1328 -1742 1246 l -1742 1349 l -1667 1349 l -1667 1328 q -1656 1231 -1667 1264 q -1603 1180 -1644 1197 q -1476 1163 -1562 1163 l -1244 1163 q -1081 1139 -1136 1163 q -1006 1067 -1025 1115 q -986 936 -986 1019 l -986 867 l -1061 867 l -1061 936 z "},"े":{"ha":0,"x_min":-544,"x_max":-151,"o":"m -272 1068 q -326 1167 -289 1140 q -440 1193 -362 1193 l -544 1193 l -544 1254 l -440 1254 q -320 1240 -365 1254 q -245 1186 -275 1226 q -197 1068 -215 1146 l -151 867 l -226 867 l -272 1068 z "},"ै":{"ha":0,"x_min":-694,"x_max":-151,"o":"m -151 867 l -226 867 l -310 971 q -379 1044 -347 1018 q -458 1084 -411 1071 q -576 1097 -504 1097 l -694 1097 l -694 1158 l -576 1158 q -432 1144 -485 1158 q -343 1097 -379 1129 q -256 994 -307 1064 l -297 1181 q -351 1279 -314 1253 q -465 1306 -387 1306 l -569 1306 l -569 1367 l -465 1367 q -345 1353 -390 1367 q -270 1299 -300 1339 q -222 1181 -240 1258 l -151 867 z "},"ं":{"ha":0,"x_min":-271,"x_max":-112,"o":"m -271 1051 l -192 1131 l -112 1051 l -192 974 l -271 1051 z "},"्":{"ha":0,"x_min":-265,"x_max":61,"o":"m -265 -135 l -219 -83 l 61 -300 l 15 -351 l -265 -135 z "},"़":{"ha":0,"x_min":-271,"x_max":-112,"o":"m -271 -162 l -192 -83 l -112 -162 l -192 -240 l -271 -162 z "},"ऺ":{"ha":0,"x_min":-228,"x_max":-153,"o":"m -228 1254 l -153 1254 l -153 851 l -228 851 l -228 1254 z "},"ॖ":{"ha":0,"x_min":-486,"x_max":103,"o":"m -192 -264 q -367 -220 -292 -264 q -486 -106 -442 -176 l -442 -71 q -192 -203 -349 -201 q 58 -71 -35 -201 l 103 -106 q -17 -219 58 -175 q -192 -264 -92 -264 z "},"ॗ":{"ha":0,"x_min":-486,"x_max":103,"o":"m -192 -264 q -367 -220 -292 -264 q -486 -106 -442 -176 l -442 -71 q -192 -203 -349 -201 q 58 -71 -35 -201 l 103 -106 q -17 -219 58 -175 q -192 -264 -92 -264 m -192 -486 q -367 -442 -292 -486 q -486 -328 -442 -399 l -442 -293 q -192 -425 -349 -424 q 58 -293 -35 -424 l 103 -328 q -17 -442 58 -397 q -192 -486 -92 -486 z "},"॑":{"ha":0,"x_min":-228,"x_max":-153,"o":"m -228 1392 l -153 1392 l -153 1026 l -228 1026 l -228 1392 z "},"॒":{"ha":0,"x_min":-535,"x_max":107,"o":"m -535 -278 l 107 -278 l 107 -339 l -535 -339 l -535 -278 z "},"॓":{"ha":0,"x_min":-554,"x_max":-232,"o":"m -554 1376 l -447 1376 l -232 1064 l -306 1064 l -554 1376 z "},"॔":{"ha":0,"x_min":-251,"x_max":71,"o":"m -36 1376 l 71 1376 l -178 1064 l -251 1064 l -36 1376 z "},"ः":{"ha":419,"x_min":131,"x_max":289,"o":"m 131 601 l 210 681 l 289 601 l 210 524 l 131 601 m 131 135 l 210 214 l 289 135 l 210 57 l 131 135 z "}}}
